<svg width="80" height="81" viewBox="0 0 80 81" fill="none" xmlns="http://www.w3.org/2000/svg">
<rect y="0.104492" width="80" height="80" rx="40" fill="#FF451C"/>
<path d="M30.9296 31.2042V47.0706C30.9296 47.271 31.0092 47.4631 31.1509 47.6048C31.2926 47.7465 31.4848 47.8261 31.6851 47.8261H48.307C48.5074 47.8261 48.6996 47.7465 48.8413 47.6048C48.983 47.4631 49.0626 47.271 49.0626 47.0706V31.2042C49.0626 31.0038 48.983 30.8117 48.8413 30.67C48.6996 30.5283 48.5074 30.4487 48.307 30.4487H43.0182V36.493L39.9961 34.2264L36.9739 36.493V30.4487H31.6851C31.4848 30.4487 31.2926 30.5283 31.1509 30.67C31.0092 30.8117 30.9296 31.0038 30.9296 31.2042Z" fill="#FFFBEC"/>
<path d="M41.4694 20.5889L39.9961 17.6045L38.5228 20.5889L35.2286 21.0649L37.6161 23.3919L37.0495 26.671L39.9961 25.1221L42.9427 26.671L42.376 23.3919L44.7635 21.0649L41.4694 20.5889Z" fill="#FFFBEC"/>
<path d="M18.9845 50.1834C19.9762 50.5249 21.0629 50.4597 22.0067 50.0021C23.2916 52.2649 25.0585 54.2175 27.1821 55.7215C26.1563 56.1273 25.2932 56.8603 24.7266 57.8068C24.7266 57.8068 26.2377 59.5672 27.9074 59.4161C28.4351 59.3082 28.936 59.0963 29.381 58.7927C29.8259 58.4892 30.206 58.1001 30.4989 57.6481C32.6958 58.6828 35.0286 59.4002 37.4272 59.7788L38.1828 59.9299C37.4735 60.423 36.8613 61.0429 36.377 61.7583L37.6312 62.5894C38.0368 61.9963 38.5492 61.4838 39.1423 61.0783C39.4168 60.8976 39.7019 60.7336 39.9961 60.5872C40.2958 60.7379 40.586 60.907 40.865 61.0934C41.4581 61.4989 41.9705 62.0114 42.376 62.6045L43.6302 61.7734C43.1534 61.0485 42.5462 60.4183 41.8396 59.9148L42.5951 59.7637C44.9829 59.3881 47.3054 58.6758 49.4932 57.6481C49.7862 58.1001 50.1663 58.4892 50.6112 58.7927C51.0561 59.0963 51.557 59.3082 52.0847 59.4161C53.7469 59.5672 55.2656 57.8068 55.2656 57.8068C54.699 56.8603 53.8358 56.1273 52.8101 55.7215C54.9336 54.2175 56.7005 52.2649 57.9855 50.0021C58.9293 50.4597 60.0159 50.5249 61.0077 50.1834C62.5188 49.4732 62.9343 47.1612 62.9343 47.1612C62.9343 47.1612 60.9019 46.0355 59.3908 46.7533C59.9663 44.9435 60.3041 43.0666 60.3957 41.1698C61.1001 40.5855 61.5586 39.7574 61.6801 38.8503C61.7632 37.1805 59.9424 35.7375 59.9424 35.7375C59.9424 35.7375 57.9855 36.9992 57.91 38.6614C57.9305 39.5432 58.2779 40.386 58.8846 41.0263C58.8043 42.825 58.4789 44.6043 57.9175 46.315V46.2168C57.162 44.7057 54.8953 44.2977 54.8953 44.2977C54.8953 44.2977 53.7545 46.315 54.4722 47.8261C54.9209 48.6075 55.646 49.1924 56.5046 49.4656C55.2001 51.6502 53.4113 53.5062 51.2763 54.8904C51.3303 54.7313 51.3658 54.5665 51.3821 54.3993C51.5332 52.7371 49.7728 51.2185 49.7728 51.2185C49.7728 51.2185 47.7706 52.3971 47.6195 54.0593C47.6092 54.9298 47.9183 55.7738 48.4884 56.4317C46.5282 57.3137 44.4604 57.9335 42.3383 58.2752C41.5361 58.3979 40.7504 58.6108 39.9961 58.9099C39.2418 58.6108 38.4561 58.3979 37.6539 58.2752C35.5318 57.9335 33.464 57.3137 31.5038 56.4317C32.0739 55.7738 32.383 54.9298 32.3727 54.0593C32.2216 52.3971 30.2194 51.2185 30.2194 51.2185C30.2194 51.2185 28.459 52.7296 28.6101 54.3993C28.6264 54.5665 28.6619 54.7313 28.7159 54.8904C26.5808 53.5062 24.7921 51.6502 23.4875 49.4656C24.3461 49.1924 25.0712 48.6075 25.5199 47.8261C26.2377 46.315 25.1119 44.2902 25.1119 44.2902C25.1119 44.2902 22.8453 44.7057 22.0898 46.2093V46.3075C21.5239 44.5999 21.1935 42.8231 21.1076 41.0263C21.7153 40.3891 22.0653 39.5492 22.0898 38.669C22.0142 36.9992 20.0574 35.7375 20.0574 35.7375C20.0574 35.7375 18.2365 37.1805 18.3196 38.8503C18.4391 39.7563 18.8949 40.5842 19.5965 41.1698C19.6879 43.0771 20.0283 44.9644 20.6089 46.7835C19.0978 46.0279 17.0654 47.1915 17.0654 47.1915C17.0654 47.1915 17.4734 49.4732 18.9845 50.1834Z" fill="#FFFBEC"/>
</svg>
