<svg width="80" height="81" viewBox="0 0 80 81" fill="none" xmlns="http://www.w3.org/2000/svg">
<rect y="0.104492" width="80" height="80" rx="40" fill="#FF451C"/>
<path d="M29.9789 59.5471C28.5664 59.5471 28.5664 57.3961 29.9789 57.3961H36.0647C37.4772 57.3961 37.4772 59.5471 36.0647 59.5471H29.9789ZM49.7446 24.236C50.8953 25.1112 51.9288 26.1447 52.8021 27.2955L55.6389 26.1252C56.1879 25.8927 56.8091 26.1565 57.0319 26.7055L59.3529 32.3066C59.5736 32.8556 59.3216 33.4768 58.7726 33.6996L55.9358 34.8698C56.1351 36.2941 56.1351 37.7711 55.9456 39.2051L58.7726 40.3753C59.3216 40.5961 59.5736 41.2193 59.3528 41.7663L57.0318 47.3674C56.8111 47.9164 56.1879 48.1782 55.6389 47.9574L52.8021 46.7774C51.9171 47.9379 50.8933 48.9714 49.7446 49.8369L50.9148 52.6736C51.1356 53.2227 50.8835 53.8439 50.3345 54.0764L44.7334 56.3974C44.1844 56.6181 43.5632 56.3544 43.3424 55.8073L42.1604 52.9804C40.9277 53.1484 39.65 53.1699 38.3957 53.0429C38.132 53.2969 37.8584 53.5294 37.5615 53.7403C37.5615 56.9366 37.8369 56.4814 33.027 56.4814C28.2072 56.4814 28.4808 56.9346 28.4808 53.7403C26.5192 52.3161 25.3158 50.0381 25.2845 47.5706L24.3565 47.9613C23.8193 48.1821 23.1863 47.9183 22.9655 47.3713L20.6446 41.7702C20.4238 41.2329 20.6875 40.5999 21.2248 40.3792L24.0616 39.2089C23.8721 37.7847 23.8604 36.3077 24.0616 34.8737L21.2248 33.7035C20.6876 33.4827 20.4238 32.8595 20.6446 32.3105L22.9655 26.7094C23.1863 26.1604 23.8193 25.8986 24.3565 26.1291L27.205 27.2993C28.0802 26.1388 29.1137 25.1171 30.2625 24.2399L29.0805 21.4031C28.8598 20.8541 29.1235 20.2329 29.6608 20.0101L35.2719 17.6891C35.8092 17.4566 36.4324 17.7204 36.6649 18.2694L37.8351 21.0963C39.2594 20.9068 40.7364 20.9068 42.1586 21.0963L43.3406 18.2694C43.5614 17.7204 44.1846 17.4567 44.7316 17.6891L50.3327 20.0101C50.8817 20.2309 51.1338 20.8541 50.913 21.4031L49.7446 24.236ZM40.5895 45.8887L42.4767 42.6182C42.76 42.122 43.4047 41.9637 43.8795 42.2392C45.376 43.1144 47.3179 42.5987 48.1932 41.0787L48.5195 40.5199C51.5984 40.9634 53.054 36.7865 50.3442 35.2254C48.9824 34.4342 47.2319 34.8992 46.4407 36.2687H46.4505C45.8488 37.2709 45.966 38.5584 46.6712 39.4532C46.1867 40.2874 45.8917 40.8344 44.8367 40.3284C43.1702 39.5274 41.3455 40.1389 40.5758 41.6355L39.5735 43.3664C40.0522 44.1381 40.4 44.9822 40.5895 45.8887ZM43.4164 33.2641C44.5456 33.4223 45.6944 32.8851 46.2845 31.8613C47.5504 29.7416 45.5772 27.0103 43.0784 27.6746C41.0955 28.2021 40.3042 30.5855 41.5604 32.1993L35.5997 42.5128C31.9092 40.5923 27.4373 43.2727 27.4373 47.481C27.4373 49.4425 28.4611 51.2457 30.1061 52.248C30.4323 52.459 30.6218 52.8067 30.6218 53.1662V54.3364H31.9503V51.9099H31.5595C30.1568 51.9099 30.1568 49.7687 31.5595 49.7687H34.4803C35.883 49.7687 35.883 51.9099 34.4803 51.9099H34.0895V54.3364H35.418C35.418 53.3557 35.2598 52.6387 35.9983 52.2167C37.569 51.3102 38.6143 49.3682 38.6143 47.4809C38.6143 46.0997 38.1083 44.8434 37.2858 43.8627L43.4164 33.2641ZM35.043 40.014C35.76 38.7793 36.4985 37.8513 36.098 36.3431C35.6135 34.5281 34.3905 34.698 34.1483 33.8013C34.0115 33.2856 34.2948 32.9476 34.5703 32.4728C37.6492 32.9163 39.1165 28.7296 36.4048 27.1688C33.6833 25.5981 30.8057 28.9506 32.724 31.4083C32.1653 32.3676 31.7531 33.1159 32.0812 34.3603C32.5658 36.1753 33.7907 36.0054 34.033 36.9021C34.0955 37.156 34.0759 37.4393 33.9372 37.6835L32.7357 39.7505C33.5231 39.7193 34.3026 39.8128 35.043 40.014ZM35.6643 29.4565C35.422 28.5383 34.0291 28.9075 34.2733 29.8257C34.5253 30.7342 35.9066 30.3747 35.6643 29.4565ZM44.5028 30.2477C44.2606 29.3412 42.8793 29.7104 43.1216 30.6169C43.3638 31.5352 44.7451 31.166 44.5028 30.2477ZM49.6178 37.5153C49.3638 36.5971 47.9826 36.9663 48.2248 37.8845C48.469 38.791 49.86 38.4218 49.6178 37.5153ZM31.6241 62.6045C30.2214 62.6045 30.2214 60.4633 31.6241 60.4633H34.4198C35.8323 60.4633 35.8323 62.6045 34.4198 62.6045H31.6241Z" fill="#FFFBEC"/>
</svg>
