<svg width="80" height="81" viewBox="0 0 80 81" fill="none" xmlns="http://www.w3.org/2000/svg">
<rect y="0.104492" width="80" height="80" rx="40" fill="#FF451C"/>
<path d="M18.3036 36.0866H19.4985C19.239 37.4102 19.108 38.7557 19.1071 40.1045C19.1071 40.3721 19.1208 40.6397 19.1313 40.9081H17.7242C17.6855 40.9094 17.648 40.9215 17.6158 40.9429C17.5836 40.9643 17.558 40.9943 17.5418 41.0294C17.5134 41.0798 17.4992 41.137 17.5006 41.1948C17.502 41.2527 17.519 41.3091 17.5498 41.3581L19.7363 44.8182C19.848 44.9958 19.9726 44.9958 20.0859 44.8182L22.2708 41.3581C22.3017 41.3091 22.3189 41.2528 22.3204 41.1949C22.322 41.1371 22.3079 41.0799 22.2796 41.0294C22.2635 40.9943 22.2378 40.9643 22.2056 40.9429C22.1734 40.9215 22.1359 40.9094 22.0972 40.9081H20.7384C20.7271 40.6405 20.7143 40.3721 20.7143 40.1045C20.7144 38.754 20.8566 37.4073 21.1386 36.0866H24.7321C24.9453 36.0866 25.1497 36.002 25.3004 35.8513C25.4511 35.7006 25.5357 35.4962 25.5357 35.2831V32.0688C25.5357 31.8557 25.4511 31.6513 25.3004 31.5006C25.1497 31.3499 24.9453 31.2652 24.7321 31.2652H22.8679C23.7899 29.4848 24.9827 27.8583 26.4036 26.4438H30.3571C30.5703 26.4438 30.7747 26.3591 30.9254 26.2084C31.0761 26.0577 31.1607 25.8533 31.1607 25.6402V22.9723C32.683 22.1823 34.3047 21.6007 35.9821 21.2431V21.6223C35.9821 21.8355 36.0668 22.0399 36.2175 22.1906C36.3682 22.3413 36.5726 22.4259 36.7857 22.4259H43.2143C43.4274 22.4259 43.6318 22.3413 43.7825 22.1906C43.9332 22.0399 44.0179 21.8355 44.0179 21.6223V21.2455C45.9948 21.6671 47.8931 22.3974 49.6429 23.4095V26.4438C49.6429 26.6569 49.7275 26.8613 49.8782 27.012C50.0289 27.1627 50.2333 27.2473 50.4464 27.2473H54.363C55.3511 28.3457 56.2101 29.5535 56.9232 30.8473C56.9716 30.9439 57.0389 31.0298 57.1212 31.0997C57.2035 31.1697 57.299 31.2223 57.4021 31.2545C57.5052 31.2867 57.6138 31.2978 57.7213 31.2871C57.8287 31.2764 57.933 31.2442 58.0277 31.1923C58.1224 31.1404 58.2057 31.07 58.2726 30.9852C58.3395 30.9004 58.3886 30.803 58.417 30.6988C58.4454 30.5945 58.4525 30.4857 58.4379 30.3787C58.4233 30.2717 58.3872 30.1687 58.3319 30.0759C57.7847 29.0836 57.1574 28.1376 56.4563 27.2473H56.875C57.0881 27.2473 57.2925 27.1627 57.4432 27.012C57.5939 26.8613 57.6786 26.6569 57.6786 26.4438V23.2295C57.6786 23.0164 57.5939 22.812 57.4432 22.6613C57.2925 22.5106 57.0881 22.4259 56.875 22.4259H51.1142C48.9423 21.0578 46.5365 20.1022 44.0179 19.607V18.4081C44.0179 18.1949 43.9332 17.9906 43.7825 17.8399C43.6318 17.6892 43.4274 17.6045 43.2143 17.6045H36.7857C36.5726 17.6045 36.3682 17.6892 36.2175 17.8399C36.0668 17.9906 35.9821 18.1949 35.9821 18.4081V19.603C33.9918 19.9934 32.0696 20.6738 30.2768 21.6223H23.9286C23.7155 21.6223 23.5111 21.707 23.3604 21.8577C23.2097 22.0084 23.125 22.2128 23.125 22.4259V25.6402C23.125 25.8533 23.2097 26.0577 23.3604 26.2084C23.5111 26.3591 23.7155 26.4438 23.9286 26.4438H24.2114C22.9501 27.8992 21.8956 29.5216 21.0775 31.2652H18.3036C18.0905 31.2652 17.8861 31.3499 17.7354 31.5006C17.5847 31.6513 17.5 31.8557 17.5 32.0688V35.2831C17.5 35.4962 17.5847 35.7006 17.7354 35.8513C17.8861 36.002 18.0905 36.0866 18.3036 36.0866Z" fill="white"/>
<path d="M61.6964 44.1223H60.5015C60.761 42.7988 60.892 41.4533 60.8929 40.1045C60.8929 39.8353 60.8712 39.5693 60.8615 39.3009H62.2758C62.3145 39.2996 62.352 39.2875 62.3842 39.2661C62.4164 39.2447 62.442 39.2147 62.4582 39.1796C62.4865 39.1291 62.5006 39.0719 62.499 39.014C62.4974 38.9562 62.4803 38.8998 62.4494 38.8509L60.2637 35.3907C60.2473 35.3585 60.2222 35.3314 60.1914 35.3125C60.1606 35.2936 60.1251 35.2835 60.0889 35.2835C60.0527 35.2835 60.0172 35.2936 59.9864 35.3125C59.9555 35.3314 59.9305 35.3585 59.9141 35.3907L57.7284 38.8509C57.6976 38.8999 57.6806 38.9563 57.6792 39.0141C57.6778 39.072 57.692 39.1291 57.7204 39.1796C57.7365 39.2147 57.7622 39.2447 57.7944 39.2661C57.8266 39.2875 57.8641 39.2996 57.9028 39.3009H59.2536C59.2648 39.5693 59.2857 39.8353 59.2857 40.1045C59.2856 41.455 59.1434 42.8017 58.8614 44.1223H55.2679C55.0547 44.1223 54.8503 44.207 54.6996 44.3577C54.5489 44.5084 54.4643 44.7128 54.4643 44.9259V48.1402C54.4643 48.3533 54.5489 48.5577 54.6996 48.7084C54.8503 48.8591 55.0547 48.9438 55.2679 48.9438H57.1321C56.2101 50.7241 55.0173 52.3506 53.5964 53.7652H49.6429C49.4297 53.7652 49.2253 53.8499 49.0746 54.0006C48.9239 54.1513 48.8393 54.3557 48.8393 54.5688V57.2366C47.317 58.0266 45.6953 58.6083 44.0179 58.9659V58.5866C44.0179 58.3735 43.9332 58.1691 43.7825 58.0184C43.6318 57.8677 43.4274 57.7831 43.2143 57.7831H36.7857C36.5726 57.7831 36.3682 57.8677 36.2175 58.0184C36.0668 58.1691 35.9821 58.3735 35.9821 58.5866V58.9683C33.6962 58.4922 31.5172 57.6001 29.5536 56.3366V54.5688C29.5536 54.3557 29.4689 54.1513 29.3182 54.0006C29.1675 53.8499 28.9631 53.7652 28.75 53.7652H26.3835C25.9694 53.3506 25.5732 52.9156 25.195 52.4602C25.191 52.4554 25.1902 52.449 25.1854 52.4433C24.9788 52.2023 24.7836 51.9443 24.5875 51.6872C24.5272 51.6068 24.4654 51.5265 24.4067 51.4461C24.2661 51.254 24.1319 51.0572 23.9985 50.8587C23.8908 50.698 23.7847 50.5373 23.6811 50.3765C23.3139 49.7991 22.9773 49.2029 22.6726 48.5902C22.5774 48.4005 22.411 48.2562 22.2097 48.1887C22.0085 48.1213 21.7887 48.1362 21.5984 48.2303C21.4081 48.3243 21.2628 48.4898 21.1941 48.6906C21.1254 48.8914 21.1389 49.1113 21.2318 49.3022C21.5082 49.8647 21.8144 50.3998 22.135 50.927C22.1422 50.9415 22.1422 50.9575 22.1511 50.972C22.2033 51.0572 22.2612 51.1327 22.3118 51.2219C22.4296 51.4089 22.5507 51.5937 22.675 51.7764C22.8124 51.9813 22.953 52.1846 23.0969 52.3831C23.17 52.4835 23.2447 52.5815 23.3195 52.6804C23.6007 53.0554 23.8921 53.4178 24.1937 53.7676H22.3214C22.1083 53.7676 21.9039 53.8523 21.7532 54.003C21.6025 54.1537 21.5179 54.3581 21.5179 54.5712V57.7855C21.5179 57.9986 21.6025 58.203 21.7532 58.3537C21.9039 58.5044 22.1083 58.589 22.3214 58.589H28.75C28.8953 58.5878 29.0376 58.5468 29.1612 58.4705C29.2849 58.3941 29.3853 58.2853 29.4515 58.1559C31.4734 59.3395 33.6817 60.171 35.9821 60.6148V61.8009C35.9821 62.014 36.0668 62.2184 36.2175 62.3691C36.3682 62.5198 36.5726 62.6045 36.7857 62.6045H43.2143C43.4274 62.6045 43.6318 62.5198 43.7825 62.3691C43.9332 62.2184 44.0179 62.014 44.0179 61.8009V60.606C46.0096 60.216 47.9332 59.5356 49.7272 58.5866H56.0714C56.2845 58.5866 56.4889 58.502 56.6396 58.3513C56.7903 58.2006 56.875 57.9962 56.875 57.7831V54.5688C56.875 54.3557 56.7903 54.1513 56.6396 54.0006C56.4889 53.8499 56.2845 53.7652 56.0714 53.7652H55.7886C57.0499 52.3098 58.1045 50.6873 58.9225 48.9438H61.6964C61.9095 48.9438 62.1139 48.8591 62.2646 48.7084C62.4153 48.5577 62.5 48.3533 62.5 48.1402V44.9259C62.5 44.7128 62.4153 44.5084 62.2646 44.3577C62.1139 44.207 61.9095 44.1223 61.6964 44.1223Z" fill="white"/>
<path d="M30.3571 40.1045C30.3571 42.0117 30.9227 43.876 31.9823 45.4618C33.0418 47.0475 34.5478 48.2835 36.3098 49.0133C38.0718 49.7432 40.0107 49.9341 41.8812 49.5621C43.7518 49.19 45.47 48.2716 46.8185 46.923C48.1671 45.5744 49.0855 43.8563 49.4576 41.9857C49.8296 40.1152 49.6387 38.1763 48.9088 36.4143C48.179 34.6523 46.943 33.1463 45.3573 32.0868C43.7715 31.0272 41.9072 30.4616 40 30.4616C37.4434 30.4644 34.9923 31.4812 33.1845 33.289C31.3767 35.0968 30.3599 37.5479 30.3571 40.1045ZM43.6964 36.2473C43.8669 36.3752 43.9796 36.5656 44.0098 36.7766C44.0399 36.9875 43.985 37.2019 43.8571 37.3723L39.0357 43.8009C38.9668 43.8934 38.8789 43.9699 38.7778 44.0254C38.6767 44.0809 38.5649 44.1139 38.4499 44.1223H38.3929C38.1798 44.1223 37.9754 44.0376 37.8247 43.8869L36.2176 42.2798C36.0712 42.1282 35.9902 41.9252 35.992 41.7145C35.9939 41.5038 36.0784 41.3023 36.2274 41.1533C36.3764 41.0043 36.5779 40.9198 36.7886 40.918C36.9993 40.9161 37.2023 40.9971 37.3538 41.1435L38.3061 42.0957L42.5714 36.4081C42.6347 36.3236 42.7141 36.2525 42.8049 36.1988C42.8957 36.145 42.9962 36.1096 43.1006 36.0947C43.2051 36.0798 43.3115 36.0856 43.4137 36.1118C43.5159 36.138 43.612 36.184 43.6964 36.2473Z" fill="white"/>
</svg>
