<svg width="80" height="81" viewBox="0 0 80 81" fill="none" xmlns="http://www.w3.org/2000/svg">
<rect y="0.104492" width="80" height="80" rx="40" fill="#FF451C"/>
<path d="M50.4453 43.3205C50.7186 43.3205 50.9838 43.3285 51.2489 43.3607V26.445H27.9452C26.6193 26.445 25.5344 25.3601 25.5344 24.0342V21.6234C25.5344 21.1895 25.1648 20.8199 24.7308 20.8199C23.4049 20.8199 22.3201 19.735 22.3201 18.4091C21.3477 19.1404 20.7129 20.3136 20.7129 21.6234V56.1779C20.7129 56.4994 20.8977 56.7806 21.187 56.9092L24.8031 58.5164C24.9076 58.5646 25.0201 58.5887 25.1326 58.5887C25.2451 58.5887 25.3496 58.5646 25.454 58.5164L28.7487 57.0538L32.0354 58.5164C32.2443 58.6128 32.4773 58.6128 32.6863 58.5164L35.9729 57.0538L39.2596 58.5164C39.4685 58.6128 39.7096 58.6128 39.9185 58.5164L40.923 58.0664C40.3122 56.7324 39.9988 55.2699 39.9988 53.7672C39.9988 48.0055 44.6839 43.3205 50.4453 43.3205ZM39.999 37.2456C39.999 37.9367 39.5329 38.4992 38.9543 38.4992C38.3758 38.4992 37.9097 37.9367 37.9097 37.2456C37.9097 36.5465 38.3758 35.984 38.9543 35.984C39.5329 35.984 39.999 36.5465 39.999 37.2456ZM38.2391 30.568C38.6248 30.793 38.7534 31.2832 38.5364 31.6689L34.8238 38.0976C34.6711 38.3548 34.406 38.4994 34.1247 38.4994C33.9881 38.4994 33.8515 38.4673 33.7229 38.3949C33.3372 38.1699 33.2086 37.6798 33.4256 37.294L37.1382 30.8653C37.3632 30.4796 37.8534 30.351 38.2391 30.568ZM33.0077 30.4635C33.5863 30.4635 34.0523 31.0261 34.0523 31.7171C34.0523 32.4163 33.5862 32.9707 33.0077 32.9707C32.4291 32.9707 31.9631 32.4163 31.9631 31.7171C31.9631 31.026 32.4291 30.4635 33.0077 30.4635ZM29.5522 43.3209C29.1103 43.3209 28.7487 42.9593 28.7487 42.5173C28.7487 42.0754 29.1103 41.7138 29.5522 41.7138H42.4096C42.8516 41.7138 43.2132 42.0754 43.2132 42.5173C43.2132 42.9593 42.8516 43.3209 42.4096 43.3209H29.5522Z" fill="white"/>
<path d="M24.7349 19.2117C26.0608 19.2117 27.1457 20.2965 27.1457 21.6224V24.0332C27.1457 24.4752 27.5073 24.8368 27.9492 24.8368H53.664C54.106 24.8368 54.4676 24.4752 54.4676 24.0332V21.6224C54.4676 19.4045 52.6676 17.6045 50.4497 17.6045H24.7349C24.2929 17.6045 23.9313 17.9661 23.9313 18.4081C23.9313 18.8501 24.2929 19.2117 24.7349 19.2117Z" fill="white"/>
<path d="M56.716 47.5854C55.1168 45.8979 52.8266 44.9255 50.4477 44.9255C45.57 44.9255 41.608 48.8871 41.608 53.7652C41.608 56.1278 42.5241 58.3456 44.1956 60.017C45.867 61.6883 48.0849 62.6045 50.4473 62.6045C55.3251 62.6045 59.287 58.6428 59.287 53.7648C59.287 51.3781 58.3633 49.1766 56.716 47.5854ZM49.8455 52.9613H51.0509C52.4893 52.9613 53.6626 54.1345 53.6626 55.5729C53.6626 56.9471 52.5938 58.056 51.2518 58.1605V58.5864C51.2518 59.0283 50.8902 59.39 50.4482 59.39C50.0062 59.39 49.6446 59.0283 49.6446 58.5864V58.1846H48.0374C47.5955 58.1846 47.2339 57.823 47.2339 57.381C47.2339 56.939 47.5955 56.5774 48.0374 56.5774H51.0509C51.6054 56.5774 52.0554 56.1274 52.0554 55.5729C52.0554 55.0185 51.6054 54.5685 51.0509 54.5685H49.8455C48.4071 54.5685 47.2339 53.3952 47.2339 51.9568C47.2339 50.5827 48.3026 49.4737 49.6446 49.3693V48.9434C49.6446 48.5014 50.0062 48.1398 50.4482 48.1398C50.8902 48.1398 51.2518 48.5014 51.2518 48.9434V49.3452H52.859C53.3009 49.3452 53.6626 49.7068 53.6626 50.1488C53.6626 50.5907 53.3009 50.9524 52.859 50.9524H49.8455C49.291 50.9524 48.841 51.4024 48.841 51.9568C48.841 52.5113 49.291 52.9613 49.8455 52.9613Z" fill="white"/>
</svg>
