<svg width="80" height="81" viewBox="0 0 80 81" fill="none" xmlns="http://www.w3.org/2000/svg">
<rect y="0.104492" width="80" height="80" rx="40" fill="#FF451C"/>
<path d="M22.0833 31.7712H29.5833C30.7321 31.7712 31.6667 30.8366 31.6667 29.6878V22.1878C31.6667 21.0391 30.7321 20.1045 29.5833 20.1045H22.0833C20.9346 20.1045 20 21.0391 20 22.1878V29.6878C20 30.8366 20.9346 31.7712 22.0833 31.7712Z" fill="#FFFBEC"/>
<path d="M45.8333 22.1878C45.8333 21.0391 44.8988 20.1045 43.75 20.1045H36.25C35.1012 20.1045 34.1667 21.0391 34.1667 22.1878V29.6878C34.1667 30.8366 35.1012 31.7712 36.25 31.7712H43.75C44.8988 31.7712 45.8333 30.8366 45.8333 29.6878V22.1878Z" fill="#FFFBEC"/>
<path d="M22.0833 45.9378H29.5833C30.7321 45.9378 31.6667 45.0032 31.6667 43.8545V36.3545C31.6667 35.2057 30.7321 34.2712 29.5833 34.2712H22.0833C20.9346 34.2712 20 35.2057 20 36.3545V43.8545C20 45.0032 20.9346 45.9378 22.0833 45.9378Z" fill="#FFFBEC"/>
<path d="M60 36.3545C60 35.2057 59.0654 34.2712 57.9167 34.2712H50.4167C49.2679 34.2712 48.3333 35.2057 48.3333 36.3545V43.8545C48.3333 45.0032 49.2679 45.9378 50.4167 45.9378H57.9167C59.0654 45.9378 60 45.0032 60 43.8545V36.3545Z" fill="#FFFBEC"/>
<path d="M43.75 34.2712H36.25C35.1012 34.2712 34.1667 35.2057 34.1667 36.3545V43.8545C34.1667 45.0032 35.1012 45.9378 36.25 45.9378H43.75C44.8988 45.9378 45.8333 45.0032 45.8333 43.8545V36.3545C45.8333 35.2057 44.8988 34.2712 43.75 34.2712Z" fill="#FFFBEC"/>
<path d="M22.0833 60.1045H29.5833C30.7321 60.1045 31.6667 59.1699 31.6667 58.0212V50.5212C31.6667 49.3724 30.7321 48.4378 29.5833 48.4378H22.0833C20.9346 48.4378 20 49.3724 20 50.5212V58.0212C20 59.1699 20.9346 60.1045 22.0833 60.1045Z" fill="#FFFBEC"/>
<path d="M60 50.5212C60 49.3724 59.0654 48.4378 57.9167 48.4378H50.4167C49.2679 48.4378 48.3333 49.3724 48.3333 50.5212V58.0212C48.3333 59.1699 49.2679 60.1045 50.4167 60.1045H57.9167C59.0654 60.1045 60 59.1699 60 58.0212V50.5212Z" fill="#FFFBEC"/>
<path d="M45.8333 58.0212V50.5212C45.8333 49.3724 44.8988 48.4378 43.75 48.4378H36.25C35.1012 48.4378 34.1667 49.3724 34.1667 50.5212V58.0212C34.1667 59.1699 35.1012 60.1045 36.25 60.1045H43.75C44.8988 60.1045 45.8333 59.1699 45.8333 58.0212Z" fill="#FFFBEC"/>
<path d="M48.3333 25.9378C48.3333 29.1545 50.95 31.7712 54.1667 31.7712C57.3833 31.7712 60 29.1545 60 25.9378C60 22.7212 57.3833 20.1045 54.1667 20.1045C50.95 20.1045 48.3333 22.7212 48.3333 25.9378Z" fill="#FFFBEC"/>
</svg>
