<svg width="80" height="81" viewBox="0 0 80 81" fill="none" xmlns="http://www.w3.org/2000/svg">
<rect y="0.104492" width="80" height="80" rx="40" fill="#FF451C"/>
<path d="M25.8396 32.003C25.5712 32.003 25.3524 31.7841 25.3524 31.5158C25.3524 31.2474 25.5712 31.0285 25.8396 31.0285H32.8686C33.137 31.0285 33.3559 31.2474 33.3559 31.5158C33.3559 31.7841 33.137 32.003 32.8686 32.003H25.8396ZM24.2161 27.89C23.9477 27.89 23.7289 27.6711 23.7289 27.4027C23.7289 27.1344 23.9477 26.9155 24.2161 26.9155H34.4902C34.7586 26.9155 34.9774 27.1344 34.9774 27.4027C34.9774 27.6711 34.7586 27.89 34.4902 27.89H24.2161ZM25.8396 23.7769C25.5712 23.7769 25.3524 23.5581 25.3524 23.2897C25.3524 23.0213 25.5712 22.8024 25.8396 22.8024H32.8686C33.137 22.8024 33.3559 23.0213 33.3559 23.2897C33.3559 23.5581 33.137 23.7769 32.8686 23.7769H25.8396ZM45.0878 48.7483H47.2576C47.8761 48.7483 48.4395 49.0015 48.8468 49.4088C49.1456 49.7057 49.3626 50.0882 49.4578 50.5146H52.9808C53.4985 50.5146 53.9705 50.3014 54.315 49.9569C54.6595 49.6162 54.8727 49.1423 54.8727 48.6246V47.5816H53.7592C53.2796 47.5816 52.8437 47.3856 52.5297 47.0715C52.2138 46.7556 52.0196 46.3197 52.0196 45.8401V39.8962C52.0196 39.4165 52.2157 38.9807 52.5297 38.6667C52.8457 38.3507 53.2815 38.1566 53.7592 38.1566H54.8727V36.946C54.8727 34.5555 53.8925 32.38 52.3165 30.8023C50.7406 29.2264 48.5651 28.2462 46.1729 28.2462C43.7804 28.2462 41.6049 29.2264 40.0292 30.8023C38.4532 32.3783 37.473 34.5538 37.473 36.946V38.1566H38.5865C39.0642 38.1566 39.5001 38.3526 39.816 38.6686C40.1319 38.9826 40.328 39.4185 40.328 39.8981V45.842C40.328 46.3216 40.1319 46.7575 39.7989 47.0887C39.4696 47.4008 39.0471 47.5835 38.5865 47.5835H37.3188C36.3253 47.5835 35.4194 47.1762 34.7627 46.5196C34.1022 45.8591 33.6969 44.9551 33.6969 43.9596V41.7765C33.6969 40.7792 34.1042 39.8732 34.7608 39.2166C35.2309 38.7464 35.8305 38.4038 36.4985 38.2478V36.944C36.4985 34.2832 37.5872 31.864 39.3401 30.1113C41.0931 28.3584 43.5122 27.2697 46.1728 27.2697C48.8336 27.2697 51.2528 28.3584 53.0055 30.1113C54.7584 31.8643 55.8471 34.2853 55.8471 36.944V38.2478C56.5151 38.4038 57.1147 38.7464 57.5848 39.2166C58.2415 39.8732 58.6488 40.7792 58.6488 41.7765V43.9596C58.6488 44.9532 58.2414 45.8591 57.5867 46.5158C57.1128 46.9897 56.5151 47.3323 55.8471 47.4884V48.6265C55.8471 49.4107 55.5235 50.1282 55.0039 50.6478C54.4862 51.1674 53.7686 51.491 52.9826 51.491H49.4596C49.3644 51.9173 49.1493 52.2999 48.8524 52.5968C48.4451 53.0041 47.8798 53.2592 47.2594 53.2592H45.0896C44.4691 53.2592 43.9038 53.006 43.4813 52.5816C43.0759 52.159 42.8361 51.609 42.8361 51.0056C42.8361 50.3852 43.0892 49.8199 43.4966 49.4126C43.9039 49.0053 44.4691 48.7521 45.0896 48.7521L45.0878 48.7483ZM47.2576 49.7228H45.0878C44.7376 49.7228 44.4159 49.8675 44.1856 50.0978C43.9534 50.33 43.8107 50.6497 43.8107 50.9999C43.8107 51.3406 43.9458 51.6528 44.1742 51.8926C44.4178 52.1362 44.7375 52.279 45.0897 52.279H47.2594C47.6096 52.279 47.9313 52.1343 48.1616 51.9021C48.39 51.6737 48.5328 51.3596 48.5366 50.9847C48.5328 50.6383 48.3881 50.3242 48.1616 50.0959C47.9313 49.8637 47.6097 49.7209 47.2594 49.7209L47.2576 49.7228ZM55.0267 39.1271H53.7591C53.5497 39.1271 53.3575 39.2147 53.2185 39.3536C53.0796 39.4926 52.992 39.6848 52.992 39.8942V45.8381C52.992 46.0494 53.0796 46.2416 53.2185 46.3806C53.3575 46.5195 53.5497 46.6071 53.7591 46.6071H55.0267C55.7557 46.6071 56.418 46.3082 56.8957 45.8305C57.3754 45.3508 57.6742 44.6885 57.6742 43.9576V41.7745C57.6742 41.0474 57.3754 40.3851 56.8957 39.9055C56.4161 39.4259 55.7537 39.1271 55.0267 39.1271ZM38.588 39.1271H37.3204C36.5933 39.1271 35.929 39.426 35.4513 39.9056C34.9717 40.3853 34.6729 41.0476 34.6729 41.7747V43.9578C34.6729 44.6867 34.9717 45.3491 35.4494 45.8268C35.9291 46.3064 36.5914 46.6053 37.3223 46.6053H38.5899C38.7898 46.6053 38.9725 46.5272 39.119 46.3921C39.2694 46.2417 39.355 46.0495 39.355 45.8382V39.8943C39.355 39.685 39.2675 39.4927 39.1285 39.3538C38.9915 39.2148 38.7993 39.1271 38.588 39.1271ZM55.0613 17.6045H24.9417C23.1792 17.6045 21.5747 18.324 20.4156 19.485C19.2527 20.646 18.5332 22.2486 18.5332 24.013V49.6163C18.5332 51.3654 19.245 52.9566 20.4022 54.129C21.5766 55.3034 23.181 56.0247 24.9397 56.0247H29.5077C29.776 56.0247 29.9949 56.2436 29.9949 56.512V62.6045L42.4138 56.1046C42.4919 56.0532 42.5832 56.0247 42.6803 56.0247H55.0593C56.8199 56.0247 58.4224 55.3033 59.5835 54.1404C60.7445 52.9794 61.4678 51.3749 61.4678 49.6162V24.0129C61.4678 22.2504 60.7464 20.6479 59.5873 19.4887C58.4263 18.3277 56.8218 17.6063 55.0593 17.6063L55.0613 17.6045Z" fill="#FFFBEC"/>
</svg>
