<svg width="44" height="42" viewBox="0 0 44 42" fill="none" xmlns="http://www.w3.org/2000/svg">
<path d="M30.4221 0.900908C30.7612 0.176301 31.7716 0.123366 32.1844 0.80858L33.9525 3.74276C34.0548 3.9127 34.2055 4.04833 34.3852 4.13242L37.4881 5.58413C38.2127 5.92315 38.2657 6.93348 37.5805 7.34641L34.6463 9.1145C34.4764 9.21693 34.3407 9.36754 34.2567 9.54728L32.805 12.6502C32.4661 13.3748 31.4556 13.4278 31.0427 12.7426L29.2745 9.80838C29.1722 9.63841 29.0215 9.50281 28.8418 9.4187L25.7389 7.967C25.0143 7.62796 24.9613 6.61763 25.6466 6.20472L28.5807 4.4366C28.7506 4.33421 28.8863 4.18357 28.9703 4.00388L30.4221 0.900908ZM12.7738 8.0844C13.1128 7.35982 14.1232 7.30686 14.5362 7.99204L19.2607 15.8326C19.363 16.0025 19.5137 16.1382 19.6934 16.2222L27.9849 20.1014C28.7095 20.4404 28.7624 21.4508 28.0772 21.8637L20.2366 26.5882C20.0668 26.6905 19.9311 26.8412 19.847 27.0209L15.968 35.3123C15.6289 36.037 14.6185 36.0899 14.2056 35.4047L9.48107 27.5641C9.37864 27.3943 9.22803 27.2586 9.04829 27.1745L0.756907 23.2955C0.0322855 22.9565 -0.020668 21.9461 0.66454 21.5332L8.50503 16.8086C8.675 16.7062 8.8106 16.5555 8.89472 16.3759L12.7738 8.0844ZM38.4014 29.261C38.2218 29.177 38.0711 29.0413 37.9687 28.8713L35.4377 24.671C35.0249 23.9858 34.0145 24.0387 33.6754 24.7634L31.5973 29.2053C31.5133 29.3849 31.3776 29.5357 31.2077 29.638L27.0073 32.1691C26.3221 32.582 26.3751 33.5924 27.0996 33.9314L31.5416 36.0094C31.7212 36.0935 31.8719 36.2292 31.9743 36.399L34.5054 40.5994C34.9183 41.2846 35.9287 41.2316 36.2677 40.5071L38.3457 36.0652C38.4297 35.8855 38.5654 35.7348 38.7354 35.6324L42.9357 33.1014C43.6208 32.6886 43.568 31.6782 42.8434 31.3392L38.4014 29.261Z" fill="#FFFBEC"/>
</svg>
