<svg width="1301" height="201" viewBox="0 0 1301 201" fill="none" xmlns="http://www.w3.org/2000/svg">
<path d="M152.199 99.339C156.866 103.526 154.392 108.346 151.823 112.648C137.704 136.087 123.706 159.467 109.587 182.906C160.157 181.265 207.7 173.27 255.537 166.634C569.526 122.87 925.143 135.163 1239.78 200.667C1214.63 170.42 1180.76 141.501 1139.31 115.052C1192.9 104.453 1246.61 93.7944 1300.2 83.1949C1256.31 63.3605 1201.57 49.9456 1146 39.311C998.427 11.045 840.314 0.616818 685.393 0.650776C530.473 0.684737 378.04 11.0203 227.19 23.0306C151.053 29.0669 63.667 34.841 0.480135 55.6335C38.2845 73.7778 125.548 75.8145 152.199 99.339Z" fill="#F2C438"/>
</svg>
