<svg width="420" height="404" viewBox="0 0 420 404" fill="none" xmlns="http://www.w3.org/2000/svg">
<g style="mix-blend-mode:plus-darker" filter="url(#filter0_d_294_1738)">
<path d="M298.998 14.7095C302.351 8.43002 311.362 8.4302 314.715 14.7098L329.072 41.6001C329.903 43.1576 331.181 44.4326 332.739 45.2633L359.66 59.6049C365.947 62.9541 365.947 71.9546 359.66 75.304L332.739 89.6454C331.181 90.4763 329.903 91.7512 329.072 93.3089L314.715 120.199C311.362 126.479 302.351 126.479 298.998 120.199L284.639 93.3089C283.808 91.7512 282.531 90.4763 280.972 89.6454L254.051 75.304C247.764 71.9546 247.764 62.9541 254.051 59.6049L280.972 45.2632C282.531 44.4326 283.808 43.1576 284.639 41.6003L298.998 14.7095ZM138.684 70.3106C142.037 64.0312 151.049 64.0312 154.402 70.3106L192.767 142.166C193.598 143.722 194.876 144.998 196.434 145.828L268.371 184.151C274.658 187.5 274.658 196.502 268.371 199.85L196.434 238.172C194.876 239.002 193.598 240.278 192.767 241.835L154.402 313.69C151.049 319.969 142.037 319.969 138.684 313.69L100.319 241.835C99.4868 240.278 98.2105 239.002 96.651 238.172L24.7151 199.85C18.4283 196.502 18.4283 187.5 24.7151 184.151L96.651 145.828C98.2105 144.998 99.4868 143.722 100.319 142.166L138.684 70.3106ZM356.747 270.374C355.188 269.544 353.911 268.269 353.08 266.711L332.527 228.217C329.175 221.937 320.164 221.937 316.81 228.217L296.256 266.712C295.425 268.269 294.148 269.544 292.59 270.374L254.051 290.905C247.764 294.254 247.765 303.255 254.051 306.604L292.59 327.133C294.148 327.963 295.425 329.239 296.256 330.796L316.81 369.29C320.164 375.57 329.175 375.569 332.527 369.29L353.08 330.797C353.911 329.239 355.188 327.963 356.748 327.133L395.285 306.604C401.571 303.255 401.572 294.254 395.285 290.905L356.747 270.374Z" fill="#FFA910" fill-opacity="0.02" shape-rendering="crispEdges"/>
</g>
<defs>
<filter id="filter0_d_294_1738" x="0" y="0" width="420" height="404" filterUnits="userSpaceOnUse" color-interpolation-filters="sRGB">
<feFlood flood-opacity="0" result="BackgroundImageFix"/>
<feColorMatrix in="SourceAlpha" type="matrix" values="0 0 0 0 0 0 0 0 0 0 0 0 0 0 0 0 0 0 127 0" result="hardAlpha"/>
<feOffset dy="10"/>
<feGaussianBlur stdDeviation="10"/>
<feComposite in2="hardAlpha" operator="out"/>
<feColorMatrix type="matrix" values="0 0 0 0 0.0745098 0 0 0 0 0.0745098 0 0 0 0 0.0588235 0 0 0 0.25 0"/>
<feBlend mode="normal" in2="BackgroundImageFix" result="effect1_dropShadow_294_1738"/>
<feBlend mode="normal" in="SourceGraphic" in2="effect1_dropShadow_294_1738" result="shape"/>
</filter>
</defs>
</svg>
