<svg width="48" height="41" viewBox="0 0 48 41" fill="none" xmlns="http://www.w3.org/2000/svg">
<path fill-rule="evenodd" clip-rule="evenodd" d="M17.5222 33.8678C19.1697 34.4122 19.7722 34.6954 19.9173 36.1542C19.1552 40.952 21.964 41.0681 23.9672 39.8342C26.0939 38.3537 25.9777 35.6105 31.2618 37.2874C34.2883 38.6519 40.3199 36.5545 34.2664 29.8188L36.836 28.5779C38.7957 27.6486 37.424 25.827 42.1925 27.2279C43.3684 27.7068 49.2037 27.6632 45.9811 22.1325C44.82 20.5574 44.6603 21.3994 46.3298 17.8647C46.9322 16.696 47.2076 15.0485 45.6545 14.6423C44.5249 11.6887 42.6512 11.3595 44.8271 9.17652C45.9664 7.58703 46.6921 4.75623 42.4316 5.97566C40.3486 6.39669 39.0059 5.96856 37.8811 4.49521C36.8178 3.23202 35.9611 2.43751 33.537 2.74252C32.2199 3.08005 32.0458 3.5809 30.5653 2.12198C28.5148 -0.0882874 27.9669 2.14374 26.9943 2.77516C26.0834 3.02931 25.8909 2.33592 24.7514 2.62283C23.9239 2.86977 22.6176 3.05095 21.7683 1.86061C18.2408 -1.49292 17.1955 2.27442 16.9342 3.16697L16.6729 4.93067C14.336 5.47493 14.8294 6.58556 13.9076 7.41306C10.402 5.27896 9.7487 9.63432 9.98807 10.5488L8.0937 11.8552C3.93489 11.8624 4.39222 14.548 4.30506 16.4497C-1.11682 18.7069 1.14785 22.2274 3.91313 22.242C4.88574 23.5775 4.76973 24.5647 4.41387 25.4646C1.03159 28.5057 2.76631 30.3495 4.58819 30.6687C6.53685 30.8357 6.66777 31.7101 6.67853 32.9333C6.60592 35.6842 8.15567 36.2468 10.4346 34.6534L12.3835 32.7155L17.5222 33.8678Z" fill="#191919"/>
<path d="M17.5222 33.8678C19.1697 34.4122 19.7722 34.6954 19.9173 36.1542C19.1552 40.952 21.964 41.0681 23.9672 39.8342C26.0939 38.3537 25.9777 35.6105 31.2618 37.2874C34.2883 38.6519 40.3199 36.5545 34.2664 29.8188L36.836 28.5779C38.7957 27.6486 37.424 25.827 42.1925 27.2279C43.3684 27.7068 49.2037 27.6632 45.9811 22.1325C44.82 20.5574 44.6603 21.3994 46.3298 17.8647C46.9322 16.696 47.2076 15.0485 45.6545 14.6423C44.5249 11.6887 42.6512 11.3595 44.8271 9.17652C45.9664 7.58703 46.6921 4.75623 42.4316 5.97566C40.3486 6.39669 39.0059 5.96856 37.8811 4.49521C36.8178 3.23202 35.9611 2.43751 33.537 2.74252C32.2199 3.08005 32.0458 3.5809 30.5653 2.12198C28.5148 -0.0882862 27.9669 2.14374 26.9943 2.77516C26.0834 3.02931 25.8909 2.33592 24.7514 2.62283C23.9239 2.86977 22.6176 3.05095 21.7683 1.86061C18.2408 -1.49292 17.1955 2.27442 16.9342 3.16697L16.6729 4.93067C14.336 5.47493 14.8294 6.58556 13.9076 7.41306C10.402 5.27896 9.7487 9.63432 9.98807 10.5488L8.0937 11.8552C3.93489 11.8624 4.39222 14.548 4.30506 16.4497C-1.11682 18.7069 1.14785 22.2274 3.91313 22.242C4.88574 23.5775 4.76973 24.5648 4.41387 25.4646C1.03159 28.5057 2.76631 30.3495 4.58819 30.6687C6.53685 30.8357 6.66777 31.7101 6.67853 32.9333C6.60592 35.6842 8.15567 36.2468 10.4346 34.6534L12.3835 32.7155L17.5222 33.8678Z" stroke="#A2D9F7" stroke-width="0.5" stroke-miterlimit="22.926"/>
<path fill-rule="evenodd" clip-rule="evenodd" d="M13.0827 16.6555C12.5608 17.2254 11.7514 17.1916 11.7849 16.2917L11.7279 14.8824C11.7069 14.4528 11.5013 14.188 10.9616 14.0244L9.37934 13.712C8.67365 13.5731 8.41441 12.9907 9.15996 12.5809C9.86056 12.2261 10.5614 11.8714 11.2621 11.5166C11.681 11.308 11.965 11.1072 11.9624 10.5945C11.9786 10.0461 12.002 9.46196 11.9683 8.92102C11.9639 8.53169 12.0801 8.06347 12.6852 8.48296L14.5239 10.2611C14.9575 10.577 15.4254 10.622 15.9495 10.5459L17.3566 9.93361C18.0816 9.66644 18.5398 10.2054 18.215 10.7197L17.1891 12.0494C16.5542 12.7432 16.8503 13.105 17.1394 13.5024L18.2139 14.7789C18.4326 15.3191 18.0659 15.563 17.5196 15.4661L16.315 15.2585C15.3476 15.0094 14.9505 14.8713 14.2502 15.3187L13.0827 16.6555Z" fill="#FFED00"/>
<path d="M13.0827 16.6555C12.5608 17.2254 11.7514 17.1916 11.7849 16.2917L11.7279 14.8824C11.7069 14.4528 11.5013 14.188 10.9616 14.0244L9.37934 13.712C8.67365 13.5731 8.41441 12.9907 9.15996 12.5809C9.86056 12.2261 10.5614 11.8714 11.2621 11.5166C11.681 11.308 11.965 11.1072 11.9624 10.5945C11.9786 10.0461 12.002 9.46196 11.9683 8.92102C11.9639 8.53169 12.0801 8.06347 12.6852 8.48296L14.5239 10.2611C14.9575 10.577 15.4254 10.622 15.9495 10.5459L17.3566 9.93361C18.0816 9.66644 18.5398 10.2054 18.215 10.7197L17.1891 12.0494C16.5542 12.7432 16.8503 13.105 17.1394 13.5024L18.2139 14.7789C18.4326 15.3191 18.0659 15.563 17.5196 15.4661L16.315 15.2585C15.3476 15.0094 14.9505 14.8713 14.2502 15.3187L13.0827 16.6555Z" stroke="white" stroke-miterlimit="22.926"/>
<path fill-rule="evenodd" clip-rule="evenodd" d="M18.9906 4.9942C18.9309 4.26321 18.8714 3.53209 18.8117 2.80097C18.7687 2.42441 19.028 1.94674 19.6061 2.37581L21.5531 4.17734C22.0622 4.57093 22.5267 4.74064 23.5898 4.49631C24.235 4.36752 24.8801 4.23884 25.5254 4.11005C26.057 4.08049 26.0179 4.45893 25.7941 4.75921C25.3987 5.35976 25.0034 5.9602 24.608 6.56087C24.2219 7.09235 24.2331 7.45046 24.5743 7.87018L25.7269 9.41473C26.0477 9.91275 25.7809 10.1645 25.2793 10.1197L22.9519 9.63849C22.2245 9.42774 21.8889 9.49681 21.6092 9.72814L19.9643 11.3395C19.2369 11.9915 18.7745 11.633 18.7838 11.138L18.8565 9.6049C18.8228 9.07342 18.6328 8.58676 17.9836 8.363L16.003 8.06106C15.2646 7.92305 15.1528 7.1807 16.0367 6.84127C16.8498 6.46448 17.6629 6.12695 18.4761 5.75028C18.7817 5.60635 19.0207 5.43463 18.9906 4.9942Z" fill="#FFA910"/>
<path d="M18.9906 4.9942C18.9309 4.26321 18.8714 3.53209 18.8117 2.80097C18.7687 2.42441 19.028 1.94674 19.6061 2.37581L21.5531 4.17734C22.0622 4.57093 22.5267 4.74064 23.5897 4.49631C24.235 4.36752 24.8801 4.23884 25.5254 4.11005C26.057 4.08049 26.0179 4.45893 25.7941 4.75921C25.3987 5.35976 25.0034 5.9602 24.608 6.56087C24.2219 7.09235 24.2331 7.45046 24.5743 7.87018L25.7269 9.41473C26.0477 9.91275 25.7809 10.1645 25.2793 10.1197L22.9519 9.63849C22.2245 9.42774 21.8889 9.49681 21.6092 9.72814L19.9643 11.3395C19.2369 11.9915 18.7745 11.633 18.7838 11.138L18.8565 9.6049C18.8228 9.07342 18.6328 8.58676 17.9836 8.363L16.003 8.06106C15.2646 7.92305 15.1528 7.1807 16.0367 6.84127C16.8498 6.46448 17.6629 6.12695 18.4761 5.75028C18.7817 5.60635 19.0207 5.43463 18.9906 4.9942Z" stroke="white" stroke-miterlimit="22.926"/>
<path fill-rule="evenodd" clip-rule="evenodd" d="M29.3125 9.63152C28.8937 10.0889 28.244 10.0618 28.2709 9.33964L28.2251 8.20844C28.2083 7.86369 28.0432 7.65105 27.6101 7.51989L26.3401 7.26905C25.7738 7.15765 25.5657 6.69014 26.1641 6.36113C26.7265 6.07658 27.2889 5.7918 27.8513 5.50713C28.1876 5.33967 28.4153 5.17847 28.4133 4.76691C28.4263 4.32684 28.445 3.85804 28.4181 3.42389C28.4146 3.11155 28.5078 2.73558 28.9935 3.07228L30.4692 4.49951C30.8172 4.75284 31.1928 4.78914 31.6134 4.728L32.7426 4.23649C33.3246 4.02196 33.6923 4.45469 33.4316 4.86743L32.6083 5.93454C32.0988 6.49158 32.3364 6.78192 32.5684 7.10076L33.4308 8.12541C33.6063 8.55874 33.3121 8.7547 32.8736 8.677L31.9067 8.51037C31.1303 8.31038 30.8116 8.19957 30.2495 8.55862L29.3125 9.63152Z" fill="#FFED00"/>
<path d="M29.3125 9.63152C28.8937 10.0889 28.244 10.0618 28.2709 9.33964L28.2251 8.20844C28.2083 7.86369 28.0432 7.65105 27.6101 7.51989L26.3401 7.26905C25.7738 7.15765 25.5657 6.69014 26.1641 6.36113C26.7265 6.07658 27.2889 5.7918 27.8513 5.50713C28.1876 5.33967 28.4153 5.17847 28.4133 4.76691C28.4263 4.32684 28.445 3.85804 28.4181 3.42389C28.4146 3.11155 28.5078 2.73558 28.9935 3.07228L30.4692 4.49951C30.8172 4.75284 31.1928 4.78914 31.6134 4.728L32.7426 4.23649C33.3246 4.02195 33.6923 4.45469 33.4316 4.86743L32.6083 5.93454C32.0988 6.49158 32.3364 6.78192 32.5684 7.10076L33.4308 8.12541C33.6063 8.55874 33.3121 8.7547 32.8736 8.677L31.9067 8.51037C31.1303 8.31038 30.8116 8.19957 30.2495 8.55862L29.3125 9.63152Z" stroke="white" stroke-miterlimit="22.926"/>
<path d="M21.8966 9.2372C13.6793 12.3676 8.60474 19.0713 10.5625 24.2109C12.5202 29.3506 20.7687 30.9794 28.9861 27.8493C37.2035 24.719 42.278 18.0151 40.3202 12.8754C39.0368 9.5059 35.0498 7.64546 30.1403 7.64546C27.561 7.64546 24.7269 8.15909 21.8966 9.2372Z" fill="url(#paint0_linear_137_482)"/>
<path d="M21.8967 9.23728C30.1141 6.10703 38.3625 7.73578 40.3203 12.8754C42.2781 18.0152 37.2035 24.7189 28.9861 27.8493C20.7688 30.9793 12.5202 29.3507 10.5625 24.211C8.60482 19.0714 13.6792 12.3675 21.8967 9.23728Z" stroke="#393185" stroke-miterlimit="22.926"/>
<path fill-rule="evenodd" clip-rule="evenodd" d="M34.8854 8.4308C34.8047 7.4421 34.7239 6.45329 34.6433 5.46459C34.5851 4.95498 34.9359 4.30913 35.7177 4.88911L38.3511 7.32609C39.04 7.85816 39.6679 8.08783 41.1059 7.7574C41.9785 7.58331 42.8513 7.40923 43.7242 7.23514C44.443 7.19493 44.3901 7.7069 44.0873 8.11302C43.5527 8.92527 43.0178 9.73752 42.483 10.5498C41.961 11.2686 41.9761 11.7531 42.4376 12.3207L43.9964 14.4098C44.4303 15.0832 44.0695 15.424 43.391 15.3634L40.243 14.7126C39.2594 14.4276 38.8054 14.5209 38.4269 14.8337L36.2021 17.0131C35.2186 17.8951 34.5929 17.4101 34.6054 16.7407L34.7038 14.6671C34.6584 13.948 34.4013 13.29 33.5233 12.9872L30.8446 12.5788C29.8458 12.3923 29.6945 11.3882 30.8899 10.9292C31.9898 10.4197 33.0896 9.96293 34.1893 9.45345C34.6028 9.2589 34.9259 9.02662 34.8854 8.4308Z" fill="#FFA910"/>
<path d="M34.8854 8.4308C34.8047 7.4421 34.7239 6.45329 34.6433 5.46459C34.5851 4.95498 34.9359 4.30913 35.7177 4.88911L38.3511 7.32609C39.04 7.85816 39.6679 8.08783 41.1059 7.7574C41.9785 7.58331 42.8513 7.40923 43.7242 7.23514C44.443 7.19493 44.3901 7.7069 44.0873 8.11302C43.5527 8.92527 43.0178 9.73752 42.483 10.5498C41.961 11.2686 41.9761 11.7531 42.4376 12.3207L43.9964 14.4098C44.4303 15.0832 44.0695 15.424 43.391 15.3634L40.243 14.7126C39.2594 14.4276 38.8054 14.5209 38.4269 14.8337L36.2021 17.0131C35.2186 17.8951 34.5929 17.4101 34.6054 16.7407L34.7038 14.6671C34.6584 13.948 34.4013 13.29 33.5233 12.9872L30.8446 12.5788C29.8458 12.3923 29.6945 11.3882 30.8899 10.9292C31.9898 10.4197 33.0896 9.96293 34.1893 9.45345C34.6028 9.2589 34.9259 9.02663 34.8854 8.4308Z" stroke="white" stroke-miterlimit="22.926"/>
<path fill-rule="evenodd" clip-rule="evenodd" d="M10.3975 33.4266C9.59528 34.2939 8.35787 34.2359 8.41594 32.8604L8.33978 30.7052C8.3108 30.0484 7.99834 29.6419 7.17474 29.3878L4.75787 28.8978C3.67988 28.6799 3.28807 27.7874 4.4311 27.1667C5.50507 26.6296 6.57916 26.0929 7.65324 25.5556C8.29566 25.2399 8.73112 24.9351 8.73112 24.1512C8.76009 23.3128 8.80018 22.4201 8.753 21.5926C8.74933 20.9975 8.93051 20.2825 9.85251 20.9287L12.6501 23.661C13.3106 24.1473 14.0255 24.22 14.8277 24.1076L16.9834 23.1822C18.0938 22.7792 18.7905 23.6068 18.2898 24.3906L16.7112 26.4159C15.735 27.4719 16.1852 28.027 16.6242 28.6368L18.257 30.597C18.5874 31.4243 18.0248 31.7947 17.1901 31.6422L15.3501 31.3155C13.8729 30.9272 13.2667 30.7132 12.1927 31.3916L10.3975 33.4266Z" fill="#FFED00"/>
<path d="M10.3975 33.4266C9.59528 34.2939 8.35787 34.2359 8.41594 32.8604L8.33978 30.7052C8.3108 30.0484 7.99834 29.6419 7.17474 29.3878L4.75787 28.8978C3.67988 28.6799 3.28807 27.7874 4.4311 27.1667C5.50507 26.6296 6.57916 26.0929 7.65324 25.5556C8.29566 25.2399 8.73112 24.9351 8.73112 24.1512C8.76009 23.3128 8.80018 22.4201 8.753 21.5926C8.74933 20.9975 8.93051 20.2825 9.85251 20.9287L12.6501 23.661C13.3106 24.1473 14.0255 24.22 14.8277 24.1076L16.9834 23.1822C18.0938 22.7792 18.7905 23.6068 18.2898 24.3906L16.7112 26.4159C15.735 27.4719 16.1852 28.027 16.6242 28.6368L18.257 30.597C18.5874 31.4243 18.0248 31.7947 17.1901 31.6422L15.3501 31.3155C13.8729 30.9272 13.2667 30.7132 12.1927 31.3916L10.3975 33.4266Z" stroke="white" stroke-miterlimit="22.926"/>
<path fill-rule="evenodd" clip-rule="evenodd" d="M37.0923 27.1708C36.2518 28.0888 34.9476 28.0343 35.0016 26.5848L34.91 24.3146C34.876 23.6226 34.5446 23.196 33.6755 22.9327L31.1266 22.4292C29.9898 22.2056 29.572 21.267 30.7732 20.6071C31.9018 20.0355 33.0307 19.4642 34.1593 18.8927C34.8345 18.5566 35.2918 18.2329 35.2877 17.4072C35.3137 16.5237 35.3513 15.5828 35.2972 14.7114C35.29 14.0844 35.4774 13.3301 36.452 14.006L39.4139 16.8701C40.1123 17.3788 40.8661 17.4516 41.7104 17.3289L43.977 16.3425C45.1449 15.9121 45.8832 16.7805 45.3597 17.6088L43.7072 19.7508C42.6843 20.8688 43.1614 21.4511 43.6273 22.0914L45.3581 24.1478C45.7105 25.0178 45.1198 25.411 44.2394 25.2549L42.2991 24.9203C40.7408 24.5192 40.1011 24.2967 38.9729 25.0174L37.0923 27.1708Z" fill="#FFED00"/>
<path d="M37.0923 27.1708C36.2518 28.0888 34.9476 28.0343 35.0016 26.5848L34.91 24.3146C34.876 23.6226 34.5446 23.196 33.6755 22.9327L31.1266 22.4292C29.9898 22.2056 29.572 21.267 30.7732 20.6071C31.9018 20.0355 33.0307 19.4642 34.1593 18.8927C34.8345 18.5566 35.2918 18.2329 35.2877 17.4072C35.3137 16.5237 35.3513 15.5828 35.2972 14.7114C35.29 14.0844 35.4774 13.3301 36.452 14.006L39.4139 16.8701C40.1123 17.3788 40.8661 17.4516 41.7104 17.3289L43.977 16.3425C45.1449 15.9121 45.8832 16.7805 45.3597 17.6088L43.7072 19.7508C42.6843 20.8688 43.1614 21.4511 43.6273 22.0914L45.3581 24.1478C45.7105 25.0178 45.1198 25.411 44.2394 25.2549L42.2991 24.9203C40.7408 24.5192 40.1011 24.2967 38.9729 25.0174L37.0923 27.1708Z" stroke="white" stroke-miterlimit="22.926"/>
<path fill-rule="evenodd" clip-rule="evenodd" d="M6.62358 16.84C6.56385 16.109 6.50413 15.3776 6.4444 14.6466C6.40147 14.2699 6.66095 13.7924 7.23903 14.2215L9.18592 16.023C9.69517 16.4167 10.1595 16.5864 11.2224 16.342C11.8678 16.2132 12.5131 16.0846 13.1583 15.9558C13.6898 15.9262 13.6508 16.3047 13.4268 16.605C13.0314 17.2054 12.6361 17.806 12.2407 18.4064C11.8548 18.9381 11.8659 19.2961 12.2072 19.7157L13.3597 21.2604C13.6805 21.7583 13.4139 22.0102 12.9121 21.9655L10.5846 21.4842C9.85731 21.2734 9.52167 21.3426 9.24186 21.5737L7.59702 23.1852C6.8698 23.8373 6.40727 23.4786 6.41649 22.9838L6.48923 21.4507C6.45552 20.9191 6.26547 20.4324 5.61643 20.2087L3.63595 19.9066C2.8975 19.7687 2.78551 19.0265 3.66942 18.687C4.48262 18.3102 5.29569 17.9727 6.10877 17.596C6.4146 17.452 6.65338 17.2803 6.62358 16.84Z" fill="#FFA910"/>
<path d="M6.62358 16.84C6.56385 16.109 6.50413 15.3776 6.4444 14.6466C6.40147 14.2699 6.66095 13.7924 7.23903 14.2215L9.18592 16.023C9.69517 16.4167 10.1595 16.5864 11.2224 16.342C11.8678 16.2132 12.5131 16.0846 13.1583 15.9558C13.6898 15.9262 13.6508 16.3047 13.4268 16.605C13.0314 17.2054 12.6361 17.806 12.2407 18.4064C11.8548 18.9381 11.8659 19.2961 12.2072 19.7157L13.3597 21.2604C13.6805 21.7583 13.4139 22.0102 12.9121 21.9655L10.5846 21.4842C9.85731 21.2734 9.52167 21.3426 9.24186 21.5737L7.59702 23.1852C6.8698 23.8373 6.40727 23.4786 6.41649 22.9838L6.48923 21.4507C6.45552 20.9191 6.26547 20.4324 5.61643 20.2087L3.63595 19.9066C2.8975 19.7687 2.78551 19.0265 3.66942 18.687C4.48262 18.3102 5.29569 17.9727 6.10877 17.596C6.4146 17.452 6.65338 17.2803 6.62358 16.84Z" stroke="white" stroke-miterlimit="22.926"/>
<path fill-rule="evenodd" clip-rule="evenodd" d="M22.2128 25.7021C22.0966 24.2793 21.9806 22.8569 21.8643 21.4342C21.7807 20.7011 22.2853 19.772 23.4104 20.6066L27.1991 24.1126C28.19 24.8782 29.0935 25.2086 31.1621 24.7331C32.4178 24.4827 33.6735 24.2321 34.9292 23.9819C35.9634 23.9239 35.8873 24.6604 35.4518 25.2448C34.6824 26.4134 33.9131 27.5819 33.1436 28.7506C32.3925 29.7848 32.4142 30.4818 33.0784 31.2984L35.3211 34.3042C35.9452 35.2732 35.4263 35.7631 34.45 35.676L29.921 34.7397C28.5057 34.3296 27.8524 34.4639 27.3082 34.9139L24.1072 38.0496C22.692 39.3185 21.7919 38.6208 21.81 37.6576L21.9516 34.6743C21.8861 33.6398 21.5161 32.6928 20.2532 32.2574L16.399 31.6697C14.962 31.4013 14.7442 29.9568 16.4644 29.2964C18.0466 28.5632 19.6291 27.9064 21.2112 27.1733C21.8062 26.8932 22.2711 26.559 22.2128 25.7021Z" fill="#FFA910"/>
<path d="M22.2128 25.7021C22.0966 24.2793 21.9806 22.8569 21.8643 21.4342C21.7807 20.7011 22.2853 19.772 23.4104 20.6066L27.1991 24.1126C28.19 24.8782 29.0935 25.2086 31.1621 24.7331C32.4178 24.4827 33.6735 24.2321 34.9292 23.9819C35.9634 23.9239 35.8873 24.6604 35.4518 25.2448C34.6824 26.4134 33.9131 27.5819 33.1436 28.7506C32.3925 29.7848 32.4142 30.4818 33.0783 31.2984L35.3211 34.3042C35.9452 35.2732 35.4263 35.7631 34.45 35.676L29.921 34.7397C28.5057 34.3296 27.8524 34.4639 27.3082 34.9139L24.1072 38.0496C22.692 39.3185 21.7919 38.6208 21.81 37.6576L21.9516 34.6743C21.8861 33.6398 21.5161 32.6928 20.2532 32.2574L16.399 31.6697C14.962 31.4013 14.7442 29.9568 16.4644 29.2964C18.0466 28.5632 19.6291 27.9064 21.2112 27.1733C21.8062 26.8932 22.2711 26.559 22.2128 25.7021Z" stroke="white" stroke-miterlimit="22.926"/>
<defs>
<linearGradient id="paint0_linear_137_482" x1="25.4234" y1="28.2926" x2="25.4858" y2="-5.58067" gradientUnits="userSpaceOnUse">
<stop stop-color="#F9AE51"/>
<stop offset="0.329965" stop-color="#F9AE51"/>
<stop offset="1" stop-color="#FFED63"/>
</linearGradient>
</defs>
</svg>
