<svg width="249" height="72" viewBox="0 0 249 72" fill="none" xmlns="http://www.w3.org/2000/svg">
<path fill-rule="evenodd" clip-rule="evenodd" d="M99.7242 15.6062C95.4753 15.0433 92.4871 17.7063 92.0666 18.0898C89.4801 20.448 87.7969 24.7036 89.2253 27.2194C90.3132 29.1353 92.7984 29.3354 92.6874 30.3007C92.567 31.35 89.6517 30.9307 88.3412 32.7843C87.0179 34.6559 87.8575 38.0991 89.7899 40.0281C91.0789 41.3146 92.5809 41.6509 94.0573 41.9611C98.3978 42.8732 104.492 42.0602 107.883 37.8659C108.585 36.9973 109.011 36.1818 109.245 35.6818C109.937 39.2809 113.073 41.5002 115.867 41.0629C117.806 40.7595 119.457 39.1973 120.214 37.1306C120.835 38.7921 121.857 40.6835 123.525 41.0629C126.297 41.6933 128.137 37.5623 131.39 37.9584C134.238 38.3051 135.055 41.8864 137.392 41.6838C138.9 41.553 140.003 39.9374 140.703 38.5793C141.464 39.6866 142.733 41.1519 144.429 41.2698C146.65 41.4244 147.474 39.1182 149.81 39.2002C152.293 39.2873 153.07 41.8398 155.191 41.6838C156.174 41.6113 157.482 40.948 158.916 38.3723C160.233 40.311 161.88 42.2055 163.262 41.8907C165.251 41.4377 165.46 36.7607 166.988 36.7166C168.044 36.6862 168.119 38.9212 170.299 40.235C171.603 41.0207 173.872 41.6053 175.68 40.442C177.387 39.3442 177.696 37.3245 177.75 36.9236C177.939 37.5087 178.563 39.1758 180.233 40.235C180.536 40.4269 182.018 41.3417 183.545 41.0629C184.481 40.8919 185.961 40.1756 189.754 30.9216C190.494 29.1161 191.272 26.9762 191.272 26.9762C191.638 25.9971 191.782 25.5931 192.03 24.9196C194.091 19.3337 194.787 18.4503 194.307 17.055C194.264 16.9312 193.758 15.5257 192.444 14.9853C191.102 14.4332 189.717 15.1128 189.133 15.3993C186.764 16.5612 187.027 18.2305 185.615 18.7107C182.968 19.6102 180.369 14.3222 176.922 14.7784C175.205 15.0056 173.977 16.5657 173.197 17.8828C169.759 14.6716 165.18 13.5109 161.4 14.9853C158.986 15.9266 157.543 17.6906 156.846 18.7107C155.61 17.483 153.614 15.8792 150.844 14.9853C148.902 14.3586 147.446 14.3605 147.119 14.3644C146.193 14.3754 144.702 14.393 143.187 15.1923C140.833 16.4343 139.929 18.7672 139.668 19.5386C138.687 16.902 136.184 15.1617 133.459 15.1923C131.015 15.2198 128.766 16.6684 127.664 18.9177C126.936 18.1269 125.784 17.0626 124.146 16.2271C122.947 15.6158 121.784 15.278 114.833 14.9853C109.997 14.7817 108.553 14.8607 106.968 15.8132C105.874 16.4707 105.143 17.2866 104.691 17.8828C103.993 17.2733 102.275 15.9442 99.7242 15.6062Z" fill="#FFA910"/>
<path d="M95.8183 39.8672C93.6866 39.8672 92.0081 39.3102 90.7829 38.1966C89.7508 37.2702 89.2344 36.2006 89.2344 34.9884C89.2344 34.3673 89.3937 33.8524 89.7129 33.4434C90.0318 33.0345 90.4722 32.8298 91.0348 32.8298C91.79 32.8298 92.3438 33.2832 92.6965 34.1899C93.1748 35.4023 94.2574 36.0083 95.9442 36.0083C97.3877 36.0083 98.785 35.6389 100.136 34.8996C101.538 34.1409 102.239 33.3081 102.239 32.4011C102.239 31.1592 101.802 30.3412 100.929 29.9468C100.308 29.6611 99.0619 29.4935 97.1905 29.4442C95.7384 29.4049 94.4379 29.0845 93.288 28.4833C91.7353 27.6652 90.9718 26.4923 90.9969 24.9645C91.0221 23.0426 91.8947 21.2809 93.6154 19.679C95.3357 18.0775 97.2325 17.2766 99.3055 17.2766C100.128 17.2766 101.143 17.4982 102.352 17.9418C103.854 18.4939 104.605 19.1297 104.605 19.8492C104.605 20.3616 104.454 20.8151 104.152 21.2093C103.816 21.6529 103.384 21.8745 102.855 21.8745C102.461 21.8745 101.871 21.7762 101.087 21.5788C100.302 21.3819 99.7082 21.2832 99.3055 21.2832C98.2228 21.2931 97.1946 21.5986 96.2213 22.1999C95.2142 22.811 94.7105 23.4764 94.7105 24.1956C94.7105 24.5704 94.8636 24.8784 95.1701 25.1197C95.4764 25.3615 95.9357 25.5314 96.5485 25.6297C97.6227 25.6988 98.6927 25.7679 99.7587 25.8366C101.622 26.0045 103.095 26.6204 104.177 27.6848C105.369 28.8676 105.965 30.5037 105.965 32.5932C105.965 35.1362 104.731 37.0632 102.264 38.3739C100.384 39.3694 98.2355 39.8672 95.8183 39.8672Z" fill="#13130F"/>
<path d="M95.8183 39.8672C93.6866 39.8672 92.0081 39.3102 90.7829 38.1966C89.7508 37.2702 89.2344 36.2006 89.2344 34.9884C89.2344 34.3673 89.3937 33.8524 89.7129 33.4434C90.0318 33.0345 90.4722 32.8298 91.0348 32.8298C91.79 32.8298 92.3438 33.2832 92.6965 34.1899C93.1748 35.4023 94.2574 36.0083 95.9442 36.0083C97.3877 36.0083 98.785 35.6389 100.136 34.8996C101.538 34.1409 102.239 33.3081 102.239 32.4011C102.239 31.1592 101.802 30.3412 100.929 29.9468C100.308 29.6611 99.0619 29.4935 97.1905 29.4442C95.7384 29.4049 94.4379 29.0845 93.288 28.4833C91.7353 27.6652 90.9718 26.4923 90.9969 24.9645C91.0221 23.0426 91.8947 21.2809 93.6154 19.679C95.3357 18.0775 97.2325 17.2766 99.3055 17.2766C100.128 17.2766 101.143 17.4982 102.352 17.9418C103.854 18.4939 104.605 19.1297 104.605 19.8492C104.605 20.3616 104.454 20.8151 104.152 21.2093C103.816 21.6529 103.384 21.8745 102.855 21.8745C102.461 21.8745 101.871 21.7762 101.087 21.5788C100.302 21.3819 99.7082 21.2832 99.3055 21.2832C98.2228 21.2931 97.1946 21.5986 96.2213 22.1999C95.2142 22.811 94.7105 23.4764 94.7105 24.1956C94.7105 24.5704 94.8636 24.8784 95.1701 25.1197C95.4764 25.3615 95.9357 25.5314 96.5485 25.6297C97.6227 25.6988 98.6927 25.7679 99.7587 25.8366C101.622 26.0045 103.095 26.6204 104.177 27.6848C105.369 28.8676 105.965 30.5037 105.965 32.5932C105.965 35.1362 104.731 37.0632 102.264 38.3739C100.384 39.3694 98.2355 39.8672 95.8183 39.8672Z" stroke="white" stroke-miterlimit="22.926"/>
<path d="M122.822 21.2412C122.167 21.2412 121.147 21.1872 119.763 21.0786C118.428 20.9701 117.409 20.9211 116.704 20.9308C116.737 22.0544 116.85 24.0553 117.044 26.9332C117.22 29.4762 117.308 31.4868 117.308 32.9652C117.308 33.3004 117.337 33.7982 117.396 34.4584C117.455 35.1188 117.484 35.6168 117.484 35.9517C117.484 36.6909 117.35 37.3563 117.081 37.9476C116.737 38.7068 116.246 39.0859 115.608 39.0859C115.147 39.0859 114.74 38.9137 114.387 38.5685C113.993 38.1842 113.796 37.7013 113.796 37.1198C113.796 36.9817 113.817 36.7723 113.859 36.4914C113.901 36.2104 113.922 35.9962 113.922 35.8482C113.922 35.3949 113.894 34.7099 113.84 33.7932C113.785 32.8766 113.758 32.1868 113.758 31.7234C113.758 30.4027 113.67 28.6137 113.494 26.3566C113.292 23.7646 113.175 21.9756 113.141 20.99H112.486C110.615 20.99 109.13 20.8323 108.03 20.5169C107.098 20.2507 106.633 19.6052 106.633 18.5801C106.633 18.0774 106.784 17.6241 107.086 17.2199C107.439 16.7371 107.9 16.5202 108.471 16.5692C108.764 16.5891 109.432 16.6727 110.472 16.8207C111.303 16.9293 111.975 16.9834 112.486 16.9834C112.998 16.9834 113.764 16.9736 114.784 16.9538C115.804 16.9341 116.569 16.9242 117.081 16.9242C117.719 16.9242 118.676 16.9759 119.952 17.0794C121.227 17.1829 122.184 17.2346 122.822 17.2346C123.326 17.2346 123.747 17.4269 124.087 17.8112C124.427 18.1956 124.597 18.6687 124.597 19.2306C124.597 19.7923 124.427 20.2679 124.087 20.6572C123.747 21.0467 123.326 21.2412 122.822 21.2412Z" fill="#13130F"/>
<path d="M122.822 21.2412C122.167 21.2412 121.147 21.1872 119.763 21.0786C118.428 20.9701 117.409 20.9211 116.704 20.9308C116.737 22.0544 116.85 24.0553 117.044 26.9332C117.22 29.4762 117.308 31.4868 117.308 32.9652C117.308 33.3004 117.337 33.7982 117.396 34.4584C117.455 35.1188 117.484 35.6168 117.484 35.9517C117.484 36.6909 117.35 37.3563 117.081 37.9476C116.737 38.7068 116.246 39.0859 115.608 39.0859C115.147 39.0859 114.74 38.9137 114.387 38.5685C113.993 38.1842 113.796 37.7013 113.796 37.1198C113.796 36.9817 113.817 36.7723 113.859 36.4914C113.901 36.2104 113.922 35.9962 113.922 35.8482C113.922 35.3949 113.894 34.7099 113.84 33.7932C113.785 32.8766 113.758 32.1868 113.758 31.7234C113.758 30.4027 113.67 28.6137 113.494 26.3566C113.292 23.7646 113.175 21.9756 113.141 20.99H112.486C110.615 20.99 109.13 20.8323 108.03 20.5169C107.098 20.2507 106.633 19.6052 106.633 18.5801C106.633 18.0774 106.784 17.6241 107.086 17.2199C107.439 16.7371 107.9 16.5202 108.471 16.5692C108.764 16.5891 109.432 16.6727 110.472 16.8207C111.303 16.9293 111.975 16.9834 112.486 16.9834C112.998 16.9834 113.764 16.9736 114.784 16.9538C115.804 16.9341 116.569 16.9242 117.081 16.9242C117.719 16.9242 118.676 16.9759 119.952 17.0794C121.227 17.1829 122.184 17.2346 122.822 17.2346C123.326 17.2346 123.747 17.4269 124.087 17.8112C124.427 18.1956 124.597 18.6687 124.597 19.2306C124.597 19.7923 124.427 20.2679 124.087 20.6572C123.747 21.0467 123.326 21.2412 122.822 21.2412Z" stroke="white" stroke-miterlimit="22.926"/>
<path d="M132.383 24.2399C131.728 25.5607 130.826 27.3594 129.677 29.6363C130.054 29.5378 130.641 29.4587 131.439 29.3997C132.379 29.3308 132.97 29.2766 133.214 29.237C133.012 27.9559 132.736 26.2901 132.383 24.2399ZM137.078 39.4087C136.416 39.3791 135.748 38.4625 135.077 36.6588C134.632 35.4958 134.25 34.1553 133.931 32.6375C133.31 32.7461 132.295 32.8544 130.885 32.9626C129.559 33.0713 128.543 33.1994 127.839 33.3471C127.453 34.4314 126.781 36.0627 125.824 38.2406C125.455 38.9505 124.943 39.3052 124.289 39.3052C123.827 39.3052 123.411 39.1204 123.042 38.7508C122.673 38.3811 122.488 37.9107 122.488 37.3389C122.488 36.8362 123.101 35.1312 124.326 32.2235C124.209 31.9181 124.158 31.632 124.175 31.3661C124.209 30.893 124.616 30.5233 125.396 30.2572C126.588 27.8326 127.914 25.3192 129.374 22.717C131.472 18.9817 132.765 17.1137 133.252 17.1137C134.175 17.1137 134.792 17.7693 135.102 19.08C135.27 20.1349 135.535 21.7168 135.895 23.8259C136.407 26.6645 137.032 29.9124 137.771 33.5688C137.83 33.8449 138.044 34.4954 138.413 35.5205C138.715 36.3682 138.866 37.004 138.866 37.4277C138.866 37.9993 138.684 38.4774 138.319 38.8617C137.954 39.246 137.54 39.4284 137.078 39.4087Z" fill="#13130F"/>
<path d="M132.383 24.2399C131.728 25.5607 130.826 27.3594 129.677 29.6363C130.054 29.5378 130.641 29.4587 131.439 29.3997C132.379 29.3308 132.97 29.2766 133.214 29.237C133.012 27.9559 132.736 26.2901 132.383 24.2399ZM137.078 39.4087C136.416 39.3791 135.748 38.4625 135.077 36.6588C134.632 35.4958 134.25 34.1553 133.931 32.6375C133.31 32.7461 132.295 32.8544 130.885 32.9626C129.559 33.0713 128.543 33.1994 127.839 33.3471C127.453 34.4314 126.781 36.0627 125.824 38.2406C125.455 38.9505 124.943 39.3052 124.289 39.3052C123.827 39.3052 123.411 39.1204 123.042 38.7508C122.673 38.3811 122.488 37.9107 122.488 37.3389C122.488 36.8362 123.101 35.1312 124.326 32.2235C124.209 31.9181 124.158 31.632 124.175 31.3661C124.209 30.893 124.616 30.5233 125.396 30.2572C126.588 27.8326 127.914 25.3192 129.374 22.717C131.472 18.9817 132.765 17.1137 133.252 17.1137C134.175 17.1137 134.792 17.7693 135.102 19.08C135.27 20.1349 135.535 21.7168 135.895 23.8259C136.407 26.6645 137.032 29.9124 137.771 33.5688C137.83 33.8449 138.044 34.4954 138.413 35.5205C138.715 36.3682 138.866 37.004 138.866 37.4277C138.866 37.9993 138.684 38.4774 138.319 38.8617C137.954 39.246 137.54 39.4284 137.078 39.4087Z" stroke="white" stroke-miterlimit="22.926"/>
<path d="M147.549 20.5457C147.482 20.5359 146.991 20.4964 146.076 20.4273V28.2779C146.286 28.2878 146.47 28.2928 146.63 28.2928C148.686 28.2928 150.209 27.992 151.2 27.3908C151.628 27.1346 152.02 26.7945 152.377 26.3707C152.733 25.947 152.912 25.6266 152.912 25.4097C152.912 24.306 152.316 23.2414 151.124 22.2163C149.991 21.2504 148.799 20.6934 147.549 20.5457ZM155.618 39.1445C155.165 39.1445 154.75 38.9374 154.372 38.5234C151.829 35.7244 149.034 33.7827 145.988 32.6984C146.08 35.5665 146.126 37.1585 146.126 37.4737C146.126 38.0356 145.958 38.5112 145.623 38.9005C145.287 39.2896 144.868 39.4844 144.364 39.4844C143.861 39.4844 143.441 39.2896 143.105 38.9005C142.769 38.5112 142.602 38.0356 142.602 37.4737C142.602 36.7346 142.61 35.6282 142.627 34.1546C142.644 32.6812 142.652 31.5748 142.652 30.8355L142.677 18.9046C142.677 18.2641 142.841 17.6825 143.168 17.1599C143.596 16.4898 144.188 16.1893 144.943 16.2582C146.982 16.4356 148.027 16.5293 148.078 16.539C149.252 16.7067 150.251 17.0368 151.074 17.5296C154.657 19.6489 156.449 22.2753 156.449 25.4097C156.449 26.701 156.073 27.8418 155.322 28.8323C154.571 29.8229 153.444 30.6582 151.942 31.3382C154.166 32.7971 155.84 34.2854 156.965 35.8031C157.259 36.1974 157.406 36.6361 157.406 37.119C157.406 37.6712 157.229 38.1463 156.877 38.5458C156.524 38.9448 156.105 39.1445 155.618 39.1445Z" fill="#13130F"/>
<path d="M147.549 20.5457C147.482 20.5359 146.991 20.4964 146.076 20.4273V28.2779C146.286 28.2878 146.47 28.2928 146.63 28.2928C148.686 28.2928 150.209 27.992 151.2 27.3908C151.628 27.1346 152.02 26.7945 152.377 26.3707C152.733 25.947 152.912 25.6266 152.912 25.4097C152.912 24.306 152.316 23.2414 151.124 22.2163C149.991 21.2504 148.799 20.6934 147.549 20.5457ZM155.618 39.1445C155.165 39.1445 154.75 38.9374 154.372 38.5234C151.829 35.7244 149.034 33.7827 145.988 32.6984C146.08 35.5665 146.126 37.1585 146.126 37.4737C146.126 38.0356 145.958 38.5112 145.623 38.9005C145.287 39.2896 144.868 39.4844 144.364 39.4844C143.861 39.4844 143.441 39.2896 143.105 38.9005C142.769 38.5112 142.602 38.0356 142.602 37.4737C142.602 36.7346 142.61 35.6282 142.627 34.1546C142.644 32.6812 142.652 31.5748 142.652 30.8355L142.677 18.9046C142.677 18.2641 142.841 17.6825 143.168 17.1599C143.596 16.4898 144.188 16.1893 144.943 16.2582C146.982 16.4356 148.027 16.5293 148.078 16.539C149.252 16.7067 150.251 17.0368 151.074 17.5296C154.657 19.6489 156.449 22.2753 156.449 25.4097C156.449 26.701 156.073 27.8418 155.322 28.8323C154.571 29.8229 153.444 30.6582 151.942 31.3382C154.166 32.7971 155.84 34.2854 156.965 35.8031C157.259 36.1974 157.406 36.6361 157.406 37.119C157.406 37.6712 157.229 38.1463 156.877 38.5458C156.524 38.9448 156.105 39.1445 155.618 39.1445Z" stroke="white" stroke-miterlimit="22.926"/>
<path d="M165.498 20.5457C165.431 20.5359 164.94 20.4964 164.025 20.4273V28.2779C164.235 28.2878 164.42 28.2928 164.579 28.2928C166.635 28.2928 168.158 27.992 169.149 27.3908C169.577 27.1346 169.969 26.7945 170.326 26.3707C170.683 25.947 170.861 25.6266 170.861 25.4097C170.861 24.306 170.265 23.2414 169.073 22.2163C167.94 21.2504 166.749 20.6934 165.498 20.5457ZM173.567 39.1445C173.114 39.1445 172.699 38.9374 172.321 38.5234C169.778 35.7244 166.984 33.7827 163.937 32.6984C164.029 35.5665 164.076 37.1585 164.076 37.4737C164.076 38.0356 163.908 38.5112 163.572 38.9005C163.236 39.2896 162.817 39.4844 162.313 39.4844C161.81 39.4844 161.39 39.2896 161.054 38.9005C160.718 38.5112 160.551 38.0356 160.551 37.4737C160.551 36.7346 160.559 35.6282 160.576 34.1546C160.593 32.6812 160.601 31.5748 160.601 30.8355L160.626 18.9046C160.626 18.2641 160.79 17.6825 161.117 17.1599C161.545 16.4898 162.137 16.1893 162.892 16.2582C164.932 16.4356 165.977 16.5293 166.027 16.539C167.202 16.7067 168.2 17.0368 169.023 17.5296C172.606 19.6489 174.398 22.2753 174.398 25.4097C174.398 26.701 174.023 27.8418 173.272 28.8323C172.52 29.8229 171.394 30.6582 169.892 31.3382C172.116 32.7971 173.79 34.2854 174.914 35.8031C175.208 36.1974 175.355 36.6361 175.355 37.119C175.355 37.6712 175.179 38.1463 174.826 38.5458C174.474 38.9448 174.054 39.1445 173.567 39.1445Z" fill="#13130F"/>
<path d="M165.498 20.5457C165.431 20.5359 164.94 20.4964 164.025 20.4273V28.2779C164.235 28.2878 164.42 28.2928 164.579 28.2928C166.635 28.2928 168.158 27.992 169.149 27.3908C169.577 27.1346 169.969 26.7945 170.326 26.3707C170.683 25.947 170.861 25.6266 170.861 25.4097C170.861 24.306 170.265 23.2414 169.073 22.2163C167.94 21.2504 166.749 20.6934 165.498 20.5457ZM173.567 39.1445C173.114 39.1445 172.699 38.9374 172.321 38.5234C169.778 35.7244 166.984 33.7827 163.937 32.6984C164.029 35.5665 164.076 37.1585 164.076 37.4737C164.076 38.0356 163.908 38.5112 163.572 38.9005C163.236 39.2896 162.817 39.4844 162.313 39.4844C161.81 39.4844 161.39 39.2896 161.054 38.9005C160.718 38.5112 160.551 38.0356 160.551 37.4737C160.551 36.7346 160.559 35.6282 160.576 34.1546C160.593 32.6812 160.601 31.5748 160.601 30.8355L160.626 18.9046C160.626 18.2641 160.79 17.6825 161.117 17.1599C161.545 16.4898 162.137 16.1893 162.892 16.2582C164.932 16.4356 165.977 16.5293 166.027 16.539C167.202 16.7067 168.2 17.0368 169.023 17.5296C172.606 19.6489 174.398 22.2753 174.398 25.4097C174.398 26.701 174.023 27.8418 173.272 28.8323C172.52 29.8229 171.394 30.6582 169.892 31.3382C172.116 32.7971 173.79 34.2854 174.914 35.8031C175.208 36.1974 175.355 36.6361 175.355 37.119C175.355 37.6712 175.179 38.1463 174.826 38.5458C174.474 38.9448 174.054 39.1445 173.567 39.1445Z" stroke="white" stroke-miterlimit="22.926"/>
<path d="M191.509 20.721C191.081 21.7559 190.22 23.9936 188.928 27.4333C187.854 30.3114 186.939 32.5685 186.184 34.2044C184.875 37.0431 184.174 38.5463 184.081 38.7137C183.586 39.5712 183.016 40 182.369 40C181.908 40 181.501 39.8224 181.148 39.4677C180.762 39.0734 180.569 38.5858 180.569 38.004C180.569 37.5212 181.446 35.4907 183.2 31.9129C182.554 30.8188 181.627 29.1582 180.418 26.9304C179.512 25.2945 178.181 22.8255 176.428 19.5235C176.26 19.1885 176.176 18.8385 176.176 18.4738C176.176 17.9024 176.365 17.4193 176.742 17.0251C177.095 16.6604 177.506 16.4781 177.976 16.4781C178.53 16.4781 179.034 16.8082 179.487 17.4686L180.431 19.2425C180.489 19.3609 181.211 20.8001 182.596 23.5596C183.469 25.3241 184.241 26.7187 184.912 27.7438C185.55 26.2356 186.469 23.954 187.669 20.8984C187.921 20.2183 188.299 19.1885 188.802 17.8084C189.121 16.9216 189.667 16.4781 190.439 16.4781C190.9 16.4781 191.307 16.6552 191.66 17.0102C192.046 17.3945 192.239 17.8776 192.239 18.4591C192.239 18.7942 191.996 19.5482 191.509 20.721Z" fill="#13130F"/>
<path d="M191.509 20.721C191.081 21.7559 190.22 23.9936 188.928 27.4333C187.854 30.3114 186.939 32.5685 186.184 34.2044C184.875 37.0431 184.174 38.5463 184.081 38.7137C183.586 39.5712 183.016 40 182.369 40C181.908 40 181.501 39.8224 181.148 39.4677C180.762 39.0734 180.569 38.5858 180.569 38.004C180.569 37.5212 181.446 35.4907 183.2 31.9129C182.554 30.8188 181.627 29.1582 180.418 26.9304C179.512 25.2945 178.181 22.8255 176.428 19.5235C176.26 19.1885 176.176 18.8385 176.176 18.4738C176.176 17.9024 176.365 17.4193 176.742 17.0251C177.095 16.6604 177.506 16.4781 177.976 16.4781C178.53 16.4781 179.034 16.8082 179.487 17.4686L180.431 19.2425C180.489 19.3609 181.211 20.8001 182.596 23.5596C183.469 25.3241 184.241 26.7187 184.912 27.7438C185.55 26.2356 186.469 23.954 187.669 20.8984C187.921 20.2183 188.299 19.1885 188.802 17.8084C189.121 16.9216 189.667 16.4781 190.439 16.4781C190.9 16.4781 191.307 16.6552 191.66 17.0102C192.046 17.3945 192.239 17.8776 192.239 18.4591C192.239 18.7942 191.996 19.5482 191.509 20.721Z" stroke="white" stroke-miterlimit="22.926"/>
<path fill-rule="evenodd" clip-rule="evenodd" d="M114.736 50.5881C111.626 50.1111 108.309 53.8737 106.965 57.0009C106.363 58.4031 105.195 61.1222 106.551 63.4168C107.712 65.3809 110.253 66.1475 112.139 66.1074C115.494 66.0362 116.876 63.4024 118.762 64.2447C120.135 64.8579 120.069 66.5509 121.867 67.1422C122.914 67.4866 123.873 67.2209 124.143 67.1422C127.447 66.1815 127.658 61.2284 129.524 61.1402C131.037 61.0688 131.404 64.2983 133.664 65.0726C135.906 65.8406 138.645 63.7236 140.494 61.9681C140.561 62.3971 140.933 64.4852 142.77 65.6935C144.926 67.1112 147.383 66.1887 148.151 65.9004C150.844 64.8896 152.016 62.5557 152.291 61.9681C152.605 63.9972 154.206 65.5951 156.223 65.9004C158.278 66.2117 160.315 65.1117 161.19 63.2099C161.568 65.2414 162.523 65.913 162.846 66.1074C164.827 67.2993 168.64 65.93 171.538 61.9681C171.595 62.2456 171.971 63.9634 173.401 64.6586C175.037 65.454 177.486 64.6344 178.782 62.382C178.797 62.5747 179.168 66.8438 181.266 67.3492C181.614 67.433 182.048 67.4226 182.714 67.1422C186.23 65.662 186.735 60.6437 188.095 60.7263C189.059 60.7847 188.914 63.3088 190.579 64.4517C192.347 65.6649 195.201 64.6667 197.616 63.4168C198.008 63.9076 199.85 66.1059 202.79 66.3144C206.059 66.5462 209.353 64.224 210.655 60.5193C210.779 61.0808 211.515 64.1524 214.173 65.4865C217.243 67.0273 221.741 65.6794 224.314 61.7611C224.408 62.036 225.503 65.1048 228.454 65.9004C231.225 66.6476 234.463 65.0742 235.904 61.9681C237.25 64.2006 238.742 64.573 239.216 64.6586C240.956 64.9736 242.584 63.558 245.839 60.7263C248.112 58.7483 248.631 57.8118 248.736 56.794C248.752 56.6431 248.928 54.7264 247.908 54.1034C246.098 52.9976 242.615 57.2476 241.285 56.38C239.667 55.3239 244.018 48.4988 241.285 45.204C240.573 44.3453 239.366 43.7097 238.388 43.9622C236.876 44.3527 235.819 46.8907 236.111 50.3781C235.175 50.2539 233.771 50.1813 232.179 50.585C229.607 51.2376 229.426 52.4041 227.626 52.8617C224.177 53.7381 222.547 50.0353 218.519 50.585C216.159 50.9073 216.392 52.2234 213.966 52.6547C209.789 53.3973 208.285 49.6413 204.653 50.3781C202.241 50.8673 200.16 53.0796 198.03 55.3452C196.426 57.0512 195.686 58.2351 194.925 58.0358C193.516 57.6663 194.536 53.1667 192.649 52.0338C191.661 51.4408 189.692 51.6604 185.405 55.1383C187.333 50.1241 187.06 46.0881 185.198 44.997C184.297 44.469 182.877 44.5442 181.887 45.204C179.207 46.9886 181.313 51.9543 177.954 55.5522C177.631 55.8986 176.783 56.807 176.298 56.587C174.918 55.9597 179.09 47.3425 176.298 44.997C175.384 44.2285 173.912 44.2927 172.987 44.79C171.376 45.6566 170.639 48.2631 171.538 51.2059C168.907 49.9505 167.233 50.1231 166.157 50.585C162.709 52.0663 162.735 57.6721 159.327 58.2427C158.871 58.3191 158.174 58.4358 157.672 58.0358C155.577 56.3674 160.992 48.9941 158.5 46.0318C157.502 44.8459 155.288 44.4591 153.946 45.204C151.508 46.5573 153.283 50.9091 150.014 55.9661C149.139 57.3203 147.618 59.1639 146.909 58.8636C146.525 58.7007 146.431 57.9298 146.703 55.1383C147.289 49.1003 148.3 46.8233 147.116 45.6179C146.455 44.944 145.291 44.7971 144.426 44.997C140.37 45.9348 140.544 55.4924 137.803 55.7592C136.033 55.9314 135.342 52.0059 132.215 51.6199C129.981 51.3442 128.735 53.1315 127.662 52.4477C126.075 51.4365 128.221 46.8862 126.42 45.6179C125.689 45.103 124.583 45.324 123.936 45.6179C120.713 47.084 121.816 53.5929 119.797 54.1034C118.311 54.4793 117.487 51.0101 114.736 50.5881Z" fill="#FFA910"/>
<path d="M123.731 56.3627C123.731 56.4817 123.691 56.6564 123.611 56.8866C123.54 57.1089 123.441 57.3589 123.314 57.6367C123.187 57.9066 123.036 58.1884 122.861 58.4822C122.695 58.7759 122.52 59.0497 122.337 59.3038C121.806 60.0261 121.282 60.685 120.766 61.2804C120.25 61.8678 119.73 62.4036 119.206 62.8878C118.69 63.3721 118.162 63.8126 117.622 64.2095C117.082 64.6064 116.527 64.9756 115.955 65.3169C115.368 65.6662 114.717 65.9321 114.002 66.1147C113.296 66.2973 112.51 66.3886 111.645 66.3886C111.176 66.3886 110.744 66.3171 110.347 66.1742C109.95 66.0313 109.609 65.813 109.323 65.5193C109.037 65.2177 108.815 64.8367 108.656 64.3762C108.497 63.9158 108.418 63.3721 108.418 62.7449C108.418 62.4115 108.465 62.0385 108.561 61.6257C108.656 61.2049 108.787 60.7683 108.954 60.3159C109.12 59.8555 109.315 59.3911 109.537 58.9227C109.767 58.4464 110.013 57.994 110.275 57.5653C110.545 57.1366 110.823 56.7397 111.109 56.3746C111.403 56.0094 111.696 55.6998 111.99 55.4458C112.157 55.3029 112.367 55.168 112.621 55.041C112.875 54.906 113.137 54.7869 113.407 54.6838C113.685 54.5806 113.955 54.5012 114.217 54.4456C114.487 54.3821 114.721 54.3503 114.919 54.3503C115.213 54.3503 115.499 54.4059 115.776 54.517C116.054 54.6282 116.3 54.7711 116.515 54.9457C116.729 55.1124 116.9 55.3069 117.027 55.5292C117.162 55.7435 117.229 55.9578 117.229 56.1722C117.229 56.3389 117.193 56.5175 117.122 56.708C117.051 56.8906 116.955 57.0612 116.836 57.22C116.717 57.3708 116.582 57.4978 116.431 57.601C116.289 57.7042 116.138 57.7558 115.979 57.7558C115.852 57.7558 115.721 57.7082 115.586 57.6129C115.451 57.5097 115.332 57.3668 115.229 57.1843C115.141 57.0414 115.054 56.9064 114.967 56.7794C114.879 56.6524 114.792 56.5889 114.705 56.5889C114.403 56.5889 114.102 56.704 113.8 56.9342C113.506 57.1565 113.224 57.4462 112.954 57.8034C112.685 58.1607 112.435 58.5655 112.204 59.018C111.982 59.4625 111.784 59.911 111.609 60.3635C111.442 60.808 111.311 61.2327 111.216 61.6376C111.121 62.0345 111.073 62.3639 111.073 62.6259C111.073 62.872 111.117 63.0823 111.204 63.257C111.299 63.4316 111.418 63.5745 111.561 63.6856C111.704 63.7968 111.863 63.8761 112.038 63.9238C112.212 63.9714 112.387 63.9952 112.562 63.9952C112.8 63.9952 113.07 63.9595 113.371 63.888C113.681 63.8166 113.994 63.7253 114.312 63.6142C114.629 63.4951 114.935 63.3641 115.229 63.2212C115.53 63.0704 115.792 62.9196 116.015 62.7688C116.602 62.3639 117.197 61.9035 117.801 61.3875C118.412 60.8636 118.995 60.3119 119.551 59.7324C120.115 59.1529 120.635 58.5615 121.111 57.9582C121.587 57.3549 121.984 56.7755 122.302 56.2198C122.389 56.061 122.504 55.9499 122.647 55.8864C122.79 55.8149 122.937 55.7792 123.088 55.7792C123.23 55.7792 123.373 55.8348 123.516 55.9459C123.659 56.0571 123.731 56.196 123.731 56.3627Z" fill="#13130F"/>
<path d="M142.258 57.7796C142.258 57.8987 142.199 58.0694 142.08 58.2916C141.96 58.5139 141.806 58.756 141.615 59.018C141.425 59.2799 141.21 59.5538 140.972 59.8396C140.734 60.1174 140.5 60.3754 140.27 60.6136C139.833 61.0581 139.365 61.5264 138.865 62.0186C138.372 62.5028 137.849 62.9474 137.293 63.3522C136.745 63.7571 136.17 64.0905 135.566 64.3524C134.963 64.6144 134.336 64.7454 133.685 64.7454C133.169 64.7454 132.724 64.6501 132.351 64.4596C131.978 64.2611 131.665 63.9674 131.411 63.5785C131.157 63.1895 130.954 62.7092 130.803 62.1377C130.653 61.5661 130.541 60.9033 130.47 60.1492C130.446 59.8555 130.418 59.5895 130.387 59.3514C130.363 59.1053 130.335 58.8949 130.303 58.7203C130.272 58.5457 130.232 58.4107 130.184 58.3155C130.145 58.2202 130.093 58.1726 130.029 58.1726C129.807 58.1726 129.51 58.3432 129.136 58.6846C128.763 59.0259 128.331 59.4943 127.839 60.0896C127.354 60.685 126.822 61.3915 126.243 62.2091C125.671 63.0188 125.072 63.9 124.445 64.8525C124.389 64.9319 124.282 65.0589 124.123 65.2336C123.973 65.4003 123.802 65.5709 123.611 65.7456C123.429 65.9123 123.242 66.0591 123.052 66.1861C122.861 66.3132 122.707 66.3767 122.587 66.3767C122.381 66.3767 122.175 66.3568 121.968 66.3171C121.77 66.2774 121.591 66.2139 121.432 66.1266C121.282 66.0393 121.159 65.9281 121.063 65.7932C120.968 65.6503 120.92 65.4757 120.92 65.2693C120.92 65.1661 120.936 65.0113 120.968 64.8049C121 64.5906 121.036 64.3683 121.075 64.1381C121.123 63.9 121.166 63.6697 121.206 63.4475C121.254 63.2252 121.294 63.0545 121.325 62.9355C121.341 62.864 121.369 62.7132 121.409 62.483C121.448 62.2528 121.496 61.971 121.552 61.6376C121.607 61.2962 121.671 60.9192 121.742 60.5064C121.813 60.0936 121.885 59.6729 121.956 59.2442C122.028 58.8156 122.099 58.3909 122.171 57.9701C122.242 57.5415 122.306 57.1485 122.361 56.7913C122.425 56.4341 122.476 56.1245 122.516 55.8626C122.564 55.5927 122.595 55.3982 122.611 55.2791C122.619 55.2077 122.643 55.041 122.683 54.779C122.722 54.5091 122.766 54.1916 122.814 53.8264C122.861 53.4613 122.913 53.0723 122.968 52.6595C123.032 52.2467 123.088 51.8617 123.135 51.5045C123.183 51.1394 123.222 50.8218 123.254 50.5519C123.294 50.282 123.318 50.1114 123.326 50.0399C123.349 49.8256 123.405 49.5914 123.492 49.3374C123.58 49.0834 123.691 48.8492 123.826 48.6349C123.961 48.4126 124.112 48.2261 124.278 48.0752C124.453 47.9244 124.635 47.849 124.826 47.849C124.993 47.849 125.171 47.8847 125.362 47.9562C125.56 48.0197 125.739 48.1229 125.898 48.2658C126.064 48.4086 126.203 48.5912 126.314 48.8135C126.426 49.0358 126.481 49.3017 126.481 49.6113C126.481 49.8335 126.461 50.1034 126.422 50.421C126.382 50.7385 126.33 51.0759 126.267 51.4331C126.211 51.7903 126.144 52.1554 126.064 52.5285C125.993 52.9016 125.921 53.2589 125.85 53.6002C125.779 53.9336 125.707 54.2432 125.636 54.529C125.572 54.8068 125.521 55.0291 125.481 55.1958C125.417 55.4657 125.35 55.7435 125.278 56.0293C125.207 56.3071 125.144 56.5611 125.088 56.7913C125.056 56.9183 125.009 57.1009 124.945 57.3391C124.882 57.5772 124.81 57.8511 124.731 58.1607C124.651 58.4703 124.564 58.8037 124.469 59.1609C124.381 59.5181 124.29 59.8793 124.195 60.2444C124.108 60.6016 124.02 60.9509 123.933 61.2923C123.854 61.6336 123.786 61.9432 123.731 62.221C124.016 61.7765 124.326 61.3081 124.659 60.816C125.001 60.3159 125.342 59.8277 125.683 59.3514C126.025 58.8751 126.354 58.4345 126.672 58.0297C126.997 57.6169 127.287 57.2795 127.541 57.0176C127.811 56.7397 128.093 56.4897 128.386 56.2674C128.68 56.0372 128.974 55.8467 129.267 55.6959C129.569 55.5371 129.863 55.418 130.149 55.3386C130.442 55.2513 130.716 55.2077 130.97 55.2077C131.105 55.2077 131.248 55.2355 131.399 55.291C131.55 55.3466 131.692 55.422 131.827 55.5173C131.97 55.6125 132.097 55.7276 132.208 55.8626C132.328 55.9975 132.415 56.1483 132.47 56.315C132.629 56.7437 132.744 57.1803 132.816 57.6248C132.895 58.0694 132.959 58.506 133.006 58.9346C133.046 59.3395 133.098 59.7404 133.161 60.1373C133.225 60.5262 133.296 60.8755 133.375 61.1851C133.463 61.4947 133.554 61.7447 133.649 61.9353C133.745 62.1258 133.848 62.221 133.959 62.221C134.316 62.221 134.693 62.1456 135.09 61.9948C135.495 61.844 135.892 61.6574 136.281 61.4352C136.67 61.2049 137.043 60.9589 137.4 60.6969C137.757 60.427 138.071 60.173 138.341 59.9348C139.285 59.1013 140.043 58.4345 140.615 57.9344C141.187 57.4343 141.579 57.1803 141.794 57.1724C141.945 57.1724 142.06 57.2279 142.139 57.3391C142.218 57.4502 142.258 57.5971 142.258 57.7796Z" fill="#13130F"/>
<path d="M147.343 50.0518C147.343 50.1868 147.311 50.3495 147.247 50.54C147.192 50.7226 147.116 50.9171 147.021 51.1235C146.926 51.3219 146.819 51.5244 146.7 51.7308C146.581 51.9292 146.457 52.1078 146.33 52.2666C146.203 52.4253 146.084 52.5563 145.973 52.6595C145.862 52.7548 145.763 52.8024 145.676 52.8024C145.556 52.8024 145.402 52.7826 145.211 52.7429C145.021 52.7032 144.83 52.6436 144.64 52.5643C144.457 52.4769 144.298 52.3737 144.163 52.2547C144.028 52.1356 143.961 51.9967 143.961 51.8379C143.961 51.7188 143.977 51.6157 144.009 51.5283C144.048 51.441 144.088 51.3537 144.128 51.2664C144.175 51.1711 144.215 51.0679 144.247 50.9568C144.286 50.8457 144.306 50.7067 144.306 50.54C144.306 50.3336 144.338 50.1392 144.401 49.9566C144.465 49.7661 144.556 49.6033 144.675 49.4684C144.794 49.3255 144.937 49.2144 145.104 49.135C145.271 49.0477 145.461 49.004 145.676 49.004C145.779 49.004 145.922 49.0119 146.104 49.0278C146.295 49.0358 146.481 49.0715 146.664 49.135C146.846 49.1985 147.005 49.3017 147.14 49.4446C147.275 49.5875 147.343 49.7899 147.343 50.0518ZM153.403 60.042C153.324 60.2087 153.189 60.423 152.999 60.685C152.808 60.939 152.594 61.2129 152.356 61.5066C152.117 61.8003 151.867 62.098 151.605 62.3996C151.351 62.6934 151.113 62.9593 150.891 63.1974C150.161 63.9833 149.47 64.666 148.819 65.2455C148.176 65.825 147.561 66.3052 146.973 66.6862C146.394 67.0673 145.842 67.3491 145.318 67.5317C144.794 67.7142 144.29 67.8055 143.806 67.8055C143.346 67.8055 142.937 67.7142 142.58 67.5317C142.23 67.357 141.937 67.1149 141.699 66.8053C141.46 66.4957 141.282 66.1345 141.163 65.7218C141.044 65.301 140.984 64.8486 140.984 64.3643C140.984 63.9833 140.996 63.5665 141.02 63.1141C141.044 62.6616 141.071 62.2131 141.103 61.7686C141.143 61.3161 141.187 60.8914 141.234 60.4945C141.282 60.0976 141.325 59.7681 141.365 59.5062C141.389 59.3871 141.405 59.2522 141.413 59.1013C141.429 58.9505 141.441 58.7997 141.448 58.6489C141.456 58.4901 141.46 58.3432 141.46 58.2083C141.468 58.0654 141.472 57.9463 141.472 57.8511C141.472 57.7479 141.512 57.5891 141.591 57.3748C141.679 57.1525 141.798 56.9302 141.949 56.708C142.107 56.4778 142.298 56.2793 142.52 56.1126C142.742 55.938 142.992 55.8507 143.27 55.8507C143.723 55.8507 144.076 55.9419 144.33 56.1245C144.592 56.3071 144.723 56.6405 144.723 57.1247C144.723 57.22 144.695 57.3827 144.64 57.6129C144.592 57.8352 144.528 58.1051 144.449 58.4226C144.37 58.7401 144.282 59.0934 144.187 59.4824C144.1 59.8634 144.016 60.2643 143.937 60.685C143.858 61.1057 143.79 61.5344 143.735 61.971C143.687 62.3996 143.663 62.8164 143.663 63.2212C143.663 63.4991 143.679 63.7571 143.711 63.9952C143.743 64.2334 143.786 64.4397 143.842 64.6144C143.897 64.7811 143.961 64.9121 144.032 65.0073C144.112 65.1026 144.191 65.1502 144.271 65.1502C144.588 65.1502 144.913 65.0986 145.247 64.9954C145.58 64.8843 145.949 64.6898 146.354 64.412C146.767 64.1341 147.235 63.7531 147.759 63.2689C148.283 62.7767 148.894 62.1496 149.593 61.3875C149.839 61.1256 150.061 60.8835 150.26 60.6612C150.466 60.4389 150.669 60.2166 150.867 59.9944C151.074 59.7721 151.284 59.5379 151.498 59.2919C151.72 59.0458 151.967 58.764 152.236 58.4464C152.3 58.3591 152.391 58.2956 152.51 58.2559C152.629 58.2083 152.752 58.1845 152.879 58.1845C152.967 58.1845 153.058 58.2004 153.153 58.2321C153.249 58.2559 153.332 58.2996 153.403 58.3631C153.483 58.4266 153.546 58.5179 153.594 58.637C153.641 58.7481 153.665 58.8949 153.665 59.0775C153.665 59.2125 153.645 59.3633 153.606 59.53C153.574 59.6888 153.507 59.8594 153.403 60.042Z" fill="#13130F"/>
<path d="M163.894 59.7205C163.894 59.9031 163.846 60.1333 163.751 60.4111C163.663 60.681 163.513 60.9986 163.298 61.3637C163.084 61.7209 162.798 62.1258 162.441 62.5782C162.084 63.0307 161.639 63.5269 161.107 64.0667C160.814 64.3604 160.48 64.6541 160.107 64.9478C159.742 65.2415 159.353 65.5035 158.94 65.7337C158.527 65.9559 158.099 66.1385 157.654 66.2814C157.218 66.4243 156.781 66.4957 156.344 66.4957C155.757 66.4957 155.205 66.3925 154.689 66.1861C154.181 65.9797 153.737 65.6662 153.356 65.2455C152.975 64.8168 152.673 64.281 152.451 63.638C152.236 62.995 152.129 62.2409 152.129 61.3756C152.129 60.812 152.157 60.2286 152.213 59.6253C152.268 59.014 152.336 58.3988 152.415 57.7796C152.502 57.1605 152.598 56.5492 152.701 55.9459C152.812 55.3347 152.919 54.7512 153.022 54.1956C153.094 53.8145 153.153 53.4772 153.201 53.1834C153.249 52.8897 153.292 52.596 153.332 52.3023C153.38 52.0086 153.431 51.695 153.487 51.3616C153.542 51.0203 153.61 50.6194 153.689 50.159C153.729 49.9367 153.796 49.7264 153.892 49.5279C153.987 49.3215 154.106 49.1429 154.249 48.9921C154.4 48.8333 154.574 48.7103 154.773 48.623C154.971 48.5277 155.189 48.4801 155.428 48.4801C156.015 48.4801 156.444 48.7539 156.714 49.3017L156.583 49.9804C156.511 50.3614 156.416 50.8099 156.297 51.3259C156.186 51.834 156.063 52.3896 155.928 52.9929C155.801 53.5962 155.67 54.2313 155.535 54.8981C155.408 55.5569 155.289 56.2277 155.178 56.9104C155.074 57.5931 154.987 58.2718 154.916 58.9465C154.852 59.6213 154.82 60.2722 154.82 60.8993C154.82 61.3756 154.852 61.8082 154.916 62.1972C154.987 62.5862 155.098 62.9196 155.249 63.1974C155.4 63.4673 155.594 63.6777 155.832 63.8285C156.071 63.9793 156.356 64.0547 156.69 64.0547C157.023 64.0547 157.368 63.9873 157.726 63.8523C158.083 63.7094 158.44 63.5269 158.797 63.3046C159.162 63.0823 159.516 62.8283 159.857 62.5425C160.206 62.2568 160.532 61.971 160.833 61.6852C161.135 61.3915 161.405 61.1097 161.643 60.8398C161.881 60.562 162.076 60.3238 162.227 60.1254C162.298 60.0301 162.373 59.9309 162.453 59.8277C162.54 59.7165 162.635 59.6133 162.739 59.5181C162.85 59.4228 162.965 59.3434 163.084 59.2799C163.211 59.2164 163.346 59.1847 163.489 59.1847C163.6 59.1847 163.695 59.2323 163.775 59.3276C163.854 59.4149 163.894 59.5459 163.894 59.7205Z" fill="#13130F"/>
<path d="M181.802 57.4939C181.802 57.5812 181.751 57.7479 181.647 57.994C181.544 58.2321 181.401 58.5218 181.219 58.8632C181.044 59.1966 180.83 59.5657 180.576 59.9706C180.33 60.3675 180.06 60.7723 179.766 61.1851C179.472 61.5979 179.159 62.0027 178.825 62.3996C178.492 62.7886 178.155 63.1379 177.813 63.4475C177.313 63.9 176.789 64.273 176.241 64.5668C175.702 64.8525 175.158 64.9954 174.61 64.9954C174.205 64.9954 173.812 64.9002 173.431 64.7096C173.058 64.5191 172.717 64.2492 172.407 63.9C172.106 63.5427 171.848 63.118 171.633 62.6259C171.427 62.1258 171.284 61.5661 171.205 60.947C171.03 61.2407 170.804 61.5622 170.526 61.9114C170.256 62.2528 169.962 62.5941 169.645 62.9355C169.327 63.2768 169.002 63.6023 168.668 63.9119C168.343 64.2214 168.037 64.4834 167.752 64.6977C167.49 64.8883 167.204 65.0748 166.894 65.2574C166.593 65.44 166.283 65.5987 165.965 65.7337C165.656 65.8686 165.354 65.9797 165.061 66.0671C164.767 66.1464 164.505 66.1861 164.275 66.1861C163.862 66.1861 163.509 66.1147 163.215 65.9718C162.929 65.821 162.691 65.6265 162.5 65.3884C162.318 65.1502 162.183 64.8803 162.096 64.5787C162.016 64.277 161.977 63.9674 161.977 63.6499C161.977 63.2133 162.044 62.7172 162.179 62.1615C162.314 61.5979 162.497 61.0224 162.727 60.4349C162.965 59.8475 163.243 59.276 163.56 58.7203C163.878 58.1567 164.219 57.6566 164.584 57.22C165.061 56.6564 165.521 56.1761 165.965 55.7792C166.41 55.3744 166.851 55.0449 167.287 54.7909C167.724 54.5369 168.164 54.3503 168.609 54.2313C169.053 54.1122 169.506 54.0527 169.966 54.0527C170.276 54.0527 170.57 54.1281 170.847 54.2789C171.125 54.4218 171.34 54.6202 171.49 54.8743C171.562 54.5409 171.637 54.1797 171.717 53.7907C171.796 53.3938 171.871 53.0009 171.943 52.6119C172.022 52.215 172.094 51.8379 172.157 51.4807C172.221 51.1235 172.272 50.8139 172.312 50.5519C172.36 50.2265 172.407 49.897 172.455 49.5636C172.51 49.2223 172.57 48.9048 172.634 48.6111C172.697 48.3094 172.768 48.0435 172.848 47.8133C172.927 47.5831 173.019 47.4084 173.122 47.2894C173.185 47.2179 173.269 47.1504 173.372 47.0869C173.475 47.0155 173.582 46.956 173.693 46.9083C173.812 46.8528 173.927 46.8091 174.039 46.7773C174.15 46.7456 174.245 46.7297 174.324 46.7297C174.539 46.7297 174.717 46.7853 174.86 46.8964C175.003 46.9996 175.114 47.1385 175.194 47.3132C175.273 47.4878 175.329 47.6863 175.36 47.9085C175.392 48.1229 175.408 48.3412 175.408 48.5634C175.408 48.619 175.392 48.75 175.36 48.9564C175.329 49.1548 175.285 49.3811 175.229 49.6351C175.182 49.8812 175.126 50.1352 175.063 50.3971C175.007 50.6512 174.948 50.8655 174.884 51.0401C174.725 51.5006 174.563 52.0761 174.396 52.7667C174.229 53.4573 174.074 54.1876 173.931 54.9576C173.796 55.7276 173.685 56.5016 173.598 57.2795C173.511 58.0575 173.467 58.7679 173.467 59.4109C173.467 59.8316 173.507 60.2365 173.586 60.6255C173.665 61.0144 173.773 61.3597 173.908 61.6614C174.043 61.9551 174.197 62.1932 174.372 62.3758C174.555 62.5505 174.745 62.6378 174.944 62.6378C175.309 62.6378 175.694 62.5068 176.099 62.2448C176.511 61.9829 176.928 61.6296 177.349 61.1851C177.777 60.7326 178.202 60.2166 178.623 59.6372C179.044 59.0497 179.444 58.4345 179.826 57.7915C179.929 57.6248 180.028 57.4661 180.123 57.3153C180.218 57.1565 180.322 57.0215 180.433 56.9104C180.544 56.7913 180.663 56.7 180.79 56.6365C180.925 56.5651 181.076 56.5294 181.242 56.5294C181.401 56.5294 181.532 56.5968 181.635 56.7318C181.747 56.8667 181.802 57.1208 181.802 57.4939ZM170.871 57.3748C170.871 57.3033 170.847 57.2041 170.8 57.0771C170.752 56.9422 170.685 56.8112 170.597 56.6842C170.51 56.5572 170.407 56.446 170.288 56.3508C170.169 56.2555 170.034 56.2079 169.883 56.2079C169.621 56.2079 169.371 56.2515 169.133 56.3389C168.895 56.4182 168.66 56.5333 168.43 56.6842C168.208 56.8271 167.986 57.0017 167.763 57.2081C167.549 57.4065 167.331 57.6248 167.109 57.863C166.942 58.0376 166.763 58.2639 166.573 58.5417C166.382 58.8116 166.188 59.1093 165.989 59.4347C165.799 59.7523 165.616 60.0896 165.442 60.4469C165.267 60.7961 165.108 61.1414 164.965 61.4828C164.83 61.8162 164.723 62.1337 164.644 62.4354C164.564 62.7291 164.525 62.9831 164.525 63.1974C164.525 63.4276 164.549 63.5904 164.596 63.6856C164.652 63.7809 164.727 63.8285 164.822 63.8285C164.989 63.8285 165.168 63.7928 165.358 63.7213C165.557 63.642 165.759 63.5388 165.965 63.4118C166.18 63.2768 166.398 63.122 166.62 62.9474C166.851 62.7648 167.077 62.5703 167.299 62.3639C167.569 62.1178 167.843 61.8479 168.121 61.5542C168.406 61.2605 168.68 60.9589 168.942 60.6493C169.212 60.3397 169.462 60.0301 169.692 59.7205C169.923 59.403 170.125 59.1013 170.3 58.8156C170.474 58.5298 170.613 58.2639 170.716 58.0178C170.82 57.7638 170.871 57.5494 170.871 57.3748Z" fill="#13130F"/>
<path d="M200.925 59.1371C200.925 59.2482 200.885 59.3831 200.806 59.5419C200.735 59.6927 200.631 59.8713 200.496 60.0777C200.417 60.2047 200.31 60.3516 200.175 60.5183C200.048 60.685 199.909 60.8557 199.758 61.0303C199.615 61.2049 199.472 61.3756 199.33 61.5423C199.187 61.709 199.056 61.8519 198.937 61.971C198.484 62.4314 198 62.8759 197.484 63.3046C196.976 63.7333 196.44 64.1143 195.876 64.4477C195.321 64.7811 194.745 65.051 194.15 65.2574C193.555 65.4558 192.939 65.5551 192.304 65.5551C191.757 65.5551 191.276 65.4558 190.864 65.2574C190.459 65.0589 190.141 64.7414 189.911 64.3048C189.832 64.1619 189.748 63.9357 189.661 63.6261C189.581 63.3165 189.506 62.9871 189.435 62.6378C189.363 62.2806 189.304 61.9313 189.256 61.5899C189.208 61.2486 189.177 60.9708 189.161 60.7564C189.153 60.6136 189.141 60.4508 189.125 60.2682C189.109 60.0777 189.085 59.8991 189.054 59.7324C189.03 59.5657 188.994 59.4268 188.946 59.3157C188.907 59.1966 188.851 59.1371 188.78 59.1371C188.7 59.1371 188.625 59.1569 188.554 59.1966C188.411 59.268 188.172 59.4546 187.839 59.7562C187.514 60.0499 187.141 60.427 186.72 60.8874C186.299 61.3399 185.855 61.8598 185.386 62.4473C184.918 63.0268 184.473 63.638 184.053 64.281C183.894 64.5191 183.731 64.7851 183.564 65.0788C183.398 65.3645 183.231 65.6583 183.064 65.9599C182.906 66.2536 182.747 66.5394 182.588 66.8172C182.437 67.0951 182.298 67.3411 182.171 67.5555C182.084 67.6825 181.981 67.7896 181.862 67.877C181.743 67.9722 181.623 68.0476 181.504 68.1032C181.393 68.1588 181.29 68.1985 181.195 68.2223C181.1 68.2461 181.028 68.258 180.981 68.258C180.806 68.258 180.639 68.2183 180.48 68.1389C180.33 68.0595 180.195 67.9563 180.076 67.8293C179.964 67.7103 179.873 67.5713 179.802 67.4126C179.738 67.2538 179.706 67.0951 179.706 66.9363C179.706 66.849 179.718 66.6942 179.742 66.4719C179.774 66.2417 179.81 65.9837 179.849 65.6979C179.897 65.4122 179.941 65.1145 179.98 64.8049C180.028 64.4953 180.068 64.2095 180.099 63.9476C180.163 63.4395 180.226 62.8839 180.29 62.2806C180.361 61.6773 180.425 61.07 180.48 60.4588C180.544 59.8475 180.599 59.2522 180.647 58.6727C180.703 58.0853 180.742 57.5574 180.766 57.089C180.774 56.9382 180.786 56.7397 180.802 56.4937C180.818 56.2396 180.834 55.9618 180.85 55.6601C180.873 55.3506 180.893 55.033 180.909 54.7076C180.925 54.3742 180.941 54.0487 180.957 53.7312C180.981 53.4136 180.996 53.116 181.004 52.8381C181.02 52.5603 181.032 52.3261 181.04 52.1356C181.048 51.9133 181.06 51.7069 181.076 51.5164C181.1 51.318 181.131 51.1235 181.171 50.933C181.219 50.7425 181.274 50.5519 181.338 50.3614C181.409 50.163 181.5 49.9486 181.612 49.7184C181.651 49.6311 181.715 49.5359 181.802 49.4327C181.889 49.3295 181.993 49.2342 182.112 49.1469C182.239 49.0596 182.374 48.9881 182.517 48.9326C182.667 48.8691 182.818 48.8373 182.969 48.8373C183.302 48.8373 183.584 48.9564 183.814 49.1945C184.053 49.4247 184.172 49.7502 184.172 50.1709C184.172 50.29 184.156 50.4487 184.124 50.6472C184.1 50.8457 184.068 51.0401 184.029 51.2307C183.997 51.4212 183.965 51.5958 183.934 51.7546C183.91 51.9054 183.898 52.0007 183.898 52.0403C183.874 52.1515 183.842 52.3539 183.803 52.6476C183.763 52.9334 183.715 53.2747 183.66 53.6716C183.612 54.0606 183.56 54.4893 183.505 54.9576C183.449 55.418 183.39 55.8864 183.326 56.3627C183.271 56.831 183.215 57.2875 183.16 57.732C183.104 58.1765 183.052 58.5734 183.005 58.9227C182.965 59.272 182.933 59.5578 182.909 59.78C182.886 60.0023 182.87 60.1293 182.862 60.1611C182.838 60.3198 182.806 60.5461 182.767 60.8398C182.735 61.1256 182.695 61.4232 182.648 61.7328C182.608 62.0345 182.568 62.3203 182.528 62.5902C182.497 62.8601 182.473 63.0545 182.457 63.1736C182.528 63.0704 182.62 62.9315 182.731 62.7569C182.85 62.5743 182.969 62.3917 183.088 62.2091C183.215 62.0186 183.334 61.84 183.445 61.6733C183.556 61.5066 183.64 61.3836 183.695 61.3042C183.822 61.1137 183.969 60.8993 184.136 60.6612C184.311 60.423 184.493 60.1809 184.684 59.9348C184.874 59.6808 185.073 59.4347 185.279 59.1966C185.485 58.9505 185.684 58.7282 185.874 58.5298C186.12 58.2758 186.398 58.0138 186.708 57.7439C187.017 57.474 187.343 57.2279 187.684 57.0057C188.026 56.7834 188.375 56.6008 188.732 56.4579C189.089 56.315 189.435 56.2436 189.768 56.2436C189.855 56.2436 189.963 56.2634 190.09 56.3031C190.224 56.3428 190.355 56.4024 190.482 56.4817C190.617 56.5532 190.74 56.6445 190.852 56.7556C190.963 56.8667 191.042 56.9938 191.09 57.1366C191.193 57.4224 191.28 57.7717 191.352 58.1845C191.423 58.5893 191.487 59.014 191.542 59.4586C191.606 59.8952 191.669 60.3317 191.733 60.7683C191.796 61.197 191.868 61.586 191.947 61.9353C192.026 62.2766 192.118 62.5544 192.221 62.7688C192.332 62.9831 192.467 63.0903 192.626 63.0903C192.84 63.0903 193.039 63.0823 193.221 63.0664C193.412 63.0506 193.594 63.0228 193.769 62.9831C193.951 62.9434 194.134 62.8918 194.317 62.8283C194.499 62.7648 194.694 62.6814 194.9 62.5782C195.337 62.3639 195.714 62.1615 196.031 61.971C196.349 61.7805 196.646 61.582 196.924 61.3756C197.21 61.1613 197.496 60.9271 197.782 60.6731C198.075 60.4111 198.409 60.1095 198.782 59.7681C199.179 59.403 199.524 59.1093 199.818 58.887C200.119 58.6568 200.338 58.5417 200.473 58.5417C200.568 58.5417 200.643 58.5615 200.699 58.6012C200.762 58.6409 200.81 58.6925 200.842 58.756C200.874 58.8116 200.893 58.8751 200.901 58.9465C200.917 59.018 200.925 59.0815 200.925 59.1371Z" fill="#13130F"/>
<path d="M214.237 61.1851C214.237 61.2883 214.15 61.4431 213.975 61.6495C213.801 61.8559 213.551 62.0583 213.225 62.2568C212.9 62.4552 212.507 62.6298 212.046 62.7807C211.586 62.9315 211.066 63.0069 210.487 63.0069C210.082 63.0069 209.709 62.9712 209.367 62.8997C209.034 62.8283 208.74 62.7529 208.486 62.6735C208.24 62.5862 208.038 62.5108 207.879 62.4473C207.728 62.3758 207.633 62.3401 207.593 62.3401C207.546 62.3401 207.474 62.4115 207.379 62.5544C207.284 62.6973 207.172 62.8839 207.045 63.1141C206.807 63.5348 206.502 63.9515 206.129 64.3643C205.755 64.7771 205.351 65.1582 204.914 65.5074C204.477 65.8567 204.025 66.1623 203.557 66.4243C203.096 66.6862 202.656 66.8728 202.235 66.9839C202.148 67.0077 202.017 67.0316 201.842 67.0554C201.675 67.0871 201.501 67.1149 201.318 67.1387C201.135 67.1705 200.965 67.1943 200.806 67.2102C200.655 67.226 200.548 67.234 200.485 67.234C200 67.234 199.584 67.1228 199.234 66.9006C198.893 66.6783 198.611 66.4005 198.389 66.0671C198.167 65.7337 198.004 65.3764 197.901 64.9954C197.797 64.6064 197.746 64.2453 197.746 63.9119C197.746 63.8484 197.754 63.7134 197.77 63.507C197.786 63.2927 197.813 63.0545 197.853 62.7926C197.893 62.5227 197.94 62.2488 197.996 61.971C198.059 61.6852 198.131 61.4471 198.21 61.2565C198.369 60.9073 198.583 60.4786 198.853 59.9706C199.131 59.4625 199.433 58.9584 199.758 58.4583C199.98 58.1091 200.286 57.7479 200.675 57.3748C201.064 57.0017 201.485 56.6643 201.937 56.3627C202.398 56.0531 202.87 55.7991 203.354 55.6006C203.846 55.4022 204.299 55.3029 204.712 55.3029C204.894 55.3029 205.053 55.3228 205.188 55.3625C205.323 55.4022 205.442 55.4538 205.545 55.5173C205.648 55.5808 205.74 55.6522 205.819 55.7316C205.906 55.811 205.986 55.8943 206.057 55.9816C206.129 56.061 206.196 56.1325 206.26 56.196C206.323 56.2595 206.363 56.2912 206.379 56.2912C206.688 56.3627 206.942 56.5056 207.141 56.7199C207.347 56.9342 207.51 57.1843 207.629 57.47C207.756 57.7479 207.851 58.0416 207.915 58.3512C207.986 58.6528 208.042 58.9307 208.081 59.1847C208.105 59.3514 208.173 59.5379 208.284 59.7443C208.403 59.9428 208.578 60.1333 208.808 60.3159C209.046 60.4905 209.348 60.6413 209.713 60.7683C210.086 60.8874 210.538 60.947 211.07 60.947C211.403 60.947 211.705 60.9311 211.975 60.8993C212.245 60.8676 212.483 60.8358 212.689 60.8041C212.904 60.7644 213.082 60.7287 213.225 60.6969C213.368 60.6652 213.479 60.6493 213.559 60.6493C213.821 60.6493 213.999 60.6969 214.095 60.7922C214.19 60.8795 214.237 61.0105 214.237 61.1851ZM205.581 60.5302C205.581 60.4349 205.557 60.3278 205.509 60.2087C205.47 60.0896 205.418 59.9587 205.355 59.8158C205.291 59.6649 205.224 59.5062 205.152 59.3395C205.081 59.1648 205.017 58.9783 204.962 58.7798C204.906 58.5734 204.866 58.3869 204.843 58.2202C204.827 58.0456 204.807 57.8947 204.783 57.7677C204.759 57.6328 204.728 57.5296 204.688 57.4581C204.648 57.3867 204.581 57.351 204.485 57.351C204.223 57.351 203.934 57.4542 203.616 57.6606C203.307 57.867 202.993 58.1448 202.675 58.4941C202.358 58.8433 202.048 59.2482 201.747 59.7086C201.445 60.1611 201.175 60.6413 200.937 61.1494C200.707 61.6574 200.52 62.1734 200.377 62.6973C200.235 63.2133 200.163 63.7094 200.163 64.1857C200.163 64.3207 200.191 64.4556 200.246 64.5906C200.31 64.7176 200.385 64.8327 200.473 64.9359C200.56 65.0311 200.655 65.1105 200.758 65.174C200.862 65.2375 200.961 65.2693 201.056 65.2693C201.35 65.2693 201.671 65.174 202.021 64.9835C202.37 64.793 202.711 64.5628 203.045 64.2929C203.378 64.0151 203.688 63.7253 203.973 63.4237C204.259 63.122 204.485 62.8601 204.652 62.6378C204.914 62.2964 205.132 61.963 205.307 61.6376C205.49 61.3042 205.581 60.935 205.581 60.5302Z" fill="#13130F"/>
<path d="M219.917 59.7443C219.917 59.5459 219.905 59.3395 219.881 59.1251C219.866 58.9108 219.826 58.7124 219.762 58.5298C219.699 58.3393 219.612 58.1765 219.5 58.0416C219.389 57.8987 219.242 57.8034 219.06 57.7558C218.782 57.6844 218.556 57.609 218.381 57.5296C218.206 57.4423 218.068 57.3629 217.964 57.2914C217.861 57.22 217.79 57.1605 217.75 57.1128C217.71 57.0652 217.683 57.0414 217.667 57.0414C217.603 57.0414 217.512 57.097 217.393 57.2081C217.282 57.3113 217.155 57.4462 217.012 57.6129C216.877 57.7796 216.734 57.9582 216.583 58.1488C216.44 58.3393 216.301 58.5179 216.166 58.6846C216 58.891 215.841 59.0934 215.69 59.2919C215.547 59.4824 215.404 59.6848 215.261 59.8991C215.126 60.1055 214.992 60.3238 214.857 60.554C214.722 60.7842 214.583 61.0382 214.44 61.3161C214.313 61.5701 214.218 61.8837 214.154 62.2568C214.091 62.6219 214.059 62.9672 214.059 63.2927C214.059 63.4276 214.075 63.5665 214.106 63.7094C214.138 63.8444 214.186 63.9674 214.249 64.0786C214.313 64.1897 214.396 64.281 214.499 64.3524C214.603 64.4239 214.73 64.4596 214.88 64.4596C215.246 64.4596 215.551 64.4437 215.797 64.412C216.043 64.3723 216.274 64.3088 216.488 64.2214C216.702 64.1262 216.917 64.0031 217.131 63.8523C217.353 63.6936 217.619 63.4991 217.929 63.2689C218.072 63.1577 218.214 63.0307 218.357 62.8878C218.5 62.737 218.643 62.5782 218.786 62.4115C218.929 62.2369 219.068 62.0583 219.203 61.8757C219.338 61.6852 219.461 61.5026 219.572 61.328C219.635 61.2327 219.687 61.1097 219.727 60.9589C219.774 60.8001 219.81 60.6413 219.834 60.4826C219.866 60.3238 219.885 60.177 219.893 60.042C219.909 59.9071 219.917 59.8118 219.917 59.7562V59.7443ZM229.157 57.0652C229.157 57.2081 229.125 57.3589 229.062 57.5177C229.006 57.6764 228.927 57.8312 228.824 57.9821C228.721 58.1249 228.602 58.2599 228.467 58.3869C228.34 58.5139 228.209 58.6211 228.074 58.7084C227.788 58.8989 227.371 59.0656 226.823 59.2085C226.284 59.3514 225.629 59.4228 224.859 59.4228C224.636 59.4228 224.398 59.407 224.144 59.3752C223.898 59.3434 223.644 59.2998 223.382 59.2442C223.128 59.1887 222.874 59.1212 222.62 59.0418C222.374 58.9545 222.136 58.8592 221.906 58.756C221.953 58.8275 221.993 58.9267 222.025 59.0537C222.057 59.1728 222.076 59.2998 222.084 59.4347C222.1 59.5697 222.108 59.7007 222.108 59.8277C222.116 59.9467 222.12 60.042 222.12 60.1135C222.12 60.6215 222.029 61.1295 221.846 61.6376C221.672 62.1377 221.437 62.6179 221.144 63.0784C220.85 63.5388 220.516 63.9674 220.143 64.3643C219.77 64.7533 219.389 65.0907 219 65.3764C218.691 65.6067 218.345 65.8051 217.964 65.9718C217.591 66.1385 217.194 66.2774 216.774 66.3886C216.361 66.4997 215.932 66.583 215.488 66.6386C215.051 66.6942 214.607 66.722 214.154 66.722C213.781 66.722 213.424 66.6307 213.082 66.4481C212.741 66.2655 212.439 66.0313 212.177 65.7456C211.923 65.4519 211.717 65.1224 211.558 64.7573C211.407 64.3921 211.332 64.0309 211.332 63.6737C211.332 63.0387 211.415 62.4274 211.582 61.84C211.757 61.2526 211.987 60.685 212.273 60.1373C212.558 59.5895 212.892 59.0537 213.273 58.5298C213.654 57.9979 214.055 57.474 214.476 56.958C214.722 56.6564 215.003 56.3627 215.321 56.0769C215.638 55.7911 215.972 55.5371 216.321 55.3148C216.678 55.0846 217.036 54.9021 217.393 54.7671C217.758 54.6322 218.107 54.5647 218.441 54.5647C218.719 54.5647 218.957 54.5964 219.155 54.6599C219.361 54.7234 219.548 54.8147 219.715 54.9338C219.889 55.0449 220.056 55.1839 220.215 55.3506C220.374 55.5173 220.54 55.7038 220.715 55.9102L220.965 56.1841C221.029 56.2476 221.199 56.3428 221.477 56.4698C221.763 56.5968 222.1 56.7239 222.489 56.8509C222.878 56.9699 223.287 57.0771 223.716 57.1724C224.144 57.2676 224.533 57.3153 224.882 57.3153C225.24 57.3153 225.577 57.3113 225.895 57.3033C226.212 57.2954 226.53 57.2676 226.847 57.22C227.173 57.1644 227.51 57.085 227.859 56.9818C228.217 56.8707 228.609 56.7199 229.038 56.5294C229.078 56.6008 229.106 56.6921 229.121 56.8032C229.145 56.9144 229.157 57.0017 229.157 57.0652Z" fill="#13130F"/>
<path d="M233.182 60.6731C233.301 60.5302 233.416 60.3675 233.527 60.1849C233.638 60.0023 233.745 59.8078 233.849 59.6014C233.69 59.4982 233.591 59.3712 233.551 59.2204C233.511 59.0616 233.491 58.9069 233.491 58.756C233.491 58.6766 233.495 58.5814 233.503 58.4703C233.511 58.3591 233.519 58.252 233.527 58.1488C233.543 58.0376 233.555 57.9344 233.563 57.8392C233.571 57.7439 233.575 57.6685 233.575 57.6129C233.575 57.5018 233.543 57.3708 233.48 57.22C233.424 57.0692 233.352 56.9223 233.265 56.7794C233.178 56.6365 233.083 56.5175 232.979 56.4222C232.884 56.319 232.793 56.2674 232.706 56.2674C232.626 56.2674 232.515 56.319 232.372 56.4222C232.229 56.5254 232.067 56.6643 231.884 56.839C231.709 57.0057 231.519 57.2041 231.312 57.4343C231.114 57.6645 230.912 57.9066 230.705 58.1607C230.507 58.4147 230.308 58.6727 230.11 58.9346C229.919 59.1966 229.749 59.4466 229.598 59.6848C229.344 60.0896 229.117 60.4746 228.919 60.8398C228.729 61.197 228.566 61.5145 228.431 61.7924C228.209 62.2607 228.054 62.6656 227.966 63.0069C227.887 63.3403 227.847 63.642 227.847 63.9119C227.847 64.404 227.935 64.6501 228.109 64.6501C228.268 64.6501 228.467 64.6104 228.705 64.531C228.951 64.4437 229.252 64.281 229.61 64.0428C230.356 63.5348 230.943 63.0625 231.372 62.6259C231.824 62.1575 232.194 61.7646 232.479 61.4471C232.773 61.1295 233.007 60.8715 233.182 60.6731ZM243.66 62.5782C243.66 62.6338 243.64 62.7211 243.601 62.8402C243.561 62.9513 243.509 63.0704 243.446 63.1974C243.39 63.3165 243.335 63.4316 243.279 63.5427C243.224 63.6539 243.176 63.7332 243.136 63.7809C242.835 64.2175 242.513 64.6303 242.172 65.0192C241.838 65.4003 241.481 65.7337 241.1 66.0194C240.719 66.3052 240.31 66.5315 239.874 66.6982C239.445 66.8569 238.981 66.9363 238.481 66.9363C238.25 66.9363 238.016 66.8887 237.778 66.7934C237.54 66.6982 237.31 66.5672 237.087 66.4005C236.865 66.2338 236.659 66.0353 236.468 65.8051C236.286 65.5749 236.127 65.3249 235.992 65.055C235.889 64.8406 235.79 64.5945 235.694 64.3167C235.607 64.0309 235.528 63.7293 235.456 63.4118C235.385 63.0863 235.329 62.7529 235.289 62.4115C235.25 62.0623 235.23 61.7209 235.23 61.3875V61.0303C235.055 61.3399 234.845 61.6614 234.599 61.9948C234.361 62.3282 234.103 62.6616 233.825 62.995C233.555 63.3284 233.269 63.6539 232.967 63.9714C232.674 64.2889 232.384 64.5787 232.098 64.8406C231.304 65.563 230.487 66.1068 229.645 66.4719C228.812 66.8291 227.951 67.0077 227.062 67.0077C226.752 67.0077 226.478 66.9284 226.24 66.7696C226.01 66.6108 225.819 66.4084 225.668 66.1623C225.518 65.9083 225.402 65.6344 225.323 65.3407C225.252 65.0391 225.216 64.7493 225.216 64.4715C225.216 64.0984 225.232 63.7809 225.264 63.5189C225.303 63.249 225.355 63.0228 225.418 62.8402C225.752 61.8638 226.129 60.939 226.549 60.0658C226.97 59.1847 227.486 58.3194 228.097 57.47C228.28 57.216 228.482 56.958 228.705 56.6961C228.935 56.4262 229.169 56.1722 229.407 55.934C229.653 55.6879 229.907 55.4617 230.169 55.2553C230.431 55.0489 230.689 54.8782 230.943 54.7433C231.245 54.5845 231.59 54.4496 231.979 54.3384C232.368 54.2273 232.844 54.1717 233.408 54.1717C233.654 54.1717 233.884 54.2392 234.099 54.3742C234.313 54.5012 234.5 54.6718 234.658 54.8862C234.825 55.0926 234.964 55.3307 235.075 55.6006C235.186 55.8705 235.262 56.1483 235.301 56.4341C235.341 56.1325 235.389 55.7832 235.444 55.3863C235.5 54.9894 235.555 54.5686 235.611 54.1241C235.666 53.6796 235.722 53.2231 235.778 52.7548C235.833 52.2864 235.881 51.83 235.92 51.3854C235.976 50.7663 236.04 50.2304 236.111 49.778C236.19 49.3255 236.278 49.0159 236.373 48.8492C236.5 48.6428 236.643 48.488 236.802 48.3848C236.96 48.2816 237.202 48.23 237.528 48.23C237.726 48.23 237.909 48.2538 238.076 48.3015C238.25 48.3491 238.401 48.4166 238.528 48.5039C238.655 48.5833 238.754 48.6785 238.826 48.7897C238.897 48.8929 238.933 49 238.933 49.1112C238.933 49.2144 238.913 49.3731 238.873 49.5875C238.842 49.8018 238.794 50.0836 238.731 50.4329C238.667 50.7821 238.588 51.2029 238.492 51.695C238.405 52.1872 238.302 52.7667 238.183 53.4335C238.175 53.5049 238.155 53.6597 238.123 53.8979C238.092 54.136 238.056 54.3861 238.016 54.648C237.976 54.91 237.937 55.1521 237.897 55.3744C237.865 55.5887 237.845 55.7157 237.838 55.7554C237.75 56.3587 237.683 56.9302 237.635 57.47C237.587 58.0019 237.564 58.5377 237.564 59.0775C237.564 60.0301 237.607 60.8557 237.695 61.5542C237.782 62.2528 237.897 62.8323 238.04 63.2927C238.183 63.7452 238.342 64.0825 238.516 64.3048C238.699 64.5271 238.881 64.6382 239.064 64.6382C239.302 64.6382 239.536 64.6104 239.767 64.5548C239.997 64.4913 240.231 64.3881 240.469 64.2453C240.707 64.0944 240.957 63.9 241.219 63.6618C241.481 63.4237 241.767 63.126 242.077 62.7688C242.259 62.5624 242.434 62.3838 242.6 62.2329C242.775 62.0821 242.981 62.0067 243.22 62.0067C243.41 62.0067 243.529 62.0702 243.577 62.1972C243.632 62.3163 243.66 62.4433 243.66 62.5782Z" fill="#13130F"/>
<path fill-rule="evenodd" clip-rule="evenodd" d="M29.9138 59.4021C32.797 60.355 33.8513 60.8504 34.1053 63.4034C32.7716 71.7995 37.687 72.0027 41.1925 69.8435C44.9144 67.2525 44.7109 62.4519 53.9581 65.3865C59.2546 67.7744 69.8097 64.1039 59.2163 52.3165L63.713 50.1448C67.1424 48.5187 64.742 45.3308 73.0868 47.7823C75.1447 48.6205 85.3565 48.5441 79.7169 38.8654C77.685 36.1091 77.4056 37.5825 80.3271 31.3967C81.3813 29.3515 81.8634 26.4685 79.1453 25.7575C77.1686 20.5888 73.8896 20.0126 77.6974 16.1925C79.6913 13.4108 80.9612 8.45694 73.5053 10.591C69.86 11.3277 67.5104 10.5785 65.5419 8.00017C63.6811 5.78958 62.1819 4.39919 57.9397 4.93295C55.6347 5.52363 55.3301 6.40012 52.7393 3.84701C49.151 -0.0209546 48.1921 3.88509 46.49 4.99007C44.896 5.43484 44.559 4.22141 42.5649 4.72351C41.1168 5.15565 38.8309 5.47272 37.3445 3.38962C31.1713 -2.47907 29.3422 4.11378 28.8848 5.67575L28.4276 8.76221C24.338 9.71467 25.2014 11.6583 23.5883 13.1064C17.4535 9.37172 16.3102 16.9936 16.7291 18.5939L13.414 20.8802C6.13606 20.8928 6.93639 25.5926 6.78386 28.9206C-2.70444 32.8707 1.25873 39.0314 6.09798 39.0571C7.80005 41.3941 7.59702 43.1219 6.97426 44.6967C1.05528 50.0185 4.09104 53.2451 7.27933 53.8037C10.6895 54.0959 10.9186 55.6262 10.9374 57.7669C10.8104 62.5809 13.5224 63.5654 17.5106 60.777L20.9212 57.3857L29.9138 59.4021Z" fill="#13130F"/>
<path d="M29.9138 59.4021C32.797 60.355 33.8513 60.8504 34.1053 63.4034C32.7716 71.7995 37.687 72.0027 41.1925 69.8435C44.9144 67.2525 44.7109 62.4519 53.9581 65.3865C59.2546 67.7744 69.8097 64.1039 59.2163 52.3165L63.713 50.1448C67.1424 48.5187 64.742 45.3308 73.0868 47.7823C75.1447 48.6205 85.3565 48.5441 79.7169 38.8654C77.685 36.1091 77.4056 37.5825 80.3271 31.3967C81.3813 29.3515 81.8634 26.4685 79.1453 25.7575C77.1686 20.5888 73.8896 20.0126 77.6974 16.1925C79.6913 13.4108 80.9612 8.45694 73.5053 10.591C69.86 11.3277 67.5104 10.5785 65.5419 8.00017C63.6811 5.78958 62.1819 4.39919 57.9397 4.93295C55.6347 5.52363 55.3301 6.40012 52.7393 3.84701C49.151 -0.0209546 48.1921 3.88509 46.49 4.99007C44.896 5.43484 44.559 4.22141 42.5649 4.72351C41.1168 5.15565 38.8309 5.47272 37.3445 3.38962C31.1713 -2.47907 29.3422 4.11378 28.8848 5.67575L28.4276 8.76221C24.338 9.71467 25.2014 11.6583 23.5883 13.1064C17.4535 9.37172 16.3102 16.9936 16.7291 18.5939L13.414 20.8802C6.13606 20.8928 6.93639 25.5926 6.78386 28.9206C-2.70444 32.8707 1.25873 39.0314 6.09798 39.0571C7.80005 41.3941 7.59702 43.1219 6.97426 44.6967C1.05528 50.0185 4.09104 53.2451 7.27933 53.8037C10.6895 54.0959 10.9186 55.6262 10.9374 57.7669C10.8104 62.5809 13.5224 63.5654 17.5106 60.777L20.9212 57.3857L29.9138 59.4021Z" stroke="#A2D9F7" stroke-width="0.756" stroke-miterlimit="22.926"/>
<path fill-rule="evenodd" clip-rule="evenodd" d="M22.1447 29.2803C21.2314 30.2777 19.8149 30.2185 19.8735 28.6437L19.7738 26.1775C19.7371 25.4256 19.3772 24.9622 18.4328 24.676L15.6638 24.1292C14.4289 23.8862 13.9752 22.8669 15.2799 22.1497C16.506 21.5289 17.7325 20.9082 18.9587 20.2873C19.6918 19.9222 20.1887 19.5708 20.1842 18.6736C20.2125 17.7139 20.2535 16.6917 20.1945 15.745C20.1869 15.0637 20.3901 14.2443 21.4491 14.9784L24.6668 18.0901C25.4255 18.6429 26.2445 18.7218 27.1616 18.5885L29.624 17.517C30.8927 17.0495 31.6947 17.9927 31.1262 18.8927L29.331 21.2196C28.2198 22.4339 28.738 23.067 29.244 23.7624L31.1243 25.9964C31.507 26.9416 30.8654 27.3686 29.9092 27.1989L27.8013 26.8356C26.1083 26.3998 25.4133 26.158 24.1879 26.941L22.1447 29.2803Z" fill="#FFED00"/>
<path d="M22.1447 29.2803C21.2314 30.2777 19.8149 30.2185 19.8735 28.6437L19.7738 26.1775C19.7371 25.4256 19.3772 24.9622 18.4328 24.676L15.6638 24.1292C14.4289 23.8862 13.9752 22.8669 15.2799 22.1497C16.506 21.5289 17.7325 20.9082 18.9587 20.2873C19.6918 19.9222 20.1887 19.5708 20.1842 18.6736C20.2125 17.7139 20.2535 16.6917 20.1945 15.745C20.1869 15.0637 20.3901 14.2443 21.4491 14.9784L24.6668 18.0901C25.4255 18.6429 26.2445 18.7218 27.1616 18.5885L29.624 17.517C30.8927 17.0495 31.6947 17.9927 31.1262 18.8927L29.331 21.2196C28.2198 22.4339 28.738 23.067 29.244 23.7624L31.1243 25.9964C31.507 26.9416 30.8654 27.3686 29.9092 27.1989L27.8013 26.8356C26.1083 26.3998 25.4133 26.158 24.1879 26.941L22.1447 29.2803Z" stroke="white" stroke-width="2" stroke-miterlimit="22.926"/>
<path fill-rule="evenodd" clip-rule="evenodd" d="M32.4848 8.87359C32.3803 7.59434 32.2762 6.31488 32.1717 5.03543C32.0964 4.37645 32.5502 3.54052 33.5619 4.29139L36.9691 7.44408C37.8601 8.13286 38.6729 8.42985 40.5333 8.00227C41.6625 7.77688 42.7915 7.5517 43.9207 7.32632C44.851 7.27458 44.7825 7.93686 44.3909 8.46235C43.699 9.51331 43.0071 10.5641 42.3152 11.6152C41.6395 12.5453 41.6592 13.172 42.2563 13.9066L44.2733 16.6095C44.8346 17.481 44.3677 17.9217 43.49 17.8432L39.4171 17.0011C38.1441 16.6323 37.5567 16.7531 37.0672 17.158L34.1888 19.9779C32.9157 21.1189 32.1065 20.4915 32.1229 19.6252L32.2501 16.9423C32.1912 16.0122 31.8586 15.1605 30.7225 14.769L27.2565 14.2406C25.9642 13.9991 25.7686 12.6999 27.3155 12.106C28.7384 11.4466 30.1613 10.8559 31.5843 10.1967C32.1191 9.94483 32.5374 9.64432 32.4848 8.87359Z" fill="#FFA910"/>
<path d="M32.4848 8.87359C32.3803 7.59434 32.2762 6.31488 32.1717 5.03543C32.0964 4.37645 32.5502 3.54052 33.5619 4.29139L36.9691 7.44408C37.8601 8.13286 38.6729 8.42985 40.5333 8.00227C41.6625 7.77688 42.7915 7.5517 43.9207 7.32632C44.851 7.27458 44.7825 7.93686 44.3909 8.46235C43.699 9.51331 43.0071 10.5641 42.3152 11.6152C41.6395 12.5453 41.6592 13.172 42.2563 13.9066L44.2733 16.6095C44.8346 17.481 44.3677 17.9217 43.49 17.8432L39.4171 17.0011C38.1441 16.6323 37.5567 16.7531 37.0672 17.158L34.1888 19.9779C32.9157 21.1189 32.1065 20.4915 32.1229 19.6252L32.2501 16.9423C32.1912 16.0122 31.8586 15.1605 30.7225 14.769L27.2565 14.2406C25.9642 13.9991 25.7686 12.6999 27.3155 12.106C28.7384 11.4466 30.1613 10.8559 31.5843 10.1967C32.1191 9.94483 32.5374 9.64432 32.4848 8.87359Z" stroke="white" stroke-width="2" stroke-miterlimit="22.926"/>
<path fill-rule="evenodd" clip-rule="evenodd" d="M50.5466 16.9886C49.8137 17.7889 48.6768 17.7415 48.7238 16.4778L48.6437 14.4982C48.6143 13.8949 48.3254 13.5228 47.5675 13.2932L45.3449 12.8543C44.354 12.6593 43.9897 11.8412 45.037 11.2654C46.0211 10.7674 47.0054 10.2691 47.9895 9.77091C48.5781 9.47784 48.9765 9.19575 48.973 8.47551C48.9958 7.7054 49.0285 6.88499 48.9815 6.12522C48.9753 5.57863 49.1384 4.92069 49.9884 5.50992L52.5709 8.00757C53.1798 8.45088 53.8371 8.51442 54.5733 8.40742L56.5494 7.54728C57.5678 7.17184 58.2113 7.92913 57.7551 8.65143L56.3142 10.5189C55.4226 11.4937 55.8384 12.0018 56.2445 12.5598L57.7537 14.3529C58.0608 15.1112 57.5459 15.4542 56.7785 15.3182L55.0865 15.0266C53.7278 14.6766 53.17 14.4827 52.1863 15.111L50.5466 16.9886Z" fill="#FFED00"/>
<path d="M50.5466 16.9886C49.8137 17.7889 48.6768 17.7415 48.7238 16.4778L48.6437 14.4982C48.6143 13.8949 48.3254 13.5228 47.5675 13.2932L45.3449 12.8543C44.354 12.6593 43.9897 11.8412 45.037 11.2654C46.0211 10.7674 47.0054 10.2691 47.9895 9.77091C48.5781 9.47784 48.9765 9.19575 48.973 8.47551C48.9958 7.7054 49.0285 6.88499 48.9815 6.12522C48.9753 5.57863 49.1384 4.92069 49.9884 5.50992L52.5709 8.00757C53.1798 8.45088 53.8371 8.51442 54.5733 8.40742L56.5494 7.54728C57.5678 7.17184 58.2113 7.92913 57.7551 8.65143L56.3142 10.5189C55.4226 11.4937 55.8384 12.0018 56.2445 12.5598L57.7537 14.3529C58.0608 15.1112 57.5459 15.4542 56.7785 15.3182L55.0865 15.0266C53.7278 14.6766 53.17 14.4827 52.1863 15.111L50.5466 16.9886Z" stroke="white" stroke-width="2" stroke-miterlimit="22.926"/>
<path d="M37.5676 16.2988C23.1873 21.7769 14.3068 33.5085 17.7329 42.5028C21.1588 51.4972 35.5937 54.3475 49.9743 48.87C64.3546 43.3919 73.235 31.6601 69.8089 22.6656C67.5629 16.769 60.5858 13.5132 51.994 13.5132C47.4803 13.5132 42.5206 14.4121 37.5676 16.2988Z" fill="url(#paint0_linear_185_1226)"/>
<path d="M37.5697 16.2989C51.9502 10.821 66.3849 13.6713 69.811 22.6656C73.2371 31.6602 64.3567 43.3918 49.9762 48.87C35.5958 54.3475 21.1609 51.4974 17.7348 42.5029C14.3089 33.5086 23.1891 21.7768 37.5697 16.2989Z" stroke="#393185" stroke-width="1.5" stroke-miterlimit="22.926"/>
<path fill-rule="evenodd" clip-rule="evenodd" d="M60.3006 14.888C60.1595 13.1578 60.0181 11.4273 59.877 9.69712C59.7751 8.80531 60.389 7.67508 61.7572 8.69003L66.3657 12.9547C67.5713 13.8859 68.6701 14.2878 71.1865 13.7095C72.7135 13.4049 74.2409 13.1002 75.7685 12.7956C77.0265 12.7252 76.934 13.6212 76.4039 14.3319C75.4684 15.7533 74.5323 17.1748 73.5964 18.5962C72.6829 19.8541 72.7094 20.702 73.517 21.6953L76.245 25.3513C77.0043 26.5298 76.3729 27.126 75.1855 27.0201L69.6765 25.8811C67.9552 25.3823 67.1607 25.5456 66.4984 26.0931L62.605 29.907C60.8838 31.4505 59.7888 30.6018 59.8107 29.4304L59.9829 25.8015C59.9035 24.5431 59.4535 23.3916 57.917 22.8617L53.2293 22.1471C51.4814 21.8207 51.2165 20.0634 53.3085 19.2601C55.2333 18.3685 57.1581 17.5692 59.0824 16.6776C59.8062 16.3372 60.3716 15.9307 60.3006 14.888Z" fill="#FFA910"/>
<path d="M60.3006 14.888C60.1595 13.1578 60.0181 11.4273 59.877 9.69712C59.7751 8.80531 60.389 7.67508 61.7572 8.69003L66.3657 12.9547C67.5713 13.8859 68.6701 14.2878 71.1865 13.7095C72.7135 13.4049 74.2409 13.1002 75.7685 12.7956C77.0265 12.7252 76.934 13.6212 76.4039 14.3319C75.4684 15.7533 74.5323 17.1748 73.5964 18.5962C72.6829 19.8541 72.7094 20.702 73.517 21.6953L76.245 25.3513C77.0043 26.5298 76.3729 27.126 75.1855 27.0201L69.6765 25.8811C67.9552 25.3823 67.1607 25.5456 66.4984 26.0931L62.605 29.907C60.8838 31.4505 59.7888 30.6018 59.8107 29.4304L59.9829 25.8015C59.9035 24.5431 59.4535 23.3916 57.917 22.8617L53.2293 22.1471C51.4814 21.8207 51.2165 20.0634 53.3085 19.2601C55.2333 18.3685 57.1581 17.5692 59.0824 16.6776C59.8062 16.3372 60.3716 15.9307 60.3006 14.888Z" stroke="white" stroke-width="2" stroke-miterlimit="22.926"/>
<path fill-rule="evenodd" clip-rule="evenodd" d="M17.447 58.6306C16.0432 60.1483 13.8777 60.0469 13.9794 57.6397L13.8461 53.8682C13.7954 52.7187 13.2486 52.0074 11.8073 51.5626L7.57774 50.7051C5.69125 50.3239 5.00558 48.762 7.00589 47.6758C8.88534 46.7358 10.765 45.7966 12.6446 44.8563C13.7689 44.3039 14.5309 43.7704 14.5309 42.3986C14.5816 40.9315 14.6518 39.3693 14.5692 37.9211C14.5628 36.8797 14.8799 35.6284 16.4934 36.7593L21.3891 41.5408C22.545 42.3918 23.7961 42.5191 25.1999 42.3223L28.9725 40.703C30.9157 39.9976 32.1349 41.446 31.2586 42.8175L28.4961 46.3618C26.7878 48.2098 27.5755 49.1813 28.3437 50.2484L31.2013 53.6788C31.7793 55.1265 30.7948 55.7747 29.3341 55.508L26.1141 54.9361C23.5291 54.2567 22.4682 53.8821 20.5888 55.0694L17.447 58.6306Z" fill="#FFED00"/>
<path d="M17.447 58.6306C16.0432 60.1483 13.8777 60.0469 13.9794 57.6397L13.8461 53.8682C13.7954 52.7187 13.2486 52.0074 11.8073 51.5626L7.57774 50.7051C5.69125 50.3239 5.00558 48.762 7.00589 47.6758C8.88534 46.7358 10.765 45.7966 12.6446 44.8563C13.7689 44.3039 14.5309 43.7704 14.5309 42.3986C14.5816 40.9315 14.6518 39.3693 14.5692 37.9211C14.5628 36.8797 14.8799 35.6284 16.4934 36.7593L21.3891 41.5408C22.545 42.3918 23.7961 42.5191 25.1999 42.3223L28.9725 40.703C30.9157 39.9976 32.1349 41.446 31.2586 42.8175L28.4961 46.3618C26.7878 48.2098 27.5755 49.1813 28.3437 50.2484L31.2013 53.6788C31.7793 55.1265 30.7948 55.7747 29.3341 55.508L26.1141 54.9361C23.5291 54.2567 22.4682 53.8821 20.5888 55.0694L17.447 58.6306Z" stroke="white" stroke-width="2" stroke-miterlimit="22.926"/>
<path fill-rule="evenodd" clip-rule="evenodd" d="M64.1622 47.6824C62.6913 49.2889 60.4091 49.1935 60.5035 46.6569L60.3433 42.684C60.2837 41.4731 59.7038 40.7265 58.1828 40.2656L53.7223 39.3846C51.733 38.9932 51.0017 37.3507 53.1039 36.1959C55.0789 35.1956 57.0544 34.1958 59.0295 33.1957C60.211 32.6075 61.0114 32.0411 61.0041 30.596C61.0497 29.05 61.1155 27.4034 61.0209 25.8785C61.0083 24.7812 61.3361 23.4611 63.0417 24.6439L68.2251 29.6562C69.4473 30.5464 70.7664 30.6739 72.244 30.459L76.2104 28.7329C78.2542 27.9796 79.5463 29.4993 78.6303 30.9489L75.7384 34.6975C73.9483 36.6539 74.7832 37.673 75.5985 38.7935L78.6274 42.3922C79.2441 43.9146 78.2103 44.6028 76.6697 44.3296L73.2742 43.7441C70.5471 43.0421 69.4276 42.6528 67.4534 43.914L64.1622 47.6824Z" fill="#FFED00"/>
<path d="M64.1622 47.6824C62.6913 49.2889 60.4091 49.1935 60.5035 46.6569L60.3433 42.684C60.2837 41.4731 59.7038 40.7265 58.1828 40.2656L53.7223 39.3846C51.733 38.9932 51.0017 37.3507 53.1039 36.1959C55.0789 35.1956 57.0544 34.1958 59.0295 33.1957C60.211 32.6075 61.0114 32.0411 61.0041 30.596C61.0497 29.05 61.1155 27.4034 61.0209 25.8785C61.0083 24.7812 61.3361 23.4611 63.0417 24.6439L68.2251 29.6562C69.4473 30.5464 70.7664 30.6739 72.244 30.459L76.2104 28.7329C78.2542 27.9796 79.5463 29.4993 78.6303 30.9489L75.7384 34.6975C73.9483 36.6539 74.7832 37.673 75.5985 38.7935L78.6274 42.3922C79.2441 43.9146 78.2103 44.6028 76.6697 44.3296L73.2742 43.7441C70.5471 43.0421 69.4276 42.6528 67.4534 43.914L64.1622 47.6824Z" stroke="white" stroke-width="2" stroke-miterlimit="22.926"/>
<path fill-rule="evenodd" clip-rule="evenodd" d="M10.8425 29.6032C10.738 28.324 10.6334 27.0441 10.5289 25.7649C10.4538 25.1055 10.9079 24.27 11.9195 25.0208L15.3266 28.1735C16.2178 28.8625 17.0303 29.1595 18.8905 28.7317C20.0199 28.5063 21.1491 28.2814 22.2783 28.056C23.2084 28.004 23.1401 28.6665 22.7481 29.192C22.0562 30.2428 21.3644 31.2937 20.6725 32.3445C19.9971 33.275 20.0166 33.9015 20.6139 34.6358L22.6308 37.339C23.1921 38.2103 22.7256 38.6511 21.8474 38.5729L17.7743 37.7305C16.5015 37.3617 15.9141 37.4828 15.4245 37.8872L12.546 40.7073C11.2734 41.8485 10.4639 41.2208 10.4801 40.3548L10.6074 37.672C10.5484 36.7417 10.2158 35.89 9.07997 35.4984L5.61414 34.9698C4.32185 34.7285 4.12586 33.4296 5.67271 32.8354C7.0958 32.176 8.51868 31.5855 9.94156 30.9262C10.4768 30.6743 10.8946 30.3738 10.8425 29.6032Z" fill="#FFA910"/>
<path d="M10.8425 29.6032C10.738 28.324 10.6334 27.0441 10.5289 25.7649C10.4538 25.1055 10.9079 24.27 11.9195 25.0208L15.3266 28.1735C16.2178 28.8625 17.0303 29.1595 18.8905 28.7317C20.0199 28.5063 21.1491 28.2814 22.2783 28.056C23.2084 28.004 23.1401 28.6665 22.7481 29.192C22.0562 30.2428 21.3644 31.2937 20.6725 32.3445C19.9971 33.275 20.0166 33.9015 20.6139 34.6358L22.6308 37.339C23.1921 38.2103 22.7256 38.6511 21.8474 38.5729L17.7743 37.7305C16.5015 37.3617 15.9141 37.4828 15.4245 37.8872L12.546 40.7073C11.2734 41.8485 10.4639 41.2208 10.4801 40.3548L10.6074 37.672C10.5484 36.7417 10.2158 35.89 9.07997 35.4984L5.61414 34.9698C4.32185 34.7285 4.12586 33.4296 5.67271 32.8354C7.0958 32.176 8.51868 31.5855 9.94156 30.9262C10.4768 30.6743 10.8946 30.3738 10.8425 29.6032Z" stroke="white" stroke-width="2" stroke-miterlimit="22.926"/>
<path fill-rule="evenodd" clip-rule="evenodd" d="M38.1237 45.1123C37.9202 42.6225 37.7172 40.1333 37.5137 37.6435C37.3674 36.3606 38.2505 34.7346 40.2194 36.1952L46.8497 42.3307C48.5837 43.6705 50.1649 44.2488 53.7849 43.4166C55.9824 42.9785 58.1798 42.5399 60.3773 42.102C62.1872 42.0005 62.054 43.2893 61.2919 44.3121C59.9454 46.3572 58.5991 48.402 57.2526 50.4472C55.9381 52.2571 55.976 53.4767 57.1383 54.9058L61.0632 60.166C62.1554 61.8617 61.2472 62.7192 59.5387 62.5666L51.613 60.9281C49.1363 60.2105 47.993 60.4454 47.0405 61.2329L41.4388 66.7204C38.9623 68.9411 37.3871 67.72 37.4187 66.0345L37.6665 60.8136C37.5518 59.0033 36.9044 57.3461 34.6943 56.5841L27.9495 55.5557C25.4347 55.0859 25.0536 52.558 28.0639 51.4023C30.8327 50.1194 33.6021 48.9699 36.3709 47.6869C37.4121 47.1968 38.2257 46.6119 38.1237 45.1123Z" fill="#FFA910"/>
<path d="M38.1237 45.1123C37.9202 42.6225 37.7172 40.1333 37.5137 37.6435C37.3674 36.3606 38.2505 34.7346 40.2194 36.1952L46.8497 42.3307C48.5837 43.6705 50.1649 44.2488 53.7849 43.4166C55.9824 42.9785 58.1798 42.5399 60.3773 42.102C62.1872 42.0005 62.054 43.2893 61.2919 44.3121C59.9454 46.3572 58.5991 48.402 57.2526 50.4472C55.9381 52.2571 55.976 53.4767 57.1383 54.9058L61.0632 60.166C62.1554 61.8617 61.2472 62.7192 59.5387 62.5666L51.613 60.9281C49.1363 60.2105 47.993 60.4454 47.0405 61.2329L41.4388 66.7204C38.9623 68.9411 37.3871 67.72 37.4187 66.0345L37.6665 60.8136C37.5518 59.0033 36.9044 57.3461 34.6943 56.5841L27.9495 55.5557C25.4347 55.0859 25.0536 52.558 28.0639 51.4023C30.8327 50.1194 33.6021 48.9699 36.3709 47.6869C37.4121 47.1968 38.2257 46.6119 38.1237 45.1123Z" stroke="white" stroke-width="2" stroke-miterlimit="22.926"/>
<defs>
<linearGradient id="paint0_linear_185_1226" x1="43.7395" y1="49.6458" x2="43.8487" y2="-9.63252" gradientUnits="userSpaceOnUse">
<stop stop-color="#F9AE51"/>
<stop offset="0.329965" stop-color="#F9AE51"/>
<stop offset="1" stop-color="#FFED63"/>
</linearGradient>
</defs>
</svg>
