<svg width="41" height="41" viewBox="0 0 41 41" fill="none" xmlns="http://www.w3.org/2000/svg">
<path d="M20.4997 34.234C19.9113 33.863 19.1726 33.8243 18.5486 34.1317L8.94121 38.8671C7.41033 39.6216 5.69862 38.2355 6.11837 36.5813L8.75284 26.1992C8.92386 25.525 8.7324 24.8104 8.24712 24.312L0.774711 16.6382C-0.41594 15.4156 0.373391 13.3592 2.07637 13.2473L12.7643 12.5445C13.4584 12.4989 14.0788 12.096 14.4029 11.4804L19.3921 2.00237C20.187 0.492166 22.3866 0.607452 23.0193 2.19249L26.9903 12.1401C27.2482 12.7861 27.8232 13.2517 28.5087 13.3696L39.0646 15.1858C40.7465 15.4751 41.3166 17.6027 40.0047 18.6942L31.7711 25.5449C31.2365 25.9898 30.9713 26.6805 31.071 27.3688L32.6057 37.9695C32.8503 39.6585 31.0031 40.8581 29.5595 39.9477L20.4997 34.234Z" fill="#FFFBEC"/>
</svg>
