<svg width="143" height="42" viewBox="0 0 143 42" fill="none" xmlns="http://www.w3.org/2000/svg">
<path fill-rule="evenodd" clip-rule="evenodd" d="M57.4125 9.34488C54.9845 9.0232 53.277 10.5449 53.0366 10.7641C51.5587 12.1116 50.5968 14.5434 51.4131 15.981C52.0347 17.0758 53.4548 17.1901 53.3914 17.7417C53.3226 18.3413 51.6567 18.1017 50.9079 19.1609C50.1517 20.2304 50.6315 22.198 51.7357 23.3002C52.4723 24.0354 53.3305 24.2275 54.1742 24.4048C56.6545 24.926 60.1368 24.4615 62.0746 22.0647C62.476 21.5683 62.7194 21.1024 62.8527 20.8166C63.2484 22.8733 65.0403 24.1414 66.6372 23.8915C67.7446 23.7182 68.6886 22.8255 69.1207 21.6445C69.4759 22.5939 70.0595 23.6748 71.013 23.8915C72.597 24.2518 73.6481 21.8912 75.5071 22.1176C77.1345 22.3157 77.6012 24.3621 78.9368 24.2463C79.7983 24.1716 80.4288 23.2484 80.829 22.4724C81.2639 23.1051 81.9891 23.9424 82.9578 24.0098C84.227 24.0982 84.6981 22.7803 86.0327 22.8272C87.4519 22.8769 87.8956 24.3355 89.1076 24.2463C89.6697 24.2049 90.4167 23.8259 91.2364 22.3541C91.989 23.4619 92.9303 24.5445 93.72 24.3646C94.8564 24.1057 94.9756 21.4332 95.8487 21.408C96.4525 21.3906 96.4953 22.6677 97.741 23.4185C98.4858 23.8674 99.7825 24.2015 100.816 23.5367C101.791 22.9095 101.968 21.7553 101.999 21.5262C102.107 21.8606 102.463 22.8132 103.418 23.4185C103.591 23.5281 104.437 24.0508 105.31 23.8915C105.845 23.7939 106.69 23.3845 108.858 18.0965C109.281 17.0648 109.725 15.842 109.725 15.842C109.935 15.2825 110.017 15.0517 110.159 14.6668C111.336 11.4748 111.734 10.9701 111.46 10.1727C111.435 10.102 111.146 9.29888 110.395 8.99009C109.629 8.67456 108.837 9.06294 108.503 9.22662C107.15 9.89056 107.3 10.8445 106.493 11.1189C104.98 11.6328 103.495 8.61117 101.525 8.87182C100.544 9.00168 99.8427 9.89316 99.3967 10.6458C97.4323 8.8108 94.8157 8.14756 92.6556 8.99009C91.2764 9.52796 90.4519 10.5359 90.0537 11.1189C89.347 10.4173 88.2067 9.50088 86.624 8.99009C85.5142 8.63198 84.6821 8.63304 84.4953 8.63529C83.9658 8.64156 83.1139 8.65161 82.2482 9.10835C80.9029 9.81806 80.3868 11.1512 80.2377 11.5919C79.6768 10.0853 78.2467 9.09085 76.6897 9.10835C75.293 9.12408 74.0079 9.95182 73.3783 11.2371C72.9619 10.7852 72.3039 10.1771 71.3678 9.69968C70.6827 9.35033 70.018 9.15732 66.0458 8.99009C63.2824 8.87371 62.4572 8.91889 61.5518 9.46315C60.9267 9.83888 60.5086 10.3051 60.2508 10.6458C59.8517 10.2975 58.87 9.53801 57.4125 9.34488Z" fill="#FFA910"/>
<path d="M55.1802 23.209C53.9621 23.209 53.003 22.8907 52.3028 22.2543C51.713 21.725 51.418 21.1138 51.418 20.4211C51.418 20.0662 51.509 19.772 51.6914 19.5383C51.8736 19.3046 52.1253 19.1876 52.4468 19.1876C52.8783 19.1876 53.1948 19.4467 53.3963 19.9648C53.6696 20.6576 54.2883 21.0039 55.2521 21.0039C56.077 21.0039 56.8754 20.7928 57.6476 20.3704C58.4485 19.9368 58.8489 19.4609 58.8489 18.9427C58.8489 18.233 58.5995 17.7656 58.1008 17.5402C57.7459 17.377 57.0337 17.2812 55.9643 17.253C55.1346 17.2305 54.3914 17.0475 53.7343 16.7039C52.8471 16.2364 52.4108 15.5662 52.4251 14.6932C52.4395 13.5949 52.9382 12.5883 53.9214 11.6729C54.9044 10.7578 55.9883 10.3001 57.1729 10.3001C57.6428 10.3001 58.2231 10.4267 58.9138 10.6802C59.7721 10.9957 60.2014 11.359 60.2014 11.7701C60.2014 12.0629 60.115 12.3221 59.9423 12.5473C59.7505 12.8008 59.5035 12.9275 59.2014 12.9275C58.976 12.9275 58.6391 12.8713 58.1908 12.7585C57.7423 12.646 57.403 12.5896 57.1729 12.5896C56.5542 12.5952 55.9667 12.7698 55.4105 13.1134C54.835 13.4626 54.5472 13.8428 54.5472 14.2538C54.5472 14.468 54.6347 14.644 54.8098 14.7819C54.9849 14.92 55.2473 15.0171 55.5975 15.0733C56.2113 15.1128 56.8227 15.1523 57.4319 15.1915C58.4965 15.2874 59.3381 15.6394 59.9567 16.2476C60.6377 16.9235 60.9782 17.8584 60.9782 19.0524C60.9782 20.5056 60.2732 21.6067 58.8634 22.3557C57.789 22.9246 56.5615 23.209 55.1802 23.209Z" fill="#13130F"/>
<path d="M55.1802 23.209C53.9621 23.209 53.003 22.8907 52.3028 22.2543C51.713 21.725 51.418 21.1138 51.418 20.4211C51.418 20.0662 51.509 19.772 51.6914 19.5383C51.8736 19.3046 52.1253 19.1876 52.4468 19.1876C52.8783 19.1876 53.1948 19.4467 53.3963 19.9648C53.6696 20.6576 54.2883 21.0039 55.2521 21.0039C56.077 21.0039 56.8754 20.7928 57.6476 20.3704C58.4485 19.9368 58.8489 19.4609 58.8489 18.9427C58.8489 18.233 58.5995 17.7656 58.1008 17.5402C57.7459 17.377 57.0337 17.2812 55.9643 17.253C55.1346 17.2305 54.3914 17.0475 53.7343 16.7039C52.8471 16.2364 52.4108 15.5662 52.4251 14.6932C52.4395 13.5949 52.9382 12.5883 53.9214 11.6729C54.9044 10.7578 55.9883 10.3001 57.1729 10.3001C57.6428 10.3001 58.2231 10.4267 58.9138 10.6802C59.7721 10.9957 60.2014 11.359 60.2014 11.7701C60.2014 12.0629 60.115 12.3221 59.9423 12.5473C59.7505 12.8008 59.5035 12.9275 59.2014 12.9275C58.976 12.9275 58.6391 12.8713 58.1908 12.7585C57.7423 12.646 57.403 12.5896 57.1729 12.5896C56.5542 12.5952 55.9667 12.7698 55.4105 13.1134C54.835 13.4626 54.5472 13.8428 54.5472 14.2538C54.5472 14.468 54.6347 14.644 54.8098 14.7819C54.9849 14.92 55.2473 15.0171 55.5975 15.0733C56.2113 15.1128 56.8227 15.1523 57.4319 15.1915C58.4965 15.2874 59.3381 15.6394 59.9567 16.2476C60.6377 16.9235 60.9782 17.8584 60.9782 19.0524C60.9782 20.5056 60.2732 21.6067 58.8634 22.3557C57.789 22.9246 56.5615 23.209 55.1802 23.209Z" stroke="white" stroke-miterlimit="22.926"/>
<path d="M70.6122 12.5648C70.2381 12.5648 69.6554 12.5339 68.8642 12.4718C68.1016 12.4098 67.5191 12.3818 67.1161 12.3874C67.1353 13.0294 67.2 14.1728 67.3103 15.8173C67.4111 17.2704 67.4613 18.4194 67.4613 19.2641C67.4613 19.4557 67.4781 19.7402 67.5117 20.1174C67.5452 20.4948 67.5621 20.7794 67.5621 20.9707C67.5621 21.3932 67.4855 21.7734 67.332 22.1113C67.1353 22.5451 66.8548 22.7617 66.4903 22.7617C66.2265 22.7617 65.9939 22.6633 65.7925 22.4661C65.5671 22.2464 65.4545 21.9705 65.4545 21.6382C65.4545 21.5593 65.4663 21.4396 65.4903 21.2791C65.5145 21.1185 65.5264 20.9961 65.5264 20.9116C65.5264 20.6526 65.5108 20.2611 65.4797 19.7373C65.4483 19.2135 65.4329 18.8193 65.4329 18.5545C65.4329 17.7999 65.3825 16.7776 65.2818 15.4878C65.1668 14.0066 65.0996 12.9844 65.0804 12.4212H64.7062C63.6369 12.4212 62.7881 12.3311 62.1597 12.1508C61.6274 11.9987 61.3613 11.6299 61.3613 11.0441C61.3613 10.7568 61.4477 10.4978 61.6203 10.2669C61.8217 9.99094 62.0853 9.867 62.4115 9.89503C62.5793 9.90638 62.9608 9.95416 63.5554 10.0387C64.0302 10.1008 64.4138 10.1317 64.7062 10.1317C64.9988 10.1317 65.4364 10.1261 66.0191 10.1148C66.6018 10.1035 67.0394 10.0979 67.332 10.0979C67.6963 10.0979 68.2431 10.1274 68.9721 10.1866C69.7011 10.2457 70.2477 10.2752 70.6122 10.2752C70.9 10.2752 71.1409 10.3851 71.3351 10.6047C71.5294 10.8244 71.6264 11.0947 71.6264 11.4158C71.6264 11.7368 71.5294 12.0085 71.3351 12.231C71.1409 12.4536 70.9 12.5648 70.6122 12.5648Z" fill="#13130F"/>
<path d="M70.6122 12.5648C70.2381 12.5648 69.6554 12.5339 68.8642 12.4718C68.1016 12.4098 67.5191 12.3818 67.1161 12.3874C67.1353 13.0294 67.2 14.1728 67.3103 15.8173C67.4111 17.2704 67.4613 18.4194 67.4613 19.2641C67.4613 19.4557 67.4781 19.7402 67.5117 20.1174C67.5452 20.4948 67.5621 20.7794 67.5621 20.9707C67.5621 21.3932 67.4855 21.7734 67.332 22.1113C67.1353 22.5451 66.8548 22.7617 66.4903 22.7617C66.2265 22.7617 65.9939 22.6633 65.7925 22.4661C65.5671 22.2464 65.4545 21.9705 65.4545 21.6382C65.4545 21.5593 65.4663 21.4396 65.4903 21.2791C65.5145 21.1185 65.5264 20.9961 65.5264 20.9116C65.5264 20.6526 65.5108 20.2611 65.4797 19.7373C65.4483 19.2135 65.4329 18.8193 65.4329 18.5545C65.4329 17.7999 65.3825 16.7776 65.2818 15.4878C65.1668 14.0066 65.0996 12.9844 65.0804 12.4212H64.7062C63.6369 12.4212 62.7881 12.3311 62.1597 12.1508C61.6274 11.9987 61.3613 11.6299 61.3613 11.0441C61.3613 10.7568 61.4477 10.4978 61.6203 10.2669C61.8217 9.99094 62.0853 9.867 62.4115 9.89503C62.5793 9.90638 62.9608 9.95416 63.5554 10.0387C64.0302 10.1008 64.4138 10.1317 64.7062 10.1317C64.9988 10.1317 65.4364 10.1261 66.0191 10.1148C66.6018 10.1035 67.0394 10.0979 67.332 10.0979C67.6963 10.0979 68.2431 10.1274 68.9721 10.1866C69.7011 10.2457 70.2477 10.2752 70.6122 10.2752C70.9 10.2752 71.1409 10.3851 71.3351 10.6047C71.5294 10.8244 71.6264 11.0947 71.6264 11.4158C71.6264 11.7368 71.5294 12.0085 71.3351 12.231C71.1409 12.4536 70.9 12.5648 70.6122 12.5648Z" stroke="white" stroke-miterlimit="22.926"/>
<path d="M76.076 14.2795C75.702 15.0343 75.1864 16.0621 74.5295 17.3632C74.7452 17.3069 75.0808 17.2617 75.5365 17.228C76.0735 17.1886 76.4117 17.1576 76.5509 17.135C76.4357 16.403 76.2774 15.451 76.076 14.2795ZM78.7591 22.9474C78.3803 22.9305 77.999 22.4067 77.6155 21.376C77.3611 20.7115 77.143 19.9455 76.9608 19.0781C76.6059 19.1402 76.0256 19.2021 75.22 19.2639C74.4622 19.326 73.882 19.3992 73.4792 19.4837C73.2586 20.1033 72.8749 21.0354 72.3282 22.2799C72.1171 22.6856 71.8246 22.8883 71.4507 22.8883C71.1868 22.8883 70.9493 22.7827 70.7384 22.5715C70.5274 22.3602 70.4219 22.0914 70.4219 21.7646C70.4219 21.4774 70.7718 20.5031 71.4722 18.8416C71.405 18.667 71.3762 18.5036 71.3859 18.3516C71.405 18.0813 71.6376 17.87 72.0836 17.718C72.7645 16.3325 73.5223 14.8963 74.3568 13.4093C75.5557 11.2749 76.2942 10.2074 76.5724 10.2074C77.0999 10.2074 77.4524 10.5821 77.6298 11.331C77.7257 11.9338 77.8769 12.8377 78.083 14.043C78.3755 15.665 78.7327 17.5209 79.1548 19.6103C79.1883 19.7681 79.3107 20.1398 79.5217 20.7256C79.6944 21.21 79.7807 21.5733 79.7807 21.8154C79.7807 22.142 79.6764 22.4152 79.4678 22.6348C79.2591 22.8545 79.0229 22.9587 78.7591 22.9474Z" fill="#13130F"/>
<path d="M76.076 14.2795C75.702 15.0343 75.1864 16.0621 74.5295 17.3632C74.7452 17.3069 75.0808 17.2617 75.5365 17.228C76.0735 17.1886 76.4117 17.1576 76.5509 17.135C76.4357 16.403 76.2774 15.451 76.076 14.2795ZM78.7591 22.9474C78.3803 22.9305 77.999 22.4067 77.6155 21.376C77.3611 20.7115 77.143 19.9455 76.9608 19.0781C76.6059 19.1402 76.0256 19.2021 75.22 19.2639C74.4622 19.326 73.882 19.3992 73.4792 19.4837C73.2586 20.1033 72.8749 21.0354 72.3282 22.2799C72.1171 22.6856 71.8246 22.8883 71.4507 22.8883C71.1868 22.8883 70.9493 22.7827 70.7384 22.5715C70.5274 22.3602 70.4219 22.0914 70.4219 21.7646C70.4219 21.4774 70.7718 20.5031 71.4722 18.8416C71.405 18.667 71.3762 18.5036 71.3859 18.3516C71.405 18.0813 71.6376 17.87 72.0836 17.718C72.7645 16.3325 73.5223 14.8963 74.3568 13.4093C75.5557 11.2749 76.2942 10.2074 76.5724 10.2074C77.0999 10.2074 77.4524 10.5821 77.6298 11.331C77.7257 11.9338 77.8769 12.8377 78.083 14.043C78.3755 15.665 78.7327 17.5209 79.1548 19.6103C79.1883 19.7681 79.3107 20.1398 79.5217 20.7256C79.6944 21.21 79.7807 21.5733 79.7807 21.8154C79.7807 22.142 79.6764 22.4152 79.4678 22.6348C79.2591 22.8545 79.0229 22.9587 78.7591 22.9474Z" stroke="white" stroke-miterlimit="22.926"/>
<path d="M84.7411 12.1681C84.7026 12.1626 84.4221 12.14 83.8995 12.1005V16.5865C84.0192 16.5922 84.1248 16.595 84.216 16.595C85.3908 16.595 86.2613 16.4232 86.8273 16.0796C87.0719 15.9332 87.296 15.7389 87.4997 15.4967C87.7036 15.2546 87.8056 15.0715 87.8056 14.9476C87.8056 14.3169 87.465 13.7085 86.784 13.1228C86.1366 12.5708 85.4556 12.2526 84.7411 12.1681ZM89.3521 22.796C89.0932 22.796 88.8558 22.6777 88.6401 22.4411C87.1869 20.8417 85.59 19.7321 83.8491 19.1125C83.9018 20.7515 83.9282 21.6612 83.9282 21.8413C83.9282 22.1624 83.8322 22.4341 83.6405 22.6566C83.4486 22.8789 83.209 22.9902 82.9211 22.9902C82.6335 22.9902 82.3935 22.8789 82.2018 22.6566C82.0099 22.4341 81.9141 22.1624 81.9141 21.8413C81.9141 21.419 81.9188 20.7867 81.9285 19.9447C81.9381 19.1027 81.9428 18.4705 81.9428 18.048L81.9572 11.2304C81.9572 10.8644 82.0508 10.532 82.2378 10.2334C82.4823 9.85047 82.8204 9.67875 83.252 9.71813C84.4174 9.81948 85.0145 9.87306 85.0432 9.87861C85.7145 9.97441 86.2853 10.163 86.7553 10.4446C88.803 11.6557 89.827 13.1565 89.827 14.9476C89.827 15.6854 89.6122 16.3373 89.1831 16.9033C88.7538 17.4694 88.11 17.9467 87.2517 18.3353C88.5225 19.169 89.4792 20.0194 90.1218 20.8866C90.2896 21.1119 90.3736 21.3627 90.3736 21.6386C90.3736 21.9541 90.2728 22.2256 90.0714 22.4539C89.87 22.6819 89.6303 22.796 89.3521 22.796Z" fill="#13130F"/>
<path d="M84.7411 12.1681C84.7026 12.1626 84.4221 12.14 83.8995 12.1005V16.5865C84.0192 16.5922 84.1248 16.595 84.216 16.595C85.3908 16.595 86.2613 16.4232 86.8273 16.0796C87.0719 15.9332 87.296 15.7389 87.4997 15.4967C87.7036 15.2546 87.8056 15.0715 87.8056 14.9476C87.8056 14.3169 87.465 13.7085 86.784 13.1228C86.1366 12.5708 85.4556 12.2526 84.7411 12.1681ZM89.3521 22.796C89.0932 22.796 88.8558 22.6777 88.6401 22.4411C87.1869 20.8417 85.59 19.7321 83.8491 19.1125C83.9018 20.7515 83.9282 21.6612 83.9282 21.8413C83.9282 22.1624 83.8322 22.4341 83.6405 22.6566C83.4486 22.8789 83.209 22.9902 82.9211 22.9902C82.6335 22.9902 82.3935 22.8789 82.2018 22.6566C82.0099 22.4341 81.9141 22.1624 81.9141 21.8413C81.9141 21.419 81.9188 20.7867 81.9285 19.9447C81.9381 19.1027 81.9428 18.4705 81.9428 18.048L81.9572 11.2304C81.9572 10.8644 82.0508 10.532 82.2378 10.2334C82.4823 9.85047 82.8204 9.67875 83.252 9.71813C84.4174 9.81948 85.0145 9.87306 85.0432 9.87861C85.7145 9.97441 86.2853 10.163 86.7553 10.4446C88.803 11.6557 89.827 13.1565 89.827 14.9476C89.827 15.6854 89.6122 16.3373 89.1831 16.9033C88.7538 17.4694 88.11 17.9467 87.2517 18.3353C88.5225 19.169 89.4792 20.0194 90.1218 20.8866C90.2896 21.1119 90.3736 21.3627 90.3736 21.6386C90.3736 21.9541 90.2728 22.2256 90.0714 22.4539C89.87 22.6819 89.6303 22.796 89.3521 22.796Z" stroke="white" stroke-miterlimit="22.926"/>
<path d="M94.9989 12.1681C94.9605 12.1626 94.6799 12.14 94.1573 12.1005V16.5865C94.277 16.5922 94.3826 16.595 94.4738 16.595C95.6486 16.595 96.5191 16.4232 97.0851 16.0796C97.3297 15.9332 97.5538 15.7389 97.7576 15.4967C97.9614 15.2546 98.0634 15.0715 98.0634 14.9476C98.0634 14.3169 97.7228 13.7085 97.0418 13.1228C96.3944 12.5708 95.7135 12.2526 94.9989 12.1681ZM99.6099 22.796C99.3511 22.796 99.1136 22.6777 98.8979 22.4411C97.4447 20.8417 95.8478 19.7321 94.1069 19.1125C94.1596 20.7515 94.1861 21.6612 94.1861 21.8413C94.1861 22.1624 94.09 22.4341 93.8983 22.6566C93.7064 22.8789 93.4668 22.9902 93.1789 22.9902C92.8913 22.9902 92.6513 22.8789 92.4596 22.6566C92.2677 22.4341 92.1719 22.1624 92.1719 21.8413C92.1719 21.419 92.1766 20.7867 92.1863 19.9447C92.1959 19.1027 92.2006 18.4705 92.2006 18.048L92.215 11.2304C92.215 10.8644 92.3086 10.532 92.4956 10.2334C92.7401 9.85047 93.0783 9.67875 93.5098 9.71813C94.6752 9.81948 95.2723 9.87306 95.3011 9.87861C95.9723 9.97441 96.5431 10.163 97.0131 10.4446C99.0608 11.6557 100.085 13.1565 100.085 14.9476C100.085 15.6854 99.87 16.3373 99.4409 16.9033C99.0116 17.4694 98.3678 17.9467 97.5096 18.3353C98.7803 19.169 99.737 20.0194 100.38 20.8866C100.547 21.1119 100.631 21.3627 100.631 21.6386C100.631 21.9541 100.531 22.2256 100.329 22.4539C100.128 22.6819 99.8881 22.796 99.6099 22.796Z" fill="#13130F"/>
<path d="M94.9989 12.1681C94.9605 12.1626 94.6799 12.14 94.1573 12.1005V16.5865C94.277 16.5922 94.3826 16.595 94.4738 16.595C95.6486 16.595 96.5191 16.4232 97.0851 16.0796C97.3297 15.9332 97.5538 15.7389 97.7576 15.4967C97.9614 15.2546 98.0634 15.0715 98.0634 14.9476C98.0634 14.3169 97.7228 13.7085 97.0418 13.1228C96.3944 12.5708 95.7135 12.2526 94.9989 12.1681ZM99.6099 22.796C99.3511 22.796 99.1136 22.6777 98.8979 22.4411C97.4447 20.8417 95.8478 19.7321 94.1069 19.1125C94.1596 20.7515 94.1861 21.6612 94.1861 21.8413C94.1861 22.1624 94.09 22.4341 93.8983 22.6566C93.7064 22.8789 93.4668 22.9902 93.1789 22.9902C92.8913 22.9902 92.6513 22.8789 92.4596 22.6566C92.2677 22.4341 92.1719 22.1624 92.1719 21.8413C92.1719 21.419 92.1766 20.7867 92.1863 19.9447C92.1959 19.1027 92.2006 18.4705 92.2006 18.048L92.215 11.2304C92.215 10.8644 92.3086 10.532 92.4956 10.2334C92.7401 9.85047 93.0783 9.67875 93.5098 9.71813C94.6752 9.81948 95.2723 9.87306 95.3011 9.87861C95.9723 9.97441 96.5431 10.163 97.0131 10.4446C99.0608 11.6557 100.085 13.1565 100.085 14.9476C100.085 15.6854 99.87 16.3373 99.4409 16.9033C99.0116 17.4694 98.3678 17.9467 97.5096 18.3353C98.7803 19.169 99.737 20.0194 100.38 20.8866C100.547 21.1119 100.631 21.3627 100.631 21.6386C100.631 21.9541 100.531 22.2256 100.329 22.4539C100.128 22.6819 99.8881 22.796 99.6099 22.796Z" stroke="white" stroke-miterlimit="22.926"/>
<path d="M109.861 12.2676C109.617 12.859 109.125 14.1376 108.387 16.1032C107.773 17.7478 107.25 19.0376 106.818 19.9724C106.07 21.5945 105.67 22.4535 105.617 22.5492C105.334 23.0391 105.008 23.2842 104.639 23.2842C104.375 23.2842 104.142 23.1827 103.941 22.98C103.72 22.7547 103.61 22.4761 103.61 22.1436C103.61 21.8677 104.111 20.7074 105.114 18.663C104.744 18.0378 104.214 17.0888 103.524 15.8158C103.006 14.8811 102.246 13.4702 101.244 11.5833C101.148 11.3919 101.1 11.1919 101.1 10.9835C101.1 10.657 101.207 10.3809 101.423 10.1556C101.625 9.94726 101.86 9.84307 102.128 9.84307C102.445 9.84307 102.733 10.0317 102.992 10.4091L103.531 11.4227C103.564 11.4904 103.977 12.3128 104.768 13.8896C105.267 14.898 105.708 15.6948 106.092 16.2806C106.456 15.4188 106.981 14.1151 107.667 12.369C107.811 11.9804 108.027 11.3919 108.315 10.6033C108.497 10.0965 108.809 9.84307 109.25 9.84307C109.514 9.84307 109.746 9.9443 109.948 10.1471C110.168 10.3667 110.278 10.6428 110.278 10.9751C110.278 11.1666 110.139 11.5974 109.861 12.2676Z" fill="#13130F"/>
<path d="M109.861 12.2676C109.617 12.859 109.125 14.1376 108.387 16.1032C107.773 17.7478 107.25 19.0376 106.818 19.9724C106.07 21.5945 105.67 22.4535 105.617 22.5492C105.334 23.0391 105.008 23.2842 104.639 23.2842C104.375 23.2842 104.142 23.1827 103.941 22.98C103.72 22.7547 103.61 22.4761 103.61 22.1436C103.61 21.8677 104.111 20.7074 105.114 18.663C104.744 18.0378 104.214 17.0888 103.524 15.8158C103.006 14.8811 102.246 13.4702 101.244 11.5833C101.148 11.3919 101.1 11.1919 101.1 10.9835C101.1 10.657 101.207 10.3809 101.423 10.1556C101.625 9.94726 101.86 9.84307 102.128 9.84307C102.445 9.84307 102.733 10.0317 102.992 10.4091L103.531 11.4227C103.564 11.4904 103.977 12.3128 104.768 13.8896C105.267 14.898 105.708 15.6948 106.092 16.2806C106.456 15.4188 106.981 14.1151 107.667 12.369C107.811 11.9804 108.027 11.3919 108.315 10.6033C108.497 10.0965 108.809 9.84307 109.25 9.84307C109.514 9.84307 109.746 9.9443 109.948 10.1471C110.168 10.3667 110.278 10.6428 110.278 10.9751C110.278 11.1666 110.139 11.5974 109.861 12.2676Z" stroke="white" stroke-miterlimit="22.926"/>
<path fill-rule="evenodd" clip-rule="evenodd" d="M65.9916 29.3358C64.2146 29.0632 62.319 31.2133 61.5513 33.0003C61.2072 33.8015 60.5397 35.3553 61.3148 36.6665C61.9783 37.7888 63.4301 38.2269 64.508 38.2039C66.4247 38.1633 67.2147 36.6582 68.2925 37.1396C69.077 37.49 69.0391 38.4574 70.0665 38.7953C70.6646 38.9921 71.213 38.8402 71.3674 38.7953C73.2554 38.2463 73.3755 35.416 74.4423 35.3656C75.3068 35.3248 75.516 37.1702 76.8076 37.6126C78.0891 38.0515 79.6541 36.8418 80.7103 35.8386C80.7488 36.0838 80.9612 37.277 82.0113 37.9674C83.2434 38.7775 84.6474 38.2504 85.0862 38.0857C86.6249 37.5081 87.2948 36.1744 87.4515 35.8386C87.6314 36.9981 88.5463 37.9112 89.6985 38.0857C90.8731 38.2635 92.0367 37.635 92.5369 36.5482C92.7531 37.7091 93.2984 38.0929 93.483 38.2039C94.6152 38.885 96.794 38.1026 98.4502 35.8386C98.4825 35.9972 98.6973 36.9788 99.5146 37.3761C100.45 37.8306 101.849 37.3622 102.589 36.0752C102.598 36.1853 102.81 38.6247 104.009 38.9135C104.208 38.9614 104.456 38.9555 104.837 38.7953C106.846 37.9494 107.134 35.0819 107.911 35.129C108.462 35.1624 108.379 36.6048 109.331 37.2578C110.341 37.9511 111.971 37.3807 113.352 36.6665C113.576 36.9469 114.628 38.2031 116.308 38.3222C118.176 38.4547 120.059 37.1277 120.802 35.0108C120.874 35.3316 121.294 37.0868 122.813 37.8491C124.567 38.7296 127.138 37.9594 128.608 35.7204C128.661 35.8774 129.287 37.6311 130.973 38.0857C132.557 38.5126 134.407 37.6136 135.231 35.8386C136 37.1144 136.852 37.3271 137.123 37.3761C138.118 37.5561 139.048 36.7471 140.907 35.129C142.207 33.9988 142.503 33.4636 142.563 32.882C142.572 32.7958 142.673 31.7005 142.09 31.3445C141.056 30.7127 139.066 33.1412 138.306 32.6455C137.381 32.042 139.867 28.1419 138.306 26.2591C137.899 25.7684 137.209 25.4053 136.65 25.5495C135.786 25.7727 135.182 27.223 135.349 29.2158C134.814 29.1448 134.012 29.1033 133.102 29.334C131.632 29.7069 131.529 30.3735 130.5 30.6349C128.53 31.1358 127.598 29.0199 125.296 29.334C123.948 29.5182 124.081 30.2702 122.695 30.5167C120.308 30.941 119.448 28.7947 117.373 29.2158C115.994 29.4953 114.806 30.7595 113.588 32.0541C112.671 33.029 112.249 33.7055 111.814 33.5916C111.009 33.3805 111.592 30.8093 110.513 30.1619C109.949 29.8231 108.824 29.9485 106.374 31.9359C107.476 29.0707 107.319 26.7644 106.256 26.1409C105.741 25.8392 104.93 25.8821 104.363 26.2591C102.832 27.2789 104.036 30.1165 102.116 32.1724C101.932 32.3704 101.447 32.8894 101.17 32.7637C100.382 32.4053 102.765 27.4812 101.17 26.1409C100.648 25.7017 99.8064 25.7384 99.278 26.0226C98.3576 26.5178 97.9362 28.0072 98.4502 29.6888C96.9467 28.9714 95.99 29.0701 95.3753 29.334C93.4046 30.1805 93.4197 33.3838 91.4725 33.7099C91.2116 33.7535 90.8134 33.8202 90.5264 33.5916C89.3293 32.6382 92.4236 28.4249 90.9994 26.7322C90.4294 26.0545 89.1643 25.8335 88.3976 26.2591C87.0044 27.0325 88.0183 29.5192 86.1506 32.4089C85.6505 33.1827 84.7816 34.2363 84.3766 34.0647C84.1571 33.9716 84.1034 33.531 84.2583 31.9359C84.5935 28.4856 85.1712 27.1844 84.4948 26.4957C84.1169 26.1106 83.4517 26.0266 82.9574 26.1409C80.6399 26.6767 80.7393 32.1382 79.1729 32.2907C78.1614 32.3891 77.7668 30.1459 75.9797 29.9254C74.7032 29.7678 73.9912 30.7892 73.3779 30.3984C72.471 29.8206 73.6976 27.2204 72.6683 26.4957C72.2503 26.2014 71.6185 26.3277 71.2491 26.4957C69.407 27.3335 70.0377 31.0528 68.8838 31.3445C68.0345 31.5593 67.5636 29.5769 65.9916 29.3358Z" fill="#FFA910"/>
<path d="M71.1314 32.6355C71.1314 32.7036 71.1088 32.8034 71.0634 32.9349C71.0226 33.0619 70.9659 33.2048 70.8933 33.3636C70.8207 33.5178 70.7345 33.6788 70.6347 33.8467C70.5395 34.0145 70.4397 34.171 70.3354 34.3162C70.0314 34.7289 69.7321 35.1054 69.4372 35.4456C69.1424 35.7813 68.8453 36.0875 68.5459 36.3642C68.251 36.6409 67.9494 36.8927 67.6409 37.1195C67.3325 37.3463 67.0149 37.5572 66.6883 37.7522C66.3527 37.9518 65.9807 38.1038 65.5725 38.2081C65.1688 38.3124 64.7197 38.3646 64.2253 38.3646C63.9576 38.3646 63.7104 38.3238 63.4836 38.2421C63.2568 38.1605 63.0617 38.0357 62.8984 37.8679C62.7351 37.6955 62.6081 37.4778 62.5174 37.2147C62.4267 36.9516 62.3813 36.6409 62.3813 36.2825C62.3813 36.092 62.4085 35.8788 62.463 35.643C62.5174 35.4025 62.5923 35.1531 62.6875 34.8945C62.7828 34.6314 62.8939 34.3661 63.0209 34.0984C63.1525 33.8263 63.2931 33.5677 63.4428 33.3228C63.597 33.0778 63.7558 32.851 63.9191 32.6423C64.0869 32.4337 64.2547 32.2568 64.4226 32.1116C64.5178 32.03 64.638 31.9529 64.7832 31.8803C64.9283 31.8032 65.078 31.7351 65.2323 31.6762C65.391 31.6172 65.5453 31.5718 65.6949 31.5401C65.8492 31.5038 65.983 31.4856 66.0964 31.4856C66.2642 31.4856 66.4275 31.5174 66.5863 31.5809C66.7451 31.6444 66.8857 31.726 67.0081 31.8258C67.1306 31.9211 67.2281 32.0322 67.3007 32.1592C67.3778 32.2817 67.4164 32.4042 67.4164 32.5267C67.4164 32.6219 67.396 32.724 67.3552 32.8329C67.3143 32.9372 67.2599 33.0347 67.1919 33.1254C67.1238 33.2116 67.0467 33.2842 66.9605 33.3432C66.8789 33.4021 66.7927 33.4316 66.702 33.4316C66.6294 33.4316 66.5545 33.4044 66.4774 33.35C66.4003 33.291 66.3323 33.2093 66.2733 33.105C66.2234 33.0234 66.1735 32.9463 66.1236 32.8737C66.0737 32.8011 66.0238 32.7648 65.9739 32.7648C65.8015 32.7648 65.6292 32.8306 65.4568 32.9621C65.289 33.0891 65.1279 33.2547 64.9737 33.4588C64.8195 33.663 64.6766 33.8943 64.545 34.1529C64.418 34.4069 64.3046 34.6632 64.2048 34.9217C64.1096 35.1757 64.0347 35.4184 63.9803 35.6498C63.9259 35.8766 63.8987 36.0648 63.8987 36.2145C63.8987 36.3551 63.9236 36.4753 63.9735 36.5751C64.0279 36.6749 64.096 36.7566 64.1776 36.8201C64.2593 36.8836 64.35 36.9289 64.4498 36.9562C64.5496 36.9834 64.6494 36.997 64.7492 36.997C64.8853 36.997 65.0395 36.9766 65.2119 36.9357C65.3888 36.8949 65.5679 36.8428 65.7494 36.7793C65.9308 36.7112 66.1055 36.6364 66.2733 36.5547C66.4457 36.4685 66.5954 36.3823 66.7224 36.2962C67.058 36.0648 67.3982 35.8017 67.743 35.5069C68.0923 35.2075 68.4257 34.8922 68.7432 34.5611C69.0653 34.23 69.3624 33.892 69.6345 33.5473C69.9067 33.2025 70.1335 32.8714 70.315 32.5539C70.3649 32.4632 70.4306 32.3997 70.5123 32.3634C70.5939 32.3225 70.6778 32.3021 70.764 32.3021C70.8457 32.3021 70.9273 32.3339 71.009 32.3974C71.0906 32.4609 71.1314 32.5403 71.1314 32.6355Z" fill="#13130F"/>
<path d="M81.7187 33.4452C81.7187 33.5133 81.6847 33.6108 81.6166 33.7378C81.5486 33.8648 81.4601 34.0032 81.3513 34.1529C81.2424 34.3025 81.1199 34.459 80.9838 34.6223C80.8478 34.7811 80.7139 34.9285 80.5824 35.0646C80.3329 35.3186 80.0653 35.5863 79.7795 35.8675C79.4983 36.1442 79.1989 36.3982 78.8814 36.6296C78.5684 36.8609 78.2395 37.0514 77.8948 37.2011C77.55 37.3508 77.1917 37.4256 76.8197 37.4256C76.5249 37.4256 76.2708 37.3712 76.0576 37.2623C75.8444 37.1489 75.6653 36.9811 75.5201 36.7588C75.375 36.5366 75.2593 36.2621 75.1731 35.9355C75.0869 35.6089 75.0234 35.2302 74.9826 34.7992C74.969 34.6314 74.9531 34.4795 74.935 34.3434C74.9214 34.2028 74.9055 34.0825 74.8873 33.9828C74.8692 33.883 74.8465 33.8058 74.8193 33.7514C74.7966 33.697 74.7671 33.6698 74.7308 33.6698C74.6038 33.6698 74.4337 33.7673 74.2205 33.9623C74.0073 34.1574 73.7601 34.425 73.4789 34.7652C73.2022 35.1054 72.8983 35.5091 72.5671 35.9764C72.2405 36.439 71.898 36.9426 71.5397 37.4869C71.5079 37.5322 71.4467 37.6048 71.356 37.7046C71.2698 37.7999 71.1723 37.8974 71.0634 37.9972C70.9591 38.0924 70.8525 38.1764 70.7436 38.2489C70.6347 38.3215 70.5463 38.3578 70.4783 38.3578C70.3603 38.3578 70.2424 38.3465 70.1244 38.3238C70.011 38.3011 69.909 38.2648 69.8183 38.2149C69.7321 38.165 69.6618 38.1015 69.6073 38.0244C69.5529 37.9428 69.5257 37.843 69.5257 37.725C69.5257 37.6661 69.5347 37.5776 69.5529 37.4597C69.571 37.3372 69.5914 37.2102 69.6141 37.0786C69.6413 36.9426 69.6663 36.811 69.689 36.684C69.7162 36.557 69.7389 36.4595 69.757 36.3914C69.7661 36.3506 69.782 36.2644 69.8046 36.1329C69.8273 36.0013 69.8545 35.8403 69.8863 35.6498C69.918 35.4547 69.9543 35.2392 69.9952 35.0034C70.036 34.7675 70.0768 34.5271 70.1176 34.2821C70.1585 34.0372 70.1993 33.7945 70.2401 33.5541C70.2809 33.3091 70.3172 33.0846 70.349 32.8805C70.3853 32.6764 70.4147 32.4995 70.4374 32.3498C70.4646 32.1955 70.4828 32.0844 70.4919 32.0164C70.4964 31.9755 70.51 31.8803 70.5327 31.7306C70.5554 31.5764 70.5803 31.3949 70.6075 31.1863C70.6347 30.9776 70.6642 30.7553 70.696 30.5194C70.7323 30.2836 70.764 30.0636 70.7912 29.8594C70.8185 29.6508 70.8411 29.4693 70.8593 29.3151C70.882 29.1609 70.8956 29.0634 70.9001 29.0225C70.9137 28.9001 70.9455 28.7662 70.9954 28.6211C71.0453 28.4759 71.1088 28.3421 71.1859 28.2196C71.263 28.0926 71.3492 27.986 71.4444 27.8999C71.5442 27.8137 71.6486 27.7706 71.7574 27.7706C71.8527 27.7706 71.9547 27.791 72.0636 27.8318C72.177 27.8681 72.2791 27.9271 72.3698 28.0087C72.4651 28.0904 72.5444 28.1947 72.6079 28.3217C72.6715 28.4487 72.7032 28.6007 72.7032 28.7776C72.7032 28.9046 72.6919 29.0588 72.6692 29.2403C72.6465 29.4217 72.617 29.6145 72.5807 29.8186C72.549 30.0227 72.5104 30.2314 72.4651 30.4446C72.4242 30.6578 72.3834 30.8619 72.3426 31.057C72.3018 31.2475 72.2609 31.4244 72.2201 31.5877C72.1838 31.7465 72.1543 31.8735 72.1317 31.9687C72.0954 32.123 72.0568 32.2817 72.016 32.445C71.9752 32.6038 71.9389 32.7489 71.9071 32.8805C71.889 32.9531 71.8618 33.0574 71.8255 33.1935C71.7892 33.3296 71.7484 33.4861 71.703 33.663C71.6576 33.8399 71.6077 34.0304 71.5533 34.2345C71.5034 34.4386 71.4512 34.645 71.3968 34.8537C71.3469 35.0578 71.297 35.2574 71.2471 35.4524C71.2018 35.6475 71.1632 35.8244 71.1314 35.9832C71.2947 35.7291 71.4717 35.4615 71.6622 35.1803C71.8572 34.8945 72.0523 34.6155 72.2473 34.3434C72.4424 34.0712 72.6306 33.8195 72.8121 33.5881C72.998 33.3522 73.1636 33.1595 73.3088 33.0098C73.463 32.851 73.624 32.7081 73.7919 32.5811C73.9597 32.4496 74.1275 32.3407 74.2954 32.2545C74.4677 32.1638 74.6356 32.0957 74.7989 32.0504C74.9667 32.0005 75.1232 31.9755 75.2684 31.9755C75.3455 31.9755 75.4271 31.9914 75.5133 32.0232C75.5995 32.0549 75.6811 32.098 75.7583 32.1524C75.8399 32.2069 75.9125 32.2726 75.976 32.3498C76.044 32.4269 76.0939 32.5131 76.1257 32.6083C76.2164 32.8533 76.2822 33.1028 76.323 33.3568C76.3684 33.6108 76.4047 33.8603 76.4319 34.1052C76.4546 34.3366 76.484 34.5656 76.5203 34.7924C76.5566 35.0147 76.5974 35.2143 76.6428 35.3912C76.6927 35.5681 76.7449 35.711 76.7993 35.8199C76.8537 35.9287 76.9127 35.9832 76.9762 35.9832C77.1803 35.9832 77.3958 35.9401 77.6226 35.8539C77.8539 35.7677 78.0807 35.6611 78.303 35.5341C78.5253 35.4025 78.7385 35.2619 78.9426 35.1122C79.1467 34.958 79.3259 34.8129 79.4801 34.6768C80.0199 34.2005 80.4531 33.8195 80.7797 33.5337C81.1063 33.2479 81.3308 33.1028 81.4533 33.0982C81.5395 33.0982 81.6053 33.13 81.6506 33.1935C81.696 33.257 81.7187 33.3409 81.7187 33.4452Z" fill="#13130F"/>
<path d="M84.624 29.0293C84.624 29.1065 84.6059 29.1994 84.5696 29.3083C84.5379 29.4126 84.4948 29.5238 84.4403 29.6417C84.3859 29.7551 84.3247 29.8708 84.2566 29.9887C84.1886 30.1021 84.1183 30.2042 84.0457 30.2949C83.9731 30.3856 83.9051 30.4605 83.8416 30.5194C83.7781 30.5739 83.7214 30.6011 83.6715 30.6011C83.6034 30.6011 83.515 30.5898 83.4061 30.5671C83.2972 30.5444 83.1884 30.5104 83.0795 30.465C82.9752 30.4151 82.8845 30.3561 82.8073 30.2881C82.7302 30.2201 82.6917 30.1407 82.6917 30.05C82.6917 29.9819 82.7007 29.923 82.7189 29.8731C82.7416 29.8232 82.7642 29.7733 82.7869 29.7234C82.8141 29.6689 82.8368 29.61 82.855 29.5465C82.8777 29.483 82.889 29.4036 82.889 29.3083C82.889 29.1904 82.9071 29.0792 82.9434 28.9749C82.9797 28.866 83.0319 28.7731 83.0999 28.6959C83.168 28.6143 83.2496 28.5508 83.3449 28.5054C83.4401 28.4555 83.549 28.4306 83.6715 28.4306C83.7304 28.4306 83.8121 28.4351 83.9164 28.4442C84.0253 28.4487 84.1319 28.4691 84.2362 28.5054C84.3405 28.5417 84.4313 28.6007 84.5084 28.6823C84.5855 28.764 84.624 28.8797 84.624 29.0293ZM88.0874 34.738C88.042 34.8333 87.9649 34.9557 87.856 35.1054C87.7471 35.2506 87.6247 35.4071 87.4886 35.5749C87.3525 35.7428 87.2096 35.9129 87.0599 36.0852C86.9148 36.2531 86.7787 36.405 86.6517 36.5411C86.2344 36.9902 85.8397 37.3803 85.4678 37.7114C85.1003 38.0426 84.7488 38.317 84.4131 38.5347C84.082 38.7525 83.7667 38.9135 83.4673 39.0178C83.168 39.1221 82.8799 39.1743 82.6032 39.1743C82.3401 39.1743 82.1065 39.1221 81.9024 39.0178C81.7028 38.918 81.535 38.7797 81.3989 38.6028C81.2628 38.4259 81.1607 38.2195 81.0927 37.9836C81.0247 37.7432 80.9906 37.4846 80.9906 37.2079C80.9906 36.9902 80.9974 36.752 81.0111 36.4935C81.0247 36.2349 81.0405 35.9786 81.0587 35.7246C81.0814 35.4661 81.1063 35.2234 81.1335 34.9966C81.1607 34.7698 81.1857 34.5815 81.2084 34.4318C81.222 34.3638 81.2311 34.2867 81.2356 34.2005C81.2447 34.1143 81.2515 34.0281 81.256 33.9419C81.2605 33.8512 81.2628 33.7673 81.2628 33.6902C81.2673 33.6085 81.2696 33.5405 81.2696 33.4861C81.2696 33.4271 81.2923 33.3364 81.3377 33.2139C81.3875 33.0869 81.4556 32.9599 81.5418 32.8329C81.6325 32.7013 81.7414 32.5879 81.8684 32.4926C81.9954 32.3929 82.1383 32.343 82.297 32.343C82.5556 32.343 82.7574 32.3951 82.9026 32.4995C83.0523 32.6038 83.1271 32.7943 83.1271 33.071C83.1271 33.1254 83.1113 33.2184 83.0795 33.35C83.0523 33.477 83.016 33.6312 82.9706 33.8126C82.9253 33.9941 82.8754 34.1959 82.821 34.4182C82.7711 34.6359 82.7234 34.865 82.6781 35.1054C82.6327 35.3458 82.5941 35.5908 82.5624 35.8403C82.5352 36.0852 82.5216 36.3234 82.5216 36.5547C82.5216 36.7135 82.5306 36.8609 82.5488 36.997C82.5669 37.1331 82.5919 37.251 82.6236 37.3508C82.6554 37.4461 82.6917 37.5209 82.7325 37.5753C82.7779 37.6298 82.8232 37.657 82.8686 37.657C83.05 37.657 83.236 37.6275 83.4265 37.5685C83.617 37.505 83.828 37.3939 84.0593 37.2351C84.2952 37.0764 84.5628 36.8586 84.8622 36.5819C85.1616 36.3007 85.5109 35.9423 85.91 35.5069C86.0506 35.3572 86.1777 35.2188 86.2911 35.0918C86.409 34.9648 86.5247 34.8378 86.6381 34.7108C86.756 34.5838 86.8762 34.45 86.9987 34.3094C87.1257 34.1687 87.2663 34.0077 87.4205 33.8263C87.4568 33.7764 87.509 33.7401 87.577 33.7174C87.6451 33.6902 87.7154 33.6766 87.788 33.6766C87.8379 33.6766 87.89 33.6856 87.9445 33.7038C87.9989 33.7174 88.0465 33.7423 88.0874 33.7786C88.1327 33.8149 88.169 33.8671 88.1962 33.9351C88.2234 33.9986 88.237 34.0825 88.237 34.1869C88.237 34.264 88.2257 34.3502 88.203 34.4454C88.1849 34.5362 88.1463 34.6337 88.0874 34.738Z" fill="#13130F"/>
<path d="M94.0818 34.5543C94.0818 34.6586 94.0546 34.7902 94.0001 34.9489C93.9502 35.1032 93.8641 35.2846 93.7416 35.4933C93.6191 35.6974 93.4558 35.9287 93.2517 36.1873C93.0476 36.4458 92.7935 36.7294 92.4896 37.0378C92.3218 37.2056 92.1313 37.3735 91.9181 37.5413C91.7094 37.7091 91.4871 37.8588 91.2513 37.9904C91.0154 38.1174 90.7704 38.2217 90.5164 38.3034C90.2669 38.385 90.0175 38.4259 89.768 38.4259C89.4323 38.4259 89.117 38.3669 88.8222 38.2489C88.5319 38.131 88.2779 37.9518 88.0601 37.7114C87.8424 37.4665 87.67 37.1603 87.543 36.7929C87.4205 36.4254 87.3593 35.9945 87.3593 35.5001C87.3593 35.178 87.3752 34.8446 87.4069 34.4999C87.4387 34.1506 87.4772 33.799 87.5226 33.4452C87.5725 33.0914 87.6269 32.7421 87.6859 32.3974C87.7494 32.0481 87.8107 31.7147 87.8696 31.3972C87.9104 31.1794 87.9445 30.9867 87.9717 30.8188C87.9989 30.651 88.0238 30.4832 88.0465 30.3153C88.0737 30.1475 88.1032 29.9683 88.135 29.7778C88.1667 29.5827 88.2053 29.3537 88.2507 29.0906C88.2733 28.9636 88.3119 28.8434 88.3663 28.73C88.4208 28.612 88.4888 28.51 88.5704 28.4238C88.6566 28.3331 88.7564 28.2627 88.8698 28.2128C88.9832 28.1584 89.108 28.1312 89.2441 28.1312C89.5797 28.1312 89.8247 28.2877 89.9789 28.6007L89.9041 28.9885C89.8632 29.2062 89.8088 29.4625 89.7408 29.7574C89.6773 30.0477 89.6069 30.3652 89.5298 30.71C89.4573 31.0547 89.3824 31.4176 89.3053 31.7986C89.2327 32.1751 89.1647 32.5584 89.1012 32.9485C89.0422 33.3386 88.9923 33.7265 88.9515 34.112C88.9152 34.4976 88.897 34.8696 88.897 35.2279C88.897 35.5001 88.9152 35.7473 88.9515 35.9696C88.9923 36.1918 89.0558 36.3823 89.142 36.5411C89.2282 36.6953 89.3393 36.8155 89.4754 36.9017C89.6115 36.9879 89.7748 37.031 89.9653 37.031C90.1558 37.031 90.3531 36.9924 90.5573 36.9153C90.7614 36.8337 90.9655 36.7294 91.1696 36.6023C91.3783 36.4753 91.5801 36.3302 91.7752 36.1669C91.9748 36.0036 92.1608 35.8403 92.3331 35.677C92.5055 35.5091 92.6597 35.3481 92.7958 35.1939C92.9319 35.0351 93.043 34.899 93.1292 34.7856C93.17 34.7312 93.2131 34.6745 93.2585 34.6155C93.3084 34.552 93.3628 34.4931 93.4218 34.4386C93.4853 34.3842 93.5511 34.3388 93.6191 34.3025C93.6917 34.2663 93.7688 34.2481 93.8505 34.2481C93.914 34.2481 93.9684 34.2753 94.0138 34.3298C94.0591 34.3797 94.0818 34.4545 94.0818 34.5543Z" fill="#13130F"/>
<path d="M104.315 33.2819C104.315 33.3318 104.286 33.4271 104.227 33.5677C104.168 33.7038 104.086 33.8693 103.982 34.0644C103.882 34.2549 103.76 34.4658 103.614 34.6972C103.474 34.924 103.32 35.1553 103.152 35.3912C102.984 35.6271 102.805 35.8584 102.614 36.0852C102.424 36.3075 102.231 36.5071 102.036 36.684C101.75 36.9426 101.451 37.1557 101.138 37.3236C100.829 37.4869 100.519 37.5685 100.206 37.5685C99.9742 37.5685 99.7496 37.5141 99.5319 37.4052C99.3187 37.2964 99.1237 37.1421 98.9467 36.9426C98.7744 36.7384 98.627 36.4957 98.5045 36.2145C98.3865 35.9287 98.3049 35.6089 98.2595 35.2551C98.1597 35.423 98.0305 35.6067 97.8717 35.8063C97.7175 36.0013 97.5496 36.1964 97.3682 36.3914C97.1867 36.5865 97.0008 36.7724 96.8103 36.9494C96.6243 37.1263 96.4496 37.276 96.2863 37.3984C96.1366 37.5073 95.9733 37.6139 95.7964 37.7182C95.6241 37.8226 95.4472 37.9133 95.2657 37.9904C95.0888 38.0675 94.9164 38.131 94.7486 38.1809C94.5808 38.2263 94.4311 38.2489 94.2995 38.2489C94.0636 38.2489 93.8618 38.2081 93.694 38.1265C93.5307 38.0403 93.3946 37.9292 93.2857 37.7931C93.1814 37.657 93.1043 37.5028 93.0544 37.3304C93.009 37.158 92.9863 36.9811 92.9863 36.7997C92.9863 36.5502 93.0249 36.2667 93.102 35.9491C93.1791 35.6271 93.2834 35.2982 93.415 34.9625C93.5511 34.6269 93.7098 34.3003 93.8913 33.9828C94.0727 33.6607 94.2678 33.3749 94.4764 33.1254C94.7486 32.8034 95.0117 32.5289 95.2657 32.3021C95.5197 32.0708 95.7715 31.8825 96.021 31.7374C96.2705 31.5922 96.5222 31.4856 96.7762 31.4176C97.0302 31.3496 97.2888 31.3155 97.5519 31.3155C97.7288 31.3155 97.8966 31.3586 98.0554 31.4448C98.2142 31.5265 98.3366 31.6399 98.4228 31.785C98.4637 31.5945 98.5067 31.3881 98.5521 31.1658C98.5975 30.939 98.6406 30.7145 98.6814 30.4922C98.7267 30.2654 98.7676 30.05 98.8039 29.8458C98.8401 29.6417 98.8696 29.4648 98.8923 29.3151C98.9195 29.1291 98.9467 28.9409 98.974 28.7504C99.0057 28.5553 99.0397 28.3739 99.076 28.206C99.1123 28.0337 99.1531 27.8817 99.1985 27.7502C99.2439 27.6186 99.296 27.5188 99.355 27.4508C99.3913 27.41 99.4389 27.3714 99.4979 27.3351C99.5569 27.2943 99.6181 27.2603 99.6816 27.2331C99.7496 27.2013 99.8154 27.1763 99.8789 27.1582C99.9424 27.1401 99.9969 27.131 100.042 27.131C100.165 27.131 100.267 27.1627 100.348 27.2262C100.43 27.2852 100.494 27.3646 100.539 27.4644C100.584 27.5642 100.616 27.6776 100.634 27.8046C100.652 27.9271 100.661 28.0518 100.661 28.1788C100.661 28.2106 100.652 28.2854 100.634 28.4034C100.616 28.5168 100.591 28.646 100.559 28.7912C100.532 28.9318 100.5 29.077 100.464 29.2267C100.432 29.3718 100.398 29.4943 100.362 29.5941C100.271 29.8572 100.178 30.186 100.083 30.5807C99.9878 30.9753 99.8993 31.3926 99.8177 31.8326C99.7406 32.2726 99.6771 32.7149 99.6272 33.1595C99.5773 33.604 99.5523 34.01 99.5523 34.3774C99.5523 34.6178 99.575 34.8491 99.6204 35.0714C99.6657 35.2937 99.727 35.491 99.8041 35.6634C99.8812 35.8312 99.9696 35.9673 100.069 36.0716C100.174 36.1714 100.283 36.2213 100.396 36.2213C100.605 36.2213 100.825 36.1465 101.056 35.9968C101.292 35.8471 101.53 35.6452 101.77 35.3912C102.015 35.1327 102.258 34.8378 102.499 34.5067C102.739 34.171 102.968 33.8195 103.186 33.452C103.245 33.3568 103.301 33.2661 103.356 33.1799C103.41 33.0891 103.469 33.012 103.533 32.9485C103.596 32.8805 103.664 32.8283 103.737 32.792C103.814 32.7512 103.9 32.7308 103.995 32.7308C104.086 32.7308 104.161 32.7693 104.22 32.8465C104.283 32.9236 104.315 33.0687 104.315 33.2819ZM98.069 33.2139C98.069 33.1731 98.0554 33.1164 98.0282 33.0438C98.001 32.9667 97.9624 32.8918 97.9125 32.8192C97.8626 32.7467 97.8037 32.6832 97.7356 32.6287C97.6676 32.5743 97.5905 32.5471 97.5043 32.5471C97.3546 32.5471 97.2117 32.572 97.0756 32.6219C96.9395 32.6673 96.8057 32.7331 96.6742 32.8192C96.5472 32.9009 96.4201 33.0007 96.2931 33.1186C96.1707 33.232 96.0459 33.3568 95.9189 33.4929C95.8236 33.5926 95.7216 33.7219 95.6127 33.8807C95.5039 34.0349 95.3927 34.205 95.2793 34.391C95.1705 34.5724 95.0661 34.7652 94.9663 34.9694C94.8665 35.1689 94.7758 35.3663 94.6942 35.5613C94.6171 35.7518 94.5558 35.9333 94.5105 36.1056C94.4651 36.2735 94.4424 36.4186 94.4424 36.5411C94.4424 36.6727 94.456 36.7656 94.4832 36.8201C94.515 36.8745 94.5581 36.9017 94.6125 36.9017C94.7078 36.9017 94.8098 36.8813 94.9187 36.8405C95.0321 36.7951 95.1478 36.7362 95.2657 36.6636C95.3882 36.5865 95.5129 36.498 95.6399 36.3982C95.7715 36.2939 95.9008 36.1828 96.0278 36.0648C96.182 35.9242 96.3385 35.77 96.4973 35.6021C96.6606 35.4343 96.8171 35.2619 96.9667 35.085C97.121 34.9081 97.2639 34.7312 97.3954 34.5543C97.527 34.3729 97.6426 34.2005 97.7424 34.0372C97.8422 33.8739 97.9216 33.7219 97.9806 33.5813C98.0395 33.4362 98.069 33.3137 98.069 33.2139Z" fill="#13130F"/>
<path d="M115.243 34.2209C115.243 34.2844 115.22 34.3615 115.175 34.4522C115.134 34.5384 115.075 34.6405 114.998 34.7584C114.952 34.831 114.891 34.9149 114.814 35.0102C114.741 35.1054 114.662 35.203 114.576 35.3028C114.494 35.4025 114.413 35.5001 114.331 35.5953C114.249 35.6906 114.174 35.7722 114.106 35.8403C113.848 36.1034 113.571 36.3574 113.276 36.6023C112.986 36.8473 112.68 37.065 112.358 37.2555C112.04 37.4461 111.711 37.6003 111.371 37.7182C111.031 37.8316 110.679 37.8883 110.316 37.8883C110.003 37.8883 109.729 37.8316 109.493 37.7182C109.262 37.6048 109.08 37.4234 108.949 37.1739C108.903 37.0922 108.856 36.963 108.806 36.7861C108.761 36.6091 108.717 36.4209 108.677 36.2213C108.636 36.0172 108.602 35.8176 108.575 35.6225C108.547 35.4275 108.529 35.2687 108.52 35.1463C108.516 35.0646 108.509 34.9716 108.5 34.8673C108.491 34.7584 108.477 34.6564 108.459 34.5611C108.445 34.4658 108.425 34.3865 108.398 34.323C108.375 34.2549 108.343 34.2209 108.302 34.2209C108.257 34.2209 108.214 34.2322 108.173 34.2549C108.092 34.2957 107.955 34.4023 107.765 34.5747C107.579 34.7425 107.366 34.958 107.125 35.2211C106.885 35.4797 106.631 35.7768 106.363 36.1124C106.096 36.4436 105.842 36.7929 105.601 37.1603C105.51 37.2964 105.417 37.4483 105.322 37.6162C105.227 37.7795 105.132 37.9473 105.036 38.1197C104.946 38.2875 104.855 38.4508 104.764 38.6096C104.678 38.7683 104.599 38.9089 104.526 39.0314C104.476 39.104 104.417 39.1652 104.349 39.2151C104.281 39.2696 104.213 39.3127 104.145 39.3444C104.082 39.3762 104.023 39.3988 103.968 39.4125C103.914 39.4261 103.873 39.4329 103.846 39.4329C103.746 39.4329 103.651 39.4102 103.56 39.3648C103.474 39.3195 103.397 39.2605 103.329 39.1879C103.265 39.1199 103.213 39.0405 103.172 38.9498C103.136 38.859 103.118 38.7683 103.118 38.6776C103.118 38.6277 103.124 38.5393 103.138 38.4122C103.156 38.2807 103.177 38.1333 103.199 37.97C103.227 37.8067 103.251 37.6366 103.274 37.4597C103.301 37.2828 103.324 37.1195 103.342 36.9698C103.379 36.6795 103.415 36.3619 103.451 36.0172C103.492 35.6724 103.528 35.3254 103.56 34.9762C103.596 34.6269 103.628 34.2867 103.655 33.9555C103.687 33.6199 103.71 33.3182 103.723 33.0506C103.728 32.9644 103.735 32.851 103.744 32.7104C103.753 32.5652 103.762 32.4065 103.771 32.2341C103.784 32.0572 103.796 31.8757 103.805 31.6898C103.814 31.4992 103.823 31.3133 103.832 31.1318C103.846 30.9504 103.855 30.7803 103.859 30.6215C103.868 30.4627 103.875 30.3289 103.88 30.2201C103.884 30.0931 103.891 29.9751 103.9 29.8663C103.914 29.7528 103.932 29.6417 103.955 29.5328C103.982 29.424 104.014 29.3151 104.05 29.2062C104.091 29.0928 104.143 28.9704 104.206 28.8388C104.229 28.7889 104.265 28.7345 104.315 28.6755C104.365 28.6166 104.424 28.5621 104.492 28.5122C104.565 28.4623 104.642 28.4215 104.723 28.3898C104.81 28.3535 104.896 28.3353 104.982 28.3353C105.173 28.3353 105.334 28.4034 105.465 28.5394C105.601 28.671 105.669 28.857 105.669 29.0974C105.669 29.1654 105.66 29.2561 105.642 29.3695C105.628 29.483 105.61 29.5941 105.588 29.703C105.569 29.8118 105.551 29.9116 105.533 30.0023C105.52 30.0885 105.513 30.143 105.513 30.1656C105.499 30.2291 105.481 30.3448 105.458 30.5126C105.436 30.6759 105.408 30.871 105.377 31.0978C105.349 31.3201 105.32 31.565 105.288 31.8326C105.256 32.0957 105.222 32.3634 105.186 32.6355C105.154 32.9032 105.123 33.164 105.091 33.418C105.059 33.672 105.03 33.8988 105.002 34.0984C104.98 34.298 104.962 34.4613 104.948 34.5883C104.934 34.7153 104.925 34.7879 104.921 34.8061C104.907 34.8968 104.889 35.0261 104.866 35.1939C104.848 35.3572 104.826 35.5273 104.798 35.7042C104.776 35.8766 104.753 36.0399 104.73 36.1941C104.712 36.3483 104.699 36.4595 104.689 36.5275C104.73 36.4685 104.782 36.3891 104.846 36.2894C104.914 36.185 104.982 36.0807 105.05 35.9764C105.123 35.8675 105.191 35.7654 105.254 35.6702C105.318 35.5749 105.365 35.5046 105.397 35.4592C105.47 35.3504 105.554 35.2279 105.649 35.0918C105.749 34.9557 105.853 34.8174 105.962 34.6768C106.071 34.5316 106.184 34.391 106.302 34.2549C106.42 34.1143 106.533 33.9873 106.642 33.8739C106.783 33.7287 106.942 33.579 107.119 33.4248C107.295 33.2706 107.481 33.13 107.676 33.003C107.872 32.8759 108.071 32.7716 108.275 32.69C108.479 32.6083 108.677 32.5675 108.867 32.5675C108.917 32.5675 108.978 32.5788 109.051 32.6015C109.128 32.6242 109.203 32.6582 109.275 32.7036C109.353 32.7444 109.423 32.7966 109.486 32.8601C109.55 32.9236 109.595 32.9962 109.622 33.0778C109.681 33.2411 109.731 33.4407 109.772 33.6766C109.813 33.9079 109.849 34.1506 109.881 34.4046C109.917 34.6541 109.954 34.9036 109.99 35.1531C110.026 35.398 110.067 35.6203 110.112 35.8199C110.158 36.0149 110.21 36.1737 110.269 36.2962C110.332 36.4186 110.409 36.4799 110.5 36.4799C110.623 36.4799 110.736 36.4753 110.84 36.4663C110.949 36.4572 111.054 36.4413 111.153 36.4186C111.258 36.396 111.362 36.3665 111.466 36.3302C111.571 36.2939 111.682 36.2463 111.8 36.1873C112.049 36.0648 112.265 35.9491 112.446 35.8403C112.628 35.7314 112.798 35.618 112.956 35.5001C113.12 35.3776 113.283 35.2438 113.446 35.0986C113.614 34.9489 113.805 34.7766 114.018 34.5815C114.245 34.3729 114.442 34.205 114.61 34.078C114.782 33.9465 114.907 33.8807 114.984 33.8807C115.039 33.8807 115.082 33.892 115.113 33.9147C115.15 33.9374 115.177 33.9669 115.195 34.0032C115.213 34.0349 115.225 34.0712 115.229 34.112C115.238 34.1529 115.243 34.1891 115.243 34.2209Z" fill="#13130F"/>
<path d="M122.85 35.3912C122.85 35.4502 122.8 35.5386 122.7 35.6566C122.6 35.7745 122.457 35.8902 122.271 36.0036C122.085 36.117 121.861 36.2168 121.598 36.303C121.335 36.3891 121.037 36.4322 120.706 36.4322C120.475 36.4322 120.262 36.4118 120.067 36.371C119.876 36.3302 119.708 36.2871 119.563 36.2417C119.423 36.1918 119.307 36.1487 119.216 36.1124C119.13 36.0716 119.076 36.0512 119.053 36.0512C119.026 36.0512 118.985 36.092 118.93 36.1737C118.876 36.2553 118.813 36.3619 118.74 36.4935C118.604 36.7339 118.429 36.972 118.216 37.2079C118.003 37.4438 117.772 37.6615 117.522 37.8611C117.273 38.0607 117.014 38.2353 116.746 38.385C116.483 38.5347 116.232 38.6413 115.991 38.7048C115.941 38.7184 115.866 38.732 115.767 38.7456C115.671 38.7638 115.572 38.7797 115.467 38.7933C115.363 38.8114 115.265 38.825 115.175 38.8341C115.088 38.8432 115.027 38.8477 114.991 38.8477C114.714 38.8477 114.476 38.7842 114.276 38.6572C114.081 38.5302 113.92 38.3714 113.793 38.1809C113.666 37.9904 113.573 37.7863 113.514 37.5685C113.455 37.3463 113.426 37.1399 113.426 36.9494C113.426 36.9131 113.43 36.836 113.44 36.718C113.449 36.5955 113.464 36.4595 113.487 36.3098C113.51 36.1555 113.537 35.999 113.569 35.8403C113.605 35.677 113.646 35.5409 113.691 35.432C113.782 35.2324 113.905 34.9875 114.059 34.6972C114.217 34.4069 114.39 34.1188 114.576 33.8331C114.703 33.6335 114.877 33.4271 115.1 33.2139C115.322 33.0007 115.562 32.8079 115.821 32.6355C116.084 32.4586 116.354 32.3135 116.631 32.2001C116.912 32.0867 117.17 32.03 117.406 32.03C117.511 32.03 117.601 32.0413 117.679 32.064C117.756 32.0867 117.824 32.1162 117.883 32.1524C117.942 32.1887 117.994 32.2296 118.039 32.2749C118.089 32.3203 118.134 32.3679 118.175 32.4178C118.216 32.4632 118.255 32.504 118.291 32.5403C118.327 32.5766 118.35 32.5947 118.359 32.5947C118.536 32.6355 118.681 32.7172 118.794 32.8397C118.912 32.9621 119.005 33.105 119.073 33.2683C119.146 33.4271 119.2 33.5949 119.237 33.7718C119.277 33.9442 119.309 34.103 119.332 34.2481C119.346 34.3434 119.384 34.45 119.448 34.5679C119.516 34.6813 119.615 34.7902 119.747 34.8945C119.883 34.9943 120.055 35.0805 120.264 35.1531C120.477 35.2211 120.736 35.2551 121.04 35.2551C121.23 35.2551 121.403 35.2461 121.557 35.2279C121.711 35.2098 121.847 35.1916 121.965 35.1735C122.088 35.1508 122.19 35.1304 122.271 35.1122C122.353 35.0941 122.416 35.085 122.462 35.085C122.612 35.085 122.714 35.1122 122.768 35.1667C122.822 35.2166 122.85 35.2914 122.85 35.3912ZM117.903 35.017C117.903 34.9625 117.889 34.9013 117.862 34.8333C117.84 34.7652 117.81 34.6904 117.774 34.6087C117.737 34.5225 117.699 34.4318 117.658 34.3366C117.617 34.2368 117.581 34.1302 117.549 34.0168C117.517 33.8988 117.495 33.7922 117.481 33.697C117.472 33.5972 117.461 33.511 117.447 33.4384C117.434 33.3613 117.415 33.3023 117.393 33.2615C117.37 33.2207 117.332 33.2003 117.277 33.2003C117.127 33.2003 116.962 33.2592 116.78 33.3772C116.603 33.4951 116.424 33.6539 116.243 33.8535C116.061 34.0531 115.885 34.2844 115.712 34.5475C115.54 34.8061 115.386 35.0805 115.249 35.3708C115.118 35.6611 115.011 35.956 114.93 36.2553C114.848 36.5502 114.807 36.8337 114.807 37.1059C114.807 37.183 114.823 37.2601 114.855 37.3372C114.891 37.4098 114.934 37.4755 114.984 37.5345C115.034 37.5889 115.088 37.6343 115.147 37.6706C115.206 37.7069 115.263 37.725 115.317 37.725C115.485 37.725 115.669 37.6706 115.869 37.5617C116.068 37.4529 116.263 37.3213 116.454 37.1671C116.644 37.0083 116.821 36.8428 116.985 36.6704C117.148 36.498 117.277 36.3483 117.372 36.2213C117.522 36.0263 117.647 35.8357 117.747 35.6498C117.851 35.4592 117.903 35.2483 117.903 35.017Z" fill="#13130F"/>
<path d="M126.095 34.5679C126.095 34.4545 126.088 34.3366 126.075 34.2141C126.066 34.0916 126.043 33.9782 126.007 33.8739C125.971 33.765 125.921 33.672 125.857 33.5949C125.794 33.5133 125.71 33.4588 125.605 33.4316C125.447 33.3908 125.317 33.3477 125.218 33.3023C125.118 33.2524 125.038 33.2071 124.979 33.1663C124.92 33.1254 124.88 33.0914 124.857 33.0642C124.834 33.037 124.818 33.0234 124.809 33.0234C124.773 33.0234 124.721 33.0551 124.653 33.1186C124.589 33.1776 124.517 33.2547 124.435 33.35C124.358 33.4452 124.276 33.5473 124.19 33.6562C124.108 33.765 124.029 33.8671 123.952 33.9623C123.857 34.0803 123.766 34.1959 123.68 34.3094C123.598 34.4182 123.516 34.5339 123.435 34.6564C123.358 34.7743 123.281 34.899 123.203 35.0306C123.126 35.1621 123.047 35.3073 122.965 35.4661C122.893 35.6112 122.838 35.7904 122.802 36.0036C122.766 36.2122 122.748 36.4096 122.748 36.5955C122.748 36.6727 122.757 36.752 122.775 36.8337C122.793 36.9108 122.82 36.9811 122.856 37.0446C122.893 37.1081 122.94 37.1603 122.999 37.2011C123.058 37.2419 123.131 37.2623 123.217 37.2623C123.426 37.2623 123.6 37.2533 123.741 37.2351C123.882 37.2124 124.013 37.1762 124.136 37.1263C124.258 37.0718 124.381 37.0015 124.503 36.9153C124.63 36.8246 124.782 36.7135 124.959 36.5819C125.041 36.5184 125.122 36.4458 125.204 36.3642C125.286 36.278 125.367 36.1873 125.449 36.092C125.53 35.9922 125.61 35.8902 125.687 35.7858C125.764 35.677 125.834 35.5727 125.898 35.4729C125.934 35.4184 125.964 35.3481 125.986 35.2619C126.014 35.1712 126.034 35.0805 126.048 34.9898C126.066 34.899 126.077 34.8151 126.082 34.738C126.091 34.6609 126.095 34.6065 126.095 34.5747V34.5679ZM131.375 33.037C131.375 33.1186 131.357 33.2048 131.321 33.2955C131.289 33.3863 131.244 33.4747 131.185 33.5609C131.126 33.6425 131.058 33.7197 130.981 33.7922C130.908 33.8648 130.833 33.9261 130.756 33.9759C130.593 34.0848 130.355 34.1801 130.042 34.2617C129.733 34.3434 129.359 34.3842 128.919 34.3842C128.792 34.3842 128.656 34.3751 128.511 34.357C128.37 34.3388 128.225 34.3139 128.075 34.2821C127.93 34.2504 127.785 34.2118 127.64 34.1665C127.499 34.1166 127.363 34.0621 127.232 34.0032C127.259 34.044 127.281 34.1007 127.3 34.1733C127.318 34.2413 127.329 34.3139 127.334 34.391C127.343 34.4681 127.347 34.543 127.347 34.6155C127.352 34.6836 127.354 34.738 127.354 34.7788C127.354 35.0691 127.302 35.3595 127.198 35.6498C127.098 35.9355 126.964 36.21 126.796 36.4731C126.628 36.7362 126.438 36.9811 126.225 37.2079C126.011 37.4302 125.794 37.623 125.571 37.7863C125.394 37.9178 125.197 38.0312 124.979 38.1265C124.766 38.2217 124.539 38.3011 124.299 38.3646C124.063 38.4281 123.818 38.4757 123.564 38.5075C123.315 38.5393 123.061 38.5551 122.802 38.5551C122.589 38.5551 122.385 38.503 122.19 38.3986C121.995 38.2943 121.822 38.1605 121.673 37.9972C121.527 37.8294 121.409 37.6411 121.319 37.4324C121.233 37.2238 121.189 37.0174 121.189 36.8133C121.189 36.4504 121.237 36.1011 121.332 35.7654C121.432 35.4298 121.564 35.1054 121.727 34.7924C121.89 34.4795 122.081 34.1733 122.299 33.8739C122.516 33.57 122.745 33.2706 122.986 32.9757C123.126 32.8034 123.287 32.6355 123.469 32.4722C123.65 32.3089 123.841 32.1638 124.04 32.0368C124.245 31.9052 124.449 31.8009 124.653 31.7238C124.861 31.6467 125.061 31.6081 125.252 31.6081C125.41 31.6081 125.546 31.6263 125.66 31.6625C125.778 31.6988 125.884 31.751 125.98 31.819C126.079 31.8825 126.175 31.9619 126.265 32.0572C126.356 32.1524 126.451 32.259 126.551 32.377L126.694 32.5335C126.73 32.5698 126.828 32.6242 126.987 32.6968C127.15 32.7693 127.343 32.8419 127.565 32.9145C127.787 32.9825 128.021 33.0438 128.266 33.0982C128.511 33.1526 128.733 33.1799 128.933 33.1799C129.137 33.1799 129.329 33.1776 129.511 33.1731C129.692 33.1685 129.874 33.1526 130.055 33.1254C130.241 33.0937 130.434 33.0483 130.634 32.9893C130.838 32.9258 131.062 32.8397 131.307 32.7308C131.33 32.7716 131.346 32.8238 131.355 32.8873C131.368 32.9508 131.375 33.0007 131.375 33.037Z" fill="#13130F"/>
<path d="M133.675 35.0986C133.743 35.017 133.809 34.924 133.872 34.8197C133.936 34.7153 133.997 34.6042 134.056 34.4863C133.965 34.4273 133.909 34.3547 133.886 34.2685C133.863 34.1778 133.852 34.0894 133.852 34.0032C133.852 33.9578 133.854 33.9034 133.859 33.8399C133.863 33.7764 133.868 33.7151 133.872 33.6562C133.881 33.5926 133.888 33.5337 133.893 33.4792C133.897 33.4248 133.9 33.3817 133.9 33.35C133.9 33.2865 133.881 33.2116 133.845 33.1254C133.813 33.0392 133.773 32.9553 133.723 32.8737C133.673 32.792 133.618 32.724 133.559 32.6696C133.505 32.6106 133.453 32.5811 133.403 32.5811C133.358 32.5811 133.294 32.6106 133.212 32.6696C133.131 32.7285 133.038 32.8079 132.933 32.9077C132.834 33.003 132.725 33.1164 132.607 33.2479C132.493 33.3795 132.378 33.5178 132.26 33.663C132.146 33.8081 132.033 33.9555 131.92 34.1052C131.811 34.2549 131.713 34.3978 131.627 34.5339C131.482 34.7652 131.353 34.9852 131.239 35.1939C131.13 35.398 131.037 35.5795 130.96 35.7382C130.833 36.0058 130.745 36.2372 130.695 36.4322C130.649 36.6228 130.627 36.7951 130.627 36.9494C130.627 37.2306 130.677 37.3712 130.776 37.3712C130.867 37.3712 130.981 37.3485 131.117 37.3032C131.257 37.2533 131.43 37.1603 131.634 37.0242C132.06 36.7339 132.396 36.464 132.641 36.2145C132.899 35.9469 133.11 35.7223 133.274 35.5409C133.441 35.3595 133.575 35.212 133.675 35.0986ZM139.663 36.1873C139.663 36.219 139.651 36.2689 139.629 36.337C139.606 36.4005 139.576 36.4685 139.54 36.5411C139.508 36.6091 139.477 36.6749 139.445 36.7384C139.413 36.8019 139.386 36.8473 139.363 36.8745C139.191 37.124 139.007 37.3599 138.812 37.5821C138.622 37.7999 138.418 37.9904 138.2 38.1537C137.982 38.317 137.748 38.4463 137.499 38.5415C137.254 38.6322 136.989 38.6776 136.703 38.6776C136.571 38.6776 136.438 38.6504 136.301 38.596C136.165 38.5415 136.034 38.4667 135.907 38.3714C135.78 38.2762 135.662 38.1628 135.553 38.0312C135.449 37.8997 135.358 37.7568 135.281 37.6026C135.222 37.4801 135.165 37.3395 135.111 37.1807C135.061 37.0174 135.015 36.845 134.975 36.6636C134.934 36.4776 134.902 36.2871 134.879 36.092C134.857 35.8924 134.845 35.6974 134.845 35.5069V35.3028C134.746 35.4797 134.625 35.6634 134.485 35.8539C134.349 36.0444 134.201 36.2349 134.042 36.4254C133.888 36.616 133.725 36.8019 133.553 36.9834C133.385 37.1648 133.219 37.3304 133.056 37.4801C132.602 37.8929 132.135 38.2036 131.654 38.4122C131.178 38.6164 130.686 38.7184 130.178 38.7184C130.001 38.7184 129.844 38.6731 129.708 38.5823C129.577 38.4916 129.468 38.376 129.382 38.2353C129.295 38.0902 129.23 37.9337 129.184 37.7659C129.143 37.5935 129.123 37.4279 129.123 37.2691C129.123 37.056 129.132 36.8745 129.15 36.7248C129.173 36.5706 129.202 36.4413 129.239 36.337C129.429 35.779 129.645 35.2506 129.885 34.7516C130.126 34.2481 130.42 33.7537 130.77 33.2683C130.874 33.1232 130.99 32.9757 131.117 32.826C131.248 32.6718 131.382 32.5267 131.518 32.3906C131.659 32.25 131.804 32.1207 131.954 32.0027C132.103 31.8848 132.251 31.7873 132.396 31.7102C132.568 31.6194 132.766 31.5423 132.988 31.4788C133.21 31.4153 133.482 31.3836 133.804 31.3836C133.945 31.3836 134.076 31.4221 134.199 31.4992C134.321 31.5718 134.428 31.6693 134.519 31.7918C134.614 31.9098 134.693 32.0458 134.757 32.2001C134.82 32.3543 134.864 32.5131 134.886 32.6764C134.909 32.504 134.936 32.3044 134.968 32.0776C135 31.8508 135.031 31.6104 135.063 31.3564C135.095 31.1023 135.127 30.8415 135.158 30.5739C135.19 30.3063 135.217 30.0454 135.24 29.7914C135.272 29.4376 135.308 29.1314 135.349 28.8728C135.394 28.6143 135.444 28.4374 135.499 28.3421C135.571 28.2242 135.653 28.1357 135.744 28.0768C135.834 28.0178 135.973 27.9883 136.159 27.9883C136.272 27.9883 136.376 28.0019 136.472 28.0291C136.571 28.0564 136.658 28.0949 136.73 28.1448C136.803 28.1902 136.859 28.2446 136.9 28.3081C136.941 28.3671 136.961 28.4283 136.961 28.4918C136.961 28.5508 136.95 28.6415 136.927 28.764C136.909 28.8865 136.882 29.0475 136.846 29.2471C136.809 29.4467 136.764 29.6871 136.71 29.9683C136.66 30.2496 136.601 30.5807 136.533 30.9617C136.528 31.0025 136.517 31.091 136.499 31.2271C136.481 31.3632 136.46 31.506 136.438 31.6557C136.415 31.8054 136.392 31.9438 136.369 32.0708C136.351 32.1933 136.34 32.2658 136.335 32.2885C136.286 32.6333 136.247 32.9599 136.22 33.2683C136.193 33.5722 136.179 33.8784 136.179 34.1869C136.179 34.7312 136.204 35.203 136.254 35.6021C136.304 36.0013 136.369 36.3324 136.451 36.5955C136.533 36.8541 136.624 37.0469 136.723 37.1739C136.828 37.3009 136.932 37.3644 137.036 37.3644C137.172 37.3644 137.306 37.3485 137.438 37.3168C137.569 37.2805 137.703 37.2215 137.839 37.1399C137.975 37.0537 138.118 36.9426 138.268 36.8065C138.418 36.6704 138.581 36.5003 138.758 36.2962C138.862 36.1782 138.962 36.0762 139.057 35.99C139.157 35.9038 139.275 35.8607 139.411 35.8607C139.52 35.8607 139.588 35.897 139.615 35.9696C139.647 36.0376 139.663 36.1102 139.663 36.1873Z" fill="#13130F"/>
<path fill-rule="evenodd" clip-rule="evenodd" d="M17.5222 34.3726C19.1697 34.9171 19.7722 35.2003 19.9173 36.6591C19.1552 41.4569 21.964 41.573 23.9672 40.3391C26.0939 38.8586 25.9777 36.1154 31.2618 37.7923C34.2883 39.1568 40.3199 37.0594 34.2664 30.3237L36.836 29.0827C38.7957 28.1535 37.424 26.3319 42.1925 27.7327C43.3684 28.2117 49.2037 28.1681 45.9811 22.6374C44.82 21.0623 44.6603 21.9043 46.3298 18.3695C46.9322 17.2008 47.2076 15.5534 45.6545 15.1472C44.5249 12.1936 42.6512 11.8643 44.8271 9.6814C45.9664 8.09191 46.6921 5.26111 42.4316 6.48054C40.3486 6.90157 39.0059 6.47345 37.8811 5.0001C36.8178 3.7369 35.9611 2.94239 33.537 3.2474C32.2199 3.58493 32.0458 4.08578 30.5653 2.62686C28.5148 0.416597 27.9669 2.64862 26.9943 3.28004C26.0834 3.53419 25.8909 2.8408 24.7514 3.12772C23.9239 3.37465 22.6176 3.55584 21.7683 2.36549C18.2408 -0.988042 17.1955 2.7793 16.9342 3.67185L16.6729 5.43555C14.336 5.97981 14.8294 7.09044 13.9076 7.91794C10.402 5.78384 9.7487 10.1392 9.98807 11.0536L8.0937 12.3601C3.93489 12.3673 4.39222 15.0529 4.30506 16.9546C-1.11682 19.2118 1.14785 22.7322 3.91313 22.7469C4.88574 24.0824 4.76973 25.0696 4.41387 25.9695C1.03159 29.0106 2.76631 30.8544 4.58819 31.1736C6.53685 31.3405 6.66777 32.215 6.67853 33.4382C6.60592 36.1891 8.15567 36.7517 10.4346 35.1583L12.3835 33.2204L17.5222 34.3726Z" fill="#13130F"/>
<path d="M17.5222 34.3726C19.1697 34.9171 19.7722 35.2003 19.9173 36.6591C19.1552 41.4569 21.964 41.573 23.9672 40.3391C26.0939 38.8586 25.9777 36.1154 31.2618 37.7923C34.2883 39.1568 40.3199 37.0594 34.2664 30.3237L36.836 29.0827C38.7957 28.1535 37.424 26.3319 42.1925 27.7327C43.3684 28.2117 49.2037 28.1681 45.9811 22.6374C44.82 21.0623 44.6603 21.9043 46.3298 18.3695C46.9322 17.2008 47.2076 15.5534 45.6545 15.1472C44.5249 12.1936 42.6512 11.8643 44.8271 9.6814C45.9664 8.09191 46.6921 5.26111 42.4316 6.48054C40.3486 6.90157 39.0059 6.47345 37.8811 5.0001C36.8178 3.7369 35.9611 2.94239 33.537 3.2474C32.2199 3.58493 32.0458 4.08578 30.5653 2.62686C28.5148 0.416597 27.9669 2.64862 26.9943 3.28004C26.0834 3.53419 25.8909 2.8408 24.7514 3.12772C23.9239 3.37465 22.6176 3.55584 21.7683 2.36549C18.2408 -0.988042 17.1955 2.7793 16.9342 3.67185L16.6729 5.43555C14.336 5.97981 14.8294 7.09044 13.9076 7.91794C10.402 5.78384 9.7487 10.1392 9.98807 11.0536L8.0937 12.3601C3.93489 12.3673 4.39222 15.0529 4.30506 16.9546C-1.11682 19.2118 1.14785 22.7322 3.91313 22.7469C4.88574 24.0824 4.76973 25.0696 4.41387 25.9695C1.03159 29.0106 2.76631 30.8544 4.58819 31.1736C6.53685 31.3405 6.66777 32.215 6.67853 33.4382C6.60592 36.1891 8.15567 36.7517 10.4346 35.1583L12.3835 33.2204L17.5222 34.3726Z" stroke="#A2D9F7" stroke-width="0.756" stroke-miterlimit="22.926"/>
<path fill-rule="evenodd" clip-rule="evenodd" d="M13.0827 17.1606C12.5608 17.7305 11.7514 17.6967 11.7849 16.7968L11.7279 15.3876C11.7069 14.9579 11.5013 14.6931 10.9616 14.5295L9.37934 14.2171C8.67365 14.0782 8.41441 13.4958 9.15996 13.086C9.86056 12.7312 10.5614 12.3765 11.2621 12.0217C11.681 11.8131 11.965 11.6123 11.9624 11.0996C11.9786 10.5512 12.002 9.96709 11.9683 9.42614C11.9639 9.03681 12.0801 8.5686 12.6852 8.98809L14.5239 10.7662C14.9575 11.0821 15.4254 11.1272 15.9495 11.051L17.3566 10.4387C18.0816 10.1716 18.5398 10.7105 18.215 11.2248L17.1891 12.5545C16.5542 13.2484 16.8503 13.6101 17.1395 14.0075L18.2139 15.2841C18.4326 15.8242 18.0659 16.0682 17.5196 15.9712L16.315 15.7636C15.3476 15.5146 14.9505 15.3764 14.2502 15.8238L13.0827 17.1606Z" fill="#FFED00"/>
<path d="M13.0827 17.1606C12.5608 17.7305 11.7514 17.6967 11.7849 16.7968L11.7279 15.3876C11.7069 14.9579 11.5013 14.6931 10.9616 14.5295L9.37934 14.2171C8.67365 14.0782 8.41441 13.4958 9.15996 13.086C9.86056 12.7312 10.5614 12.3765 11.2621 12.0217C11.681 11.8131 11.965 11.6123 11.9624 11.0996C11.9786 10.5512 12.002 9.96709 11.9683 9.42614C11.9639 9.03681 12.0801 8.5686 12.6852 8.98809L14.5239 10.7662C14.9575 11.0821 15.4254 11.1272 15.9495 11.051L17.3566 10.4387C18.0816 10.1716 18.5398 10.7105 18.215 11.2248L17.1891 12.5545C16.5542 13.2484 16.8503 13.6101 17.1395 14.0075L18.2139 15.2841C18.4326 15.8242 18.0659 16.0682 17.5196 15.9712L16.315 15.7636C15.3476 15.5146 14.9505 15.3764 14.2502 15.8238L13.0827 17.1606Z" stroke="white" stroke-miterlimit="22.926"/>
<path fill-rule="evenodd" clip-rule="evenodd" d="M18.9916 5.49933C18.9319 4.76833 18.8724 4.03722 18.8127 3.3061C18.7696 2.92954 19.029 2.45187 19.6071 2.88093L21.5541 4.68247C22.0632 5.07606 22.5276 5.24577 23.5907 5.00143C24.236 4.87264 24.8811 4.74397 25.5264 4.61518C26.058 4.58561 26.0188 4.96406 25.7951 5.26434C25.3997 5.86489 25.0044 6.46532 24.609 7.06599C24.2229 7.59748 24.2341 7.95559 24.5753 8.37531L25.7279 9.91986C26.0486 10.4179 25.7818 10.6697 25.2803 10.6248L22.9529 10.1436C22.2255 9.93287 21.8898 10.0019 21.6101 10.2333L19.9653 11.8446C19.2378 12.4966 18.7754 12.1382 18.7848 11.6431L18.8575 10.11C18.8238 9.57854 18.6337 9.09188 17.9846 8.86812L16.004 8.56619C15.2655 8.42818 15.1538 7.68582 16.0377 7.3464C16.8508 6.96961 17.6639 6.63208 18.477 6.2554C18.7826 6.11147 19.0217 5.93975 18.9916 5.49933Z" fill="#FFA910"/>
<path d="M18.9916 5.49933C18.9319 4.76833 18.8724 4.03722 18.8127 3.3061C18.7696 2.92954 19.029 2.45187 19.6071 2.88093L21.5541 4.68247C22.0632 5.07606 22.5276 5.24577 23.5907 5.00143C24.236 4.87264 24.8811 4.74397 25.5264 4.61518C26.058 4.58561 26.0188 4.96406 25.7951 5.26434C25.3997 5.86489 25.0044 6.46532 24.609 7.06599C24.2229 7.59748 24.2341 7.95559 24.5753 8.37531L25.7279 9.91986C26.0486 10.4179 25.7818 10.6697 25.2803 10.6248L22.9529 10.1436C22.2255 9.93287 21.8898 10.0019 21.6101 10.2333L19.9653 11.8446C19.2378 12.4966 18.7754 12.1382 18.7848 11.6431L18.8575 10.11C18.8238 9.57854 18.6337 9.09188 17.9846 8.86812L16.004 8.56619C15.2655 8.42818 15.1538 7.68582 16.0377 7.3464C16.8508 6.96961 17.6639 6.63208 18.477 6.2554C18.7826 6.11147 19.0217 5.93975 18.9916 5.49933Z" stroke="white" stroke-miterlimit="22.926"/>
<path fill-rule="evenodd" clip-rule="evenodd" d="M29.3134 10.1359C28.8947 10.5933 28.245 10.5662 28.2719 9.84404L28.2261 8.71283C28.2093 8.36809 28.0442 8.15544 27.6111 8.02429L26.3411 7.77345C25.7748 7.66204 25.5667 7.19454 26.1651 6.86552C26.7274 6.58098 27.2899 6.29619 27.8523 6.01153C28.1886 5.84406 28.4163 5.68287 28.4143 5.2713C28.4273 4.83124 28.446 4.36243 28.4191 3.92828C28.4156 3.61594 28.5088 3.23998 28.9945 3.57668L30.4702 5.00391C30.8181 5.25723 31.1937 5.29354 31.6144 5.23239L32.7436 4.74088C33.3256 4.52635 33.6933 4.95908 33.4326 5.37183L32.6093 6.43894C32.0998 6.99597 32.3374 7.28631 32.5694 7.60516L33.4318 8.62981C33.6073 9.06313 33.3131 9.2591 32.8745 9.1814L31.9077 9.01476C31.1313 8.81477 30.8126 8.70396 30.2505 9.06301L29.3134 10.1359Z" fill="#FFED00"/>
<path d="M29.3134 10.1359C28.8947 10.5933 28.245 10.5662 28.2719 9.84404L28.2261 8.71283C28.2093 8.36809 28.0442 8.15544 27.6111 8.02429L26.3411 7.77345C25.7748 7.66204 25.5667 7.19454 26.1651 6.86552C26.7274 6.58098 27.2899 6.29619 27.8523 6.01153C28.1886 5.84406 28.4163 5.68287 28.4143 5.2713C28.4273 4.83124 28.446 4.36243 28.4191 3.92828C28.4156 3.61594 28.5088 3.23998 28.9945 3.57668L30.4702 5.00391C30.8181 5.25723 31.1937 5.29354 31.6144 5.23239L32.7436 4.74088C33.3256 4.52635 33.6933 4.95908 33.4326 5.37183L32.6093 6.43894C32.0998 6.99597 32.3374 7.28631 32.5694 7.60516L33.4318 8.62981C33.6073 9.06313 33.3131 9.2591 32.8745 9.1814L31.9077 9.01476C31.1313 8.81477 30.8126 8.70396 30.2505 9.06301L29.3134 10.1359Z" stroke="white" stroke-miterlimit="22.926"/>
<path d="M21.8966 9.74257C13.6793 12.8729 8.60474 19.5767 10.5625 24.7163C12.5202 29.856 20.7687 31.4847 28.9861 28.3547C37.2035 25.2243 42.278 18.5205 40.3202 13.3808C39.0368 10.0113 35.0498 8.15083 30.1403 8.15083C27.561 8.15083 24.7269 8.66446 21.8966 9.74257Z" fill="url(#paint0_linear_229_1247)"/>
<path d="M21.8967 9.74265C30.1141 6.6124 38.3625 8.24115 40.3203 13.3807C42.2781 18.5206 37.2035 25.2243 28.9861 28.3547C20.7688 31.4847 12.5202 29.8561 10.5625 24.7164C8.60482 19.5768 13.6792 12.8729 21.8967 9.74265Z" stroke="#393185" stroke-miterlimit="22.926"/>
<path fill-rule="evenodd" clip-rule="evenodd" d="M34.8863 8.93642C34.8057 7.94772 34.7249 6.9589 34.6443 5.9702C34.5861 5.4606 34.9368 4.81475 35.7187 5.39472L38.3521 7.8317C39.041 8.36378 39.6689 8.59345 41.1069 8.26301C41.9794 8.08893 42.8522 7.91484 43.7252 7.74075C44.444 7.70054 44.3911 8.21252 44.0882 8.61864C43.5537 9.43089 43.0188 10.2431 42.484 11.0554C41.9619 11.7742 41.9771 12.2587 42.4385 12.8263L43.9974 14.9154C44.4313 15.5889 44.0705 15.9296 43.392 15.869L40.244 15.2182C39.2604 14.9332 38.8064 15.0265 38.4279 15.3393L36.2031 17.5187C35.2196 18.4007 34.5939 17.9157 34.6064 17.2463L34.7048 15.1727C34.6594 14.4536 34.4023 13.7956 33.5243 13.4928L30.8456 13.0845C29.8468 12.898 29.6954 11.8938 30.8909 11.4348C31.9907 10.9253 33.0906 10.4685 34.1902 9.95906C34.6038 9.76451 34.9269 9.53224 34.8863 8.93642Z" fill="#FFA910"/>
<path d="M34.8863 8.93642C34.8057 7.94772 34.7249 6.9589 34.6443 5.9702C34.5861 5.4606 34.9368 4.81475 35.7187 5.39472L38.3521 7.8317C39.041 8.36378 39.6689 8.59345 41.1069 8.26301C41.9794 8.08893 42.8522 7.91484 43.7252 7.74075C44.444 7.70054 44.3911 8.21252 44.0882 8.61864C43.5537 9.43089 43.0188 10.2431 42.484 11.0554C41.9619 11.7742 41.9771 12.2587 42.4385 12.8263L43.9974 14.9154C44.4313 15.5889 44.0705 15.9296 43.392 15.869L40.244 15.2182C39.2604 14.9332 38.8064 15.0265 38.4279 15.3393L36.2031 17.5187C35.2196 18.4007 34.5939 17.9157 34.6064 17.2463L34.7048 15.1727C34.6594 14.4536 34.4023 13.7956 33.5243 13.4928L30.8456 13.0845C29.8468 12.898 29.6954 11.8938 30.8909 11.4348C31.9907 10.9253 33.0906 10.4685 34.1902 9.95906C34.6038 9.76451 34.9269 9.53224 34.8863 8.93642Z" stroke="white" stroke-miterlimit="22.926"/>
<path fill-rule="evenodd" clip-rule="evenodd" d="M10.3994 33.9325C9.59724 34.7997 8.35982 34.7418 8.41789 33.3662L8.34173 31.2111C8.31275 30.5542 8.0003 30.1478 7.1767 29.8936L4.75982 29.4036C3.68183 29.1858 3.29002 28.2932 4.43305 27.6726C5.50702 27.1354 6.58111 26.5987 7.6552 26.0615C8.29762 25.7458 8.73307 25.4409 8.73307 24.6571C8.76204 23.8187 8.80214 22.926 8.75495 22.0985C8.75128 21.5034 8.93246 20.7884 9.85446 21.4346L12.652 24.1668C13.3125 24.6532 14.0275 24.7259 14.8297 24.6134L16.9854 23.6881C18.0958 23.2851 18.7925 24.1127 18.2918 24.8964L16.7132 26.9217C15.737 27.9777 16.1871 28.5328 16.6261 29.1426L18.259 31.1029C18.5893 31.9301 18.0267 32.3006 17.192 32.1481L15.352 31.8213C13.8749 31.4331 13.2687 31.219 12.1947 31.8975L10.3994 33.9325Z" fill="#FFED00"/>
<path d="M10.3994 33.9325C9.59724 34.7997 8.35982 34.7418 8.41789 33.3662L8.34173 31.2111C8.31275 30.5542 8.0003 30.1478 7.1767 29.8936L4.75982 29.4036C3.68183 29.1858 3.29002 28.2932 4.43305 27.6726C5.50702 27.1354 6.58111 26.5987 7.6552 26.0615C8.29762 25.7458 8.73307 25.4409 8.73307 24.6571C8.76204 23.8187 8.80214 22.926 8.75495 22.0985C8.75128 21.5034 8.93246 20.7884 9.85446 21.4346L12.652 24.1668C13.3125 24.6532 14.0275 24.7259 14.8297 24.6134L16.9854 23.6881C18.0958 23.2851 18.7925 24.1127 18.2918 24.8964L16.7132 26.9217C15.737 27.9777 16.1871 28.5328 16.6261 29.1426L18.259 31.1029C18.5893 31.9301 18.0267 32.3006 17.192 32.1481L15.352 31.8213C13.8749 31.4331 13.2687 31.219 12.1947 31.8975L10.3994 33.9325Z" stroke="white" stroke-miterlimit="22.926"/>
<path fill-rule="evenodd" clip-rule="evenodd" d="M37.0932 27.6759C36.2527 28.5939 34.9486 28.5394 35.0026 27.0899L34.911 24.8197C34.877 24.1277 34.5456 23.7012 33.6764 23.4378L31.1276 22.9343C29.9908 22.7107 29.573 21.7721 30.7742 21.1122C31.9028 20.5406 33.0317 19.9693 34.1603 19.3978C34.8354 19.0617 35.2928 18.738 35.2886 17.9123C35.3147 17.0289 35.3523 16.0879 35.2982 15.2166C35.291 14.5895 35.4783 13.8352 36.453 14.5111L39.4149 17.3753C40.1133 17.8839 40.8671 17.9568 41.7114 17.834L43.978 16.8477C45.1458 16.4172 45.8842 17.2856 45.3607 18.1139L43.7082 20.256C42.6853 21.3739 43.1624 21.9563 43.6282 22.5966L45.3591 24.653C45.7115 25.5229 45.1208 25.9162 44.2404 25.76L42.3001 25.4255C40.7417 25.0243 40.102 24.8019 38.9739 25.5226L37.0932 27.6759Z" fill="#FFED00"/>
<path d="M37.0932 27.6759C36.2527 28.5939 34.9486 28.5394 35.0026 27.0899L34.911 24.8197C34.877 24.1277 34.5456 23.7012 33.6764 23.4378L31.1276 22.9343C29.9908 22.7107 29.573 21.7721 30.7742 21.1122C31.9028 20.5406 33.0317 19.9693 34.1603 19.3978C34.8354 19.0617 35.2928 18.738 35.2886 17.9123C35.3147 17.0289 35.3523 16.0879 35.2982 15.2166C35.291 14.5895 35.4783 13.8352 36.453 14.5111L39.4149 17.3753C40.1133 17.8839 40.8671 17.9568 41.7114 17.834L43.978 16.8477C45.1458 16.4172 45.8842 17.2856 45.3607 18.1139L43.7082 20.256C42.6853 21.3739 43.1624 21.9563 43.6282 22.5966L45.3591 24.653C45.7115 25.5229 45.1208 25.9162 44.2404 25.76L42.3001 25.4255C40.7417 25.0243 40.102 24.8019 38.9739 25.5226L37.0932 27.6759Z" stroke="white" stroke-miterlimit="22.926"/>
<path fill-rule="evenodd" clip-rule="evenodd" d="M6.62455 17.3451C6.56483 16.6141 6.50511 15.8828 6.44538 15.1518C6.40245 14.775 6.66192 14.2975 7.24001 14.7266L9.18689 16.5281C9.69614 16.9219 10.1605 17.0916 11.2234 16.8471C11.8688 16.7183 12.5141 16.5898 13.1593 16.461C13.6908 16.4313 13.6518 16.8099 13.4278 17.1101C13.0324 17.7106 12.6371 18.3111 12.2417 18.9116C11.8558 19.4433 11.8669 19.8013 12.2082 20.2209L13.3607 21.7655C13.6815 22.2634 13.4149 22.5153 12.9131 22.4706L10.5856 21.9893C9.85829 21.7785 9.52265 21.8477 9.24283 22.0788L7.598 23.6903C6.87078 24.3424 6.40825 23.9837 6.41747 23.4889L6.4902 21.9558C6.4565 21.4242 6.26645 20.9376 5.6174 20.7138L3.63693 20.4118C2.89848 20.2739 2.78648 19.5316 3.6704 19.1921C4.48359 18.8153 5.29667 18.4779 6.10974 18.1011C6.41558 17.9571 6.65436 17.7854 6.62455 17.3451Z" fill="#FFA910"/>
<path d="M6.62455 17.3451C6.56483 16.6141 6.50511 15.8828 6.44538 15.1518C6.40245 14.775 6.66192 14.2975 7.24001 14.7266L9.18689 16.5281C9.69614 16.9219 10.1605 17.0916 11.2234 16.8471C11.8688 16.7183 12.5141 16.5898 13.1593 16.461C13.6908 16.4313 13.6518 16.8099 13.4278 17.1101C13.0324 17.7106 12.6371 18.3111 12.2417 18.9116C11.8558 19.4433 11.8669 19.8013 12.2082 20.2209L13.3607 21.7655C13.6815 22.2634 13.4149 22.5153 12.9131 22.4706L10.5856 21.9893C9.85829 21.7785 9.52265 21.8477 9.24283 22.0788L7.598 23.6903C6.87078 24.3424 6.40825 23.9837 6.41747 23.4889L6.4902 21.9558C6.4565 21.4242 6.26645 20.9376 5.6174 20.7138L3.63693 20.4118C2.89848 20.2739 2.78648 19.5316 3.6704 19.1921C4.48359 18.8153 5.29667 18.4779 6.10974 18.1011C6.41558 17.9571 6.65436 17.7854 6.62455 17.3451Z" stroke="white" stroke-miterlimit="22.926"/>
<path fill-rule="evenodd" clip-rule="evenodd" d="M22.2138 26.2074C22.0975 24.7847 21.9815 23.3623 21.8653 21.9396C21.7817 21.2065 22.2863 20.2774 23.4114 21.112L27.2001 24.6179C28.1909 25.3836 29.0945 25.714 31.1631 25.2385C32.4188 24.9881 33.6744 24.7375 34.9302 24.4873C35.9644 24.4293 35.8883 25.1657 35.4528 25.7502C34.6834 26.9188 33.914 28.0873 33.1446 29.256C32.3935 30.2902 32.4151 30.9871 33.0793 31.8037L35.3221 34.8096C35.9462 35.7785 35.4273 36.2685 34.451 36.1813L29.922 35.245C28.5067 34.835 27.8534 34.9692 27.3092 35.4192L24.1082 38.5549C22.693 39.8239 21.7929 39.1262 21.811 38.163L21.9526 35.1796C21.887 34.1452 21.5171 33.1982 20.2541 32.7628L16.4 32.1751C14.9629 31.9066 14.7452 30.4621 16.4654 29.8017C18.0475 29.0686 19.6301 28.4118 21.2122 27.6786C21.8072 27.3986 22.2721 27.0644 22.2138 26.2074Z" fill="#FFA910"/>
<path d="M22.2138 26.2074C22.0975 24.7847 21.9815 23.3623 21.8653 21.9396C21.7817 21.2065 22.2863 20.2774 23.4114 21.112L27.2001 24.6179C28.1909 25.3836 29.0945 25.714 31.1631 25.2385C32.4188 24.9881 33.6744 24.7375 34.9302 24.4873C35.9644 24.4293 35.8883 25.1657 35.4528 25.7502C34.6834 26.9188 33.914 28.0873 33.1446 29.256C32.3935 30.2902 32.4151 30.9871 33.0793 31.8037L35.3221 34.8096C35.9462 35.7785 35.4273 36.2685 34.451 36.1813L29.922 35.245C28.5067 34.835 27.8534 34.9692 27.3092 35.4192L24.1082 38.5549C22.693 39.8239 21.7929 39.1262 21.811 38.163L21.9526 35.1796C21.887 34.1452 21.5171 33.1982 20.2541 32.7628L16.4 32.1751C14.9629 31.9066 14.7452 30.4621 16.4654 29.8017C18.0475 29.0686 19.6301 28.4118 21.2122 27.6786C21.8072 27.3986 22.2721 27.0644 22.2138 26.2074Z" stroke="white" stroke-miterlimit="22.926"/>
<defs>
<linearGradient id="paint0_linear_229_1247" x1="25.4234" y1="28.798" x2="25.4858" y2="-5.0753" gradientUnits="userSpaceOnUse">
<stop stop-color="#F9AE51"/>
<stop offset="0.329965" stop-color="#F9AE51"/>
<stop offset="1" stop-color="#FFED63"/>
</linearGradient>
</defs>
</svg>
