<svg width="732" height="762" viewBox="0 0 732 762" fill="none" xmlns="http://www.w3.org/2000/svg">
<path fill-rule="evenodd" clip-rule="evenodd" d="M42.8885 271.546L42.8903 271.549L85.5458 332.234L29.6555 368.043C12.4272 379.079 3.81489 384.599 1.43918 391.196C-0.631159 396.94 -0.0543551 403.314 3.02043 408.623C6.55083 414.719 16.028 418.704 34.9791 426.672L87.2455 448.648L37.0113 512.7C24.4034 528.776 18.0995 536.814 18.0308 543.834C17.9707 549.947 20.6161 555.792 25.2628 559.811C30.5979 564.426 40.8448 565.1 61.3388 566.447L61.3399 566.447L165.32 573.282L159.295 634.378L159.295 634.381C157.288 654.724 156.285 664.896 159.99 670.887C163.219 676.107 168.581 679.657 174.65 680.595C181.619 681.672 190.614 676.792 208.604 667.033L208.606 667.031L230.698 655.047L246.964 722.391C251.772 742.301 254.178 752.257 259.642 756.716C264.405 760.6 270.628 762.208 276.66 761.111C283.588 759.854 290.463 752.295 304.212 737.178L388.538 644.465L388.539 644.463C388.93 644.033 389.309 643.617 389.675 643.215L448.61 700.579C463.335 714.912 470.698 722.078 477.695 722.953C483.789 723.716 489.896 721.768 494.391 717.629C499.553 712.877 501.294 702.808 504.776 682.67L504.776 682.669L506.293 673.896L541.559 690.485L541.56 690.486C560.164 699.237 569.464 703.612 576.35 702.154C582.349 700.885 587.467 697.046 590.341 691.659C593.64 685.474 591.966 675.376 588.618 655.181L588.618 655.177L568.078 531.305L568.073 531.276C568.022 530.968 567.972 530.666 567.923 530.369L679.741 516.794C700.109 514.322 710.294 513.085 715.312 508.187C719.685 503.917 721.938 497.94 721.473 491.841C720.941 484.836 714.117 477.16 700.467 461.807L687.125 446.799L698.961 441.009L698.993 440.993C717.363 432.005 726.547 427.511 729.668 421.235C732.387 415.766 732.54 409.373 730.093 403.75C727.283 397.296 718.322 392.264 700.395 382.196L610.92 331.935C611.601 330.806 612.353 329.58 613.179 328.232L678.64 221.419L678.641 221.418C689.314 204.003 694.649 195.297 693.913 188.311C693.272 182.225 689.975 176.715 684.9 173.25C679.073 169.272 668.823 169.768 648.324 170.762L648.319 170.762L598.18 173.192L600.644 161.824C604.973 141.853 607.137 131.868 604.141 125.495C601.532 119.948 596.612 115.811 590.682 114.19C583.88 112.329 574.377 116.148 555.374 123.79L487.957 150.897L446.137 36.8764L446.125 36.8426C439.073 17.6197 435.547 8.00837 429.611 4.19705C424.438 0.876062 418.075 -0.01135 412.209 1.76593C405.476 3.80585 399.52 12.101 387.604 28.6947L343.102 90.6547L320.642 63.16C307.649 47.252 301.152 39.2999 294.296 37.6358C288.326 36.1851 282.033 37.4212 277.089 41.0197C271.413 45.1515 268.526 54.9514 262.755 74.548L245.821 132.044L157.313 102.13C137.838 95.5472 128.101 92.256 121.429 94.4908C115.622 96.4364 110.981 100.833 108.745 106.517C106.179 113.039 108.997 122.887 114.64 142.583L136.492 218.874L69.8019 219.315L69.7994 219.315C49.2706 219.45 39.0057 219.518 33.4537 223.812C28.6164 227.554 25.6902 233.233 25.4528 239.341C25.1793 246.354 31.0826 254.752 42.8885 271.546Z" fill="#FFB3F4"/>
</svg>
