<svg width="14" height="16" viewBox="0 0 14 16" fill="none" xmlns="http://www.w3.org/2000/svg">
<path d="M12.7942 12.3067L11.8457 10.7476V10.7484C11.321 9.88819 10.1984 9.61516 9.3382 10.1399L8.55485 10.6168C8.32288 10.7613 8.02246 10.7301 7.82472 10.5415C6.57058 9.30714 5.64271 7.78065 5.12325 6.1C5.04948 5.8376 5.16052 5.5585 5.39476 5.41855L6.17812 4.94244L6.17736 4.94169C7.03831 4.41691 7.31057 3.29434 6.7858 2.43414L5.83663 0.875019C5.31186 0.0148326 4.18929 -0.257436 3.32909 0.26658L1.81637 1.18303C1.27181 1.51007 0.938695 2.09873 0.939454 2.73378C0.938694 5.43213 1.67871 8.07889 3.07804 10.3857C4.4843 12.6742 6.48296 14.5398 8.86278 15.7855C9.12974 15.9255 9.4271 15.9992 9.72904 16C10.0622 16 10.3892 15.908 10.6737 15.7346L12.1849 14.8143C13.045 14.2895 13.3173 13.167 12.7933 12.3067L12.7942 12.3067Z" fill="#FF451C"/>
</svg>
