<svg width="149" height="25" viewBox="0 0 149 25" fill="none" xmlns="http://www.w3.org/2000/svg">
<g clip-path="url(#clip0_297_1746)">
<path d="M12.9906 19.6632C12.6776 19.488 12.2961 19.488 11.9831 19.6632L7.16327 22.3611C6.39526 22.791 5.47636 22.1233 5.64788 21.2601L6.72437 15.8425C6.79425 15.4907 6.67636 15.1278 6.413 14.8843L2.35777 11.1341C1.71161 10.5366 2.0626 9.45633 2.93658 9.35273L8.42164 8.70235C8.77788 8.66011 9.08651 8.43589 9.23678 8.11013L11.5503 3.0945C11.9189 2.29532 13.0548 2.29532 13.4234 3.09451L15.7368 8.11013C15.8871 8.43584 16.1957 8.66011 16.5519 8.70235L22.037 9.35273C22.911 9.45633 23.262 10.5366 22.6158 11.1341L18.5606 14.8843C18.2973 15.1278 18.1794 15.4907 18.2493 15.8425L19.3257 21.2601C19.4973 22.1233 18.5784 22.791 17.8104 22.3611L12.9906 19.6632Z" fill="#FF451C"/>
<path d="M43.9125 19.6632C43.5995 19.488 43.218 19.488 42.905 19.6632L38.0852 22.3611C37.3172 22.791 36.3983 22.1233 36.5698 21.2601L37.6463 15.8425C37.7161 15.4907 37.5983 15.1278 37.3349 14.8843L33.2797 11.1341C32.6335 10.5366 32.9845 9.45633 33.8585 9.35273L39.3435 8.70235C39.6998 8.66011 40.0084 8.43589 40.1587 8.11013L42.4722 3.0945C42.8408 2.29532 43.9767 2.29532 44.3453 3.09451L46.6587 8.11013C46.809 8.43584 47.1176 8.66011 47.4738 8.70235L52.9589 9.35273C53.8329 9.45633 54.1839 10.5366 53.5377 11.1341L49.4825 14.8843C49.2192 15.1278 49.1013 15.4907 49.1712 15.8425L50.2476 21.2601C50.4192 22.1233 49.5003 22.791 48.7323 22.3611L43.9125 19.6632Z" fill="#FF451C"/>
<path d="M74.8363 19.6632C74.5233 19.488 74.1418 19.488 73.8288 19.6632L69.009 22.3611C68.241 22.791 67.3221 22.1233 67.4936 21.2601L68.5701 15.8425C68.6399 15.4907 68.5221 15.1278 68.2587 14.8843L64.2035 11.1341C63.5573 10.5366 63.9083 9.45633 64.7823 9.35273L70.2673 8.70235C70.6236 8.66011 70.9322 8.43589 71.0825 8.11013L73.396 3.0945C73.7646 2.29532 74.9005 2.29532 75.2691 3.09451L77.5825 8.11013C77.7328 8.43584 78.0414 8.66011 78.3976 8.70235L83.8827 9.35273C84.7567 9.45633 85.1077 10.5366 84.4615 11.1341L80.4063 14.8843C80.143 15.1278 80.0251 15.4907 80.095 15.8425L81.1714 21.2601C81.343 22.1233 80.4241 22.791 79.6561 22.3611L74.8363 19.6632Z" fill="#FF451C"/>
<path d="M105.758 19.6632C105.445 19.488 105.063 19.488 104.75 19.6632L99.9309 22.3611C99.1629 22.791 98.244 22.1233 98.4155 21.2601L99.492 15.8425C99.5619 15.4907 99.444 15.1278 99.1806 14.8843L95.1254 11.1341C94.4792 10.5366 94.8302 9.45633 95.7042 9.35273L101.189 8.70235C101.545 8.66011 101.854 8.43589 102.004 8.11013L104.318 3.0945C104.686 2.29532 105.822 2.29532 106.191 3.09451L108.504 8.11013C108.654 8.43584 108.963 8.66011 109.319 8.70235L114.804 9.35273C115.678 9.45633 116.029 10.5366 115.383 11.1341L111.328 14.8843C111.065 15.1278 110.947 15.4907 111.017 15.8425L112.093 21.2601C112.265 22.1233 111.346 22.791 110.578 22.3611L105.758 19.6632Z" fill="#FF451C"/>
<path d="M136.682 19.6632C136.369 19.488 135.987 19.488 135.674 19.6632L130.854 22.3611C130.086 22.791 129.168 22.1233 129.339 21.2601L130.416 15.8425C130.485 15.4907 130.368 15.1278 130.104 14.8843L126.049 11.1341C125.403 10.5366 125.754 9.45633 126.628 9.35273L132.113 8.70235C132.469 8.66011 132.778 8.43589 132.928 8.11013L135.242 3.0945C135.61 2.29532 136.746 2.29532 137.115 3.09451L139.428 8.11013C139.578 8.43584 139.887 8.66011 140.243 8.70235L145.728 9.35273C146.602 9.45633 146.953 10.5366 146.307 11.1341L142.252 14.8843C141.989 15.1278 141.871 15.4907 141.941 15.8425L143.017 21.2601C143.188 22.1233 142.27 22.791 141.502 22.3611L136.682 19.6632Z" fill="#FF451C"/>
<mask id="mask0_297_1746" style="mask-type:luminance" maskUnits="userSpaceOnUse" x="-1" y="0" width="151" height="26">
<path d="M149.025 0.495117H-0.974609V25.4951H149.025V0.495117Z" fill="white"/>
<path d="M12.9906 19.6632C12.6776 19.488 12.2961 19.488 11.9831 19.6632L7.16327 22.3611C6.39526 22.791 5.47636 22.1233 5.64788 21.2601L6.72437 15.8425C6.79425 15.4907 6.67636 15.1278 6.413 14.8843L2.35777 11.1341C1.71161 10.5366 2.0626 9.45633 2.93658 9.35273L8.42164 8.70235C8.77788 8.66011 9.08651 8.43589 9.23678 8.11013L11.5503 3.0945C11.9189 2.29532 13.0548 2.29532 13.4234 3.09451L15.7368 8.11013C15.8871 8.43584 16.1957 8.66011 16.5519 8.70235L22.037 9.35273C22.911 9.45633 23.262 10.5366 22.6158 11.1341L18.5606 14.8843C18.2973 15.1278 18.1794 15.4907 18.2493 15.8425L19.3257 21.2601C19.4973 22.1233 18.5784 22.791 17.8104 22.3611L12.9906 19.6632Z" fill="black"/>
<path d="M43.9125 19.6632C43.5995 19.488 43.218 19.488 42.905 19.6632L38.0852 22.3611C37.3172 22.791 36.3983 22.1233 36.5698 21.2601L37.6463 15.8425C37.7161 15.4907 37.5983 15.1278 37.3349 14.8843L33.2797 11.1341C32.6335 10.5366 32.9845 9.45633 33.8585 9.35273L39.3435 8.70235C39.6998 8.66011 40.0084 8.43589 40.1587 8.11013L42.4722 3.0945C42.8408 2.29532 43.9767 2.29532 44.3453 3.09451L46.6587 8.11013C46.809 8.43584 47.1176 8.66011 47.4738 8.70235L52.9589 9.35273C53.8329 9.45633 54.1839 10.5366 53.5377 11.1341L49.4825 14.8843C49.2192 15.1278 49.1013 15.4907 49.1712 15.8425L50.2476 21.2601C50.4192 22.1233 49.5003 22.791 48.7323 22.3611L43.9125 19.6632Z" fill="black"/>
<path d="M74.8363 19.6632C74.5233 19.488 74.1418 19.488 73.8288 19.6632L69.009 22.3611C68.241 22.791 67.3221 22.1233 67.4936 21.2601L68.5701 15.8425C68.6399 15.4907 68.5221 15.1278 68.2587 14.8843L64.2035 11.1341C63.5573 10.5366 63.9083 9.45633 64.7823 9.35273L70.2673 8.70235C70.6236 8.66011 70.9322 8.43589 71.0825 8.11013L73.396 3.0945C73.7646 2.29532 74.9005 2.29532 75.2691 3.09451L77.5825 8.11013C77.7328 8.43584 78.0414 8.66011 78.3976 8.70235L83.8827 9.35273C84.7567 9.45633 85.1077 10.5366 84.4615 11.1341L80.4063 14.8843C80.143 15.1278 80.0251 15.4907 80.095 15.8425L81.1714 21.2601C81.343 22.1233 80.4241 22.791 79.6561 22.3611L74.8363 19.6632Z" fill="black"/>
<path d="M105.758 19.6632C105.445 19.488 105.063 19.488 104.75 19.6632L99.9309 22.3611C99.1629 22.791 98.244 22.1233 98.4155 21.2601L99.492 15.8425C99.5619 15.4907 99.444 15.1278 99.1806 14.8843L95.1254 11.1341C94.4792 10.5366 94.8302 9.45633 95.7042 9.35273L101.189 8.70235C101.545 8.66011 101.854 8.43589 102.004 8.11013L104.318 3.0945C104.686 2.29532 105.822 2.29532 106.191 3.09451L108.504 8.11013C108.654 8.43584 108.963 8.66011 109.319 8.70235L114.804 9.35273C115.678 9.45633 116.029 10.5366 115.383 11.1341L111.328 14.8843C111.065 15.1278 110.947 15.4907 111.017 15.8425L112.093 21.2601C112.265 22.1233 111.346 22.791 110.578 22.3611L105.758 19.6632Z" fill="black"/>
<path d="M136.682 19.6632C136.369 19.488 135.987 19.488 135.674 19.6632L130.854 22.3611C130.086 22.791 129.168 22.1233 129.339 21.2601L130.416 15.8425C130.485 15.4907 130.368 15.1278 130.104 14.8843L126.049 11.1341C125.403 10.5366 125.754 9.45633 126.628 9.35273L132.113 8.70235C132.469 8.66011 132.778 8.43589 132.928 8.11013L135.242 3.0945C135.61 2.29532 136.746 2.29532 137.115 3.09451L139.428 8.11013C139.578 8.43584 139.887 8.66011 140.243 8.70235L145.728 9.35273C146.602 9.45633 146.953 10.5366 146.307 11.1341L142.252 14.8843C141.989 15.1278 141.871 15.4907 141.941 15.8425L143.017 21.2601C143.188 22.1233 142.27 22.791 141.502 22.3611L136.682 19.6632Z" fill="black"/>
</mask>
<g mask="url(#mask0_297_1746)">
<path d="M12.9906 19.6632C12.6776 19.488 12.2961 19.488 11.9831 19.6632L7.16327 22.3611C6.39526 22.791 5.47636 22.1233 5.64788 21.2601L6.72437 15.8425C6.79425 15.4907 6.67636 15.1278 6.413 14.8843L2.35777 11.1341C1.71161 10.5366 2.0626 9.45633 2.93658 9.35273L8.42164 8.70235C8.77788 8.66011 9.08651 8.43589 9.23678 8.11013L11.5503 3.0945C11.9189 2.29532 13.0548 2.29532 13.4234 3.09451L15.7368 8.11013C15.8871 8.43584 16.1957 8.66011 16.5519 8.70235L22.037 9.35273C22.911 9.45633 23.262 10.5366 22.6158 11.1341L18.5606 14.8843C18.2973 15.1278 18.1794 15.4907 18.2493 15.8425L19.3257 21.2601C19.4973 22.1233 18.5784 22.791 17.8104 22.3611L12.9906 19.6632Z" stroke="#13130F" stroke-width="4"/>
</g>
<mask id="mask1_297_1746" style="mask-type:luminance" maskUnits="userSpaceOnUse" x="-1" y="0" width="151" height="26">
<path d="M149.025 0.495117H-0.974609V25.4951H149.025V0.495117Z" fill="white"/>
<path d="M12.9906 19.6632C12.6776 19.488 12.2961 19.488 11.9831 19.6632L7.16327 22.3611C6.39526 22.791 5.47636 22.1233 5.64788 21.2601L6.72437 15.8425C6.79425 15.4907 6.67636 15.1278 6.413 14.8843L2.35777 11.1341C1.71161 10.5366 2.0626 9.45633 2.93658 9.35273L8.42164 8.70235C8.77788 8.66011 9.08651 8.43589 9.23678 8.11013L11.5503 3.0945C11.9189 2.29532 13.0548 2.29532 13.4234 3.09451L15.7368 8.11013C15.8871 8.43584 16.1957 8.66011 16.5519 8.70235L22.037 9.35273C22.911 9.45633 23.262 10.5366 22.6158 11.1341L18.5606 14.8843C18.2973 15.1278 18.1794 15.4907 18.2493 15.8425L19.3257 21.2601C19.4973 22.1233 18.5784 22.791 17.8104 22.3611L12.9906 19.6632Z" fill="black"/>
<path d="M43.9125 19.6632C43.5995 19.488 43.218 19.488 42.905 19.6632L38.0852 22.3611C37.3172 22.791 36.3983 22.1233 36.5698 21.2601L37.6463 15.8425C37.7161 15.4907 37.5983 15.1278 37.3349 14.8843L33.2797 11.1341C32.6335 10.5366 32.9845 9.45633 33.8585 9.35273L39.3435 8.70235C39.6998 8.66011 40.0084 8.43589 40.1587 8.11013L42.4722 3.0945C42.8408 2.29532 43.9767 2.29532 44.3453 3.09451L46.6587 8.11013C46.809 8.43584 47.1176 8.66011 47.4738 8.70235L52.9589 9.35273C53.8329 9.45633 54.1839 10.5366 53.5377 11.1341L49.4825 14.8843C49.2192 15.1278 49.1013 15.4907 49.1712 15.8425L50.2476 21.2601C50.4192 22.1233 49.5003 22.791 48.7323 22.3611L43.9125 19.6632Z" fill="black"/>
<path d="M74.8363 19.6632C74.5233 19.488 74.1418 19.488 73.8288 19.6632L69.009 22.3611C68.241 22.791 67.3221 22.1233 67.4936 21.2601L68.5701 15.8425C68.6399 15.4907 68.5221 15.1278 68.2587 14.8843L64.2035 11.1341C63.5573 10.5366 63.9083 9.45633 64.7823 9.35273L70.2673 8.70235C70.6236 8.66011 70.9322 8.43589 71.0825 8.11013L73.396 3.0945C73.7646 2.29532 74.9005 2.29532 75.2691 3.09451L77.5825 8.11013C77.7328 8.43584 78.0414 8.66011 78.3976 8.70235L83.8827 9.35273C84.7567 9.45633 85.1077 10.5366 84.4615 11.1341L80.4063 14.8843C80.143 15.1278 80.0251 15.4907 80.095 15.8425L81.1714 21.2601C81.343 22.1233 80.4241 22.791 79.6561 22.3611L74.8363 19.6632Z" fill="black"/>
<path d="M105.758 19.6632C105.445 19.488 105.063 19.488 104.75 19.6632L99.9309 22.3611C99.1629 22.791 98.244 22.1233 98.4155 21.2601L99.492 15.8425C99.5619 15.4907 99.444 15.1278 99.1806 14.8843L95.1254 11.1341C94.4792 10.5366 94.8302 9.45633 95.7042 9.35273L101.189 8.70235C101.545 8.66011 101.854 8.43589 102.004 8.11013L104.318 3.0945C104.686 2.29532 105.822 2.29532 106.191 3.09451L108.504 8.11013C108.654 8.43584 108.963 8.66011 109.319 8.70235L114.804 9.35273C115.678 9.45633 116.029 10.5366 115.383 11.1341L111.328 14.8843C111.065 15.1278 110.947 15.4907 111.017 15.8425L112.093 21.2601C112.265 22.1233 111.346 22.791 110.578 22.3611L105.758 19.6632Z" fill="black"/>
<path d="M136.682 19.6632C136.369 19.488 135.987 19.488 135.674 19.6632L130.854 22.3611C130.086 22.791 129.168 22.1233 129.339 21.2601L130.416 15.8425C130.485 15.4907 130.368 15.1278 130.104 14.8843L126.049 11.1341C125.403 10.5366 125.754 9.45633 126.628 9.35273L132.113 8.70235C132.469 8.66011 132.778 8.43589 132.928 8.11013L135.242 3.0945C135.61 2.29532 136.746 2.29532 137.115 3.09451L139.428 8.11013C139.578 8.43584 139.887 8.66011 140.243 8.70235L145.728 9.35273C146.602 9.45633 146.953 10.5366 146.307 11.1341L142.252 14.8843C141.989 15.1278 141.871 15.4907 141.941 15.8425L143.017 21.2601C143.188 22.1233 142.27 22.791 141.502 22.3611L136.682 19.6632Z" fill="black"/>
</mask>
<g mask="url(#mask1_297_1746)">
<path d="M43.9125 19.6632C43.5995 19.488 43.218 19.488 42.905 19.6632L38.0852 22.3611C37.3172 22.791 36.3983 22.1233 36.5698 21.2601L37.6463 15.8425C37.7161 15.4907 37.5983 15.1278 37.3349 14.8843L33.2797 11.1341C32.6335 10.5366 32.9845 9.45633 33.8585 9.35273L39.3435 8.70235C39.6998 8.66011 40.0084 8.43589 40.1587 8.11013L42.4722 3.0945C42.8408 2.29532 43.9767 2.29532 44.3453 3.09451L46.6587 8.11013C46.809 8.43584 47.1176 8.66011 47.4738 8.70235L52.9589 9.35273C53.8329 9.45633 54.1839 10.5366 53.5377 11.1341L49.4825 14.8843C49.2192 15.1278 49.1013 15.4907 49.1712 15.8425L50.2476 21.2601C50.4192 22.1233 49.5003 22.791 48.7323 22.3611L43.9125 19.6632Z" stroke="#13130F" stroke-width="4"/>
</g>
<mask id="mask2_297_1746" style="mask-type:luminance" maskUnits="userSpaceOnUse" x="-1" y="0" width="151" height="26">
<path d="M149.025 0.495117H-0.974609V25.4951H149.025V0.495117Z" fill="white"/>
<path d="M12.9906 19.6632C12.6776 19.488 12.2961 19.488 11.9831 19.6632L7.16327 22.3611C6.39526 22.791 5.47636 22.1233 5.64788 21.2601L6.72437 15.8425C6.79425 15.4907 6.67636 15.1278 6.413 14.8843L2.35777 11.1341C1.71161 10.5366 2.0626 9.45633 2.93658 9.35273L8.42164 8.70235C8.77788 8.66011 9.08651 8.43589 9.23678 8.11013L11.5503 3.0945C11.9189 2.29532 13.0548 2.29532 13.4234 3.09451L15.7368 8.11013C15.8871 8.43584 16.1957 8.66011 16.5519 8.70235L22.037 9.35273C22.911 9.45633 23.262 10.5366 22.6158 11.1341L18.5606 14.8843C18.2973 15.1278 18.1794 15.4907 18.2493 15.8425L19.3257 21.2601C19.4973 22.1233 18.5784 22.791 17.8104 22.3611L12.9906 19.6632Z" fill="black"/>
<path d="M43.9125 19.6632C43.5995 19.488 43.218 19.488 42.905 19.6632L38.0852 22.3611C37.3172 22.791 36.3983 22.1233 36.5698 21.2601L37.6463 15.8425C37.7161 15.4907 37.5983 15.1278 37.3349 14.8843L33.2797 11.1341C32.6335 10.5366 32.9845 9.45633 33.8585 9.35273L39.3435 8.70235C39.6998 8.66011 40.0084 8.43589 40.1587 8.11013L42.4722 3.0945C42.8408 2.29532 43.9767 2.29532 44.3453 3.09451L46.6587 8.11013C46.809 8.43584 47.1176 8.66011 47.4738 8.70235L52.9589 9.35273C53.8329 9.45633 54.1839 10.5366 53.5377 11.1341L49.4825 14.8843C49.2192 15.1278 49.1013 15.4907 49.1712 15.8425L50.2476 21.2601C50.4192 22.1233 49.5003 22.791 48.7323 22.3611L43.9125 19.6632Z" fill="black"/>
<path d="M74.8363 19.6632C74.5233 19.488 74.1418 19.488 73.8288 19.6632L69.009 22.3611C68.241 22.791 67.3221 22.1233 67.4936 21.2601L68.5701 15.8425C68.6399 15.4907 68.5221 15.1278 68.2587 14.8843L64.2035 11.1341C63.5573 10.5366 63.9083 9.45633 64.7823 9.35273L70.2673 8.70235C70.6236 8.66011 70.9322 8.43589 71.0825 8.11013L73.396 3.0945C73.7646 2.29532 74.9005 2.29532 75.2691 3.09451L77.5825 8.11013C77.7328 8.43584 78.0414 8.66011 78.3976 8.70235L83.8827 9.35273C84.7567 9.45633 85.1077 10.5366 84.4615 11.1341L80.4063 14.8843C80.143 15.1278 80.0251 15.4907 80.095 15.8425L81.1714 21.2601C81.343 22.1233 80.4241 22.791 79.6561 22.3611L74.8363 19.6632Z" fill="black"/>
<path d="M105.758 19.6632C105.445 19.488 105.063 19.488 104.75 19.6632L99.9309 22.3611C99.1629 22.791 98.244 22.1233 98.4155 21.2601L99.492 15.8425C99.5619 15.4907 99.444 15.1278 99.1806 14.8843L95.1254 11.1341C94.4792 10.5366 94.8302 9.45633 95.7042 9.35273L101.189 8.70235C101.545 8.66011 101.854 8.43589 102.004 8.11013L104.318 3.0945C104.686 2.29532 105.822 2.29532 106.191 3.09451L108.504 8.11013C108.654 8.43584 108.963 8.66011 109.319 8.70235L114.804 9.35273C115.678 9.45633 116.029 10.5366 115.383 11.1341L111.328 14.8843C111.065 15.1278 110.947 15.4907 111.017 15.8425L112.093 21.2601C112.265 22.1233 111.346 22.791 110.578 22.3611L105.758 19.6632Z" fill="black"/>
<path d="M136.682 19.6632C136.369 19.488 135.987 19.488 135.674 19.6632L130.854 22.3611C130.086 22.791 129.168 22.1233 129.339 21.2601L130.416 15.8425C130.485 15.4907 130.368 15.1278 130.104 14.8843L126.049 11.1341C125.403 10.5366 125.754 9.45633 126.628 9.35273L132.113 8.70235C132.469 8.66011 132.778 8.43589 132.928 8.11013L135.242 3.0945C135.61 2.29532 136.746 2.29532 137.115 3.09451L139.428 8.11013C139.578 8.43584 139.887 8.66011 140.243 8.70235L145.728 9.35273C146.602 9.45633 146.953 10.5366 146.307 11.1341L142.252 14.8843C141.989 15.1278 141.871 15.4907 141.941 15.8425L143.017 21.2601C143.188 22.1233 142.27 22.791 141.502 22.3611L136.682 19.6632Z" fill="black"/>
</mask>
<g mask="url(#mask2_297_1746)">
<path d="M74.8363 19.6632C74.5233 19.488 74.1418 19.488 73.8288 19.6632L69.009 22.3611C68.241 22.791 67.3221 22.1233 67.4936 21.2601L68.5701 15.8425C68.6399 15.4907 68.5221 15.1278 68.2587 14.8843L64.2035 11.1341C63.5573 10.5366 63.9083 9.45633 64.7823 9.35273L70.2673 8.70235C70.6236 8.66011 70.9322 8.43589 71.0825 8.11013L73.396 3.0945C73.7646 2.29532 74.9005 2.29532 75.2691 3.09451L77.5825 8.11013C77.7328 8.43584 78.0414 8.66011 78.3976 8.70235L83.8827 9.35273C84.7567 9.45633 85.1077 10.5366 84.4615 11.1341L80.4063 14.8843C80.143 15.1278 80.0251 15.4907 80.095 15.8425L81.1714 21.2601C81.343 22.1233 80.4241 22.791 79.6561 22.3611L74.8363 19.6632Z" stroke="#13130F" stroke-width="4"/>
</g>
<mask id="mask3_297_1746" style="mask-type:luminance" maskUnits="userSpaceOnUse" x="-1" y="0" width="151" height="26">
<path d="M149.025 0.495117H-0.974609V25.4951H149.025V0.495117Z" fill="white"/>
<path d="M12.9906 19.6632C12.6776 19.488 12.2961 19.488 11.9831 19.6632L7.16327 22.3611C6.39526 22.791 5.47636 22.1233 5.64788 21.2601L6.72437 15.8425C6.79425 15.4907 6.67636 15.1278 6.413 14.8843L2.35777 11.1341C1.71161 10.5366 2.0626 9.45633 2.93658 9.35273L8.42164 8.70235C8.77788 8.66011 9.08651 8.43589 9.23678 8.11013L11.5503 3.0945C11.9189 2.29532 13.0548 2.29532 13.4234 3.09451L15.7368 8.11013C15.8871 8.43584 16.1957 8.66011 16.5519 8.70235L22.037 9.35273C22.911 9.45633 23.262 10.5366 22.6158 11.1341L18.5606 14.8843C18.2973 15.1278 18.1794 15.4907 18.2493 15.8425L19.3257 21.2601C19.4973 22.1233 18.5784 22.791 17.8104 22.3611L12.9906 19.6632Z" fill="black"/>
<path d="M43.9125 19.6632C43.5995 19.488 43.218 19.488 42.905 19.6632L38.0852 22.3611C37.3172 22.791 36.3983 22.1233 36.5698 21.2601L37.6463 15.8425C37.7161 15.4907 37.5983 15.1278 37.3349 14.8843L33.2797 11.1341C32.6335 10.5366 32.9845 9.45633 33.8585 9.35273L39.3435 8.70235C39.6998 8.66011 40.0084 8.43589 40.1587 8.11013L42.4722 3.0945C42.8408 2.29532 43.9767 2.29532 44.3453 3.09451L46.6587 8.11013C46.809 8.43584 47.1176 8.66011 47.4738 8.70235L52.9589 9.35273C53.8329 9.45633 54.1839 10.5366 53.5377 11.1341L49.4825 14.8843C49.2192 15.1278 49.1013 15.4907 49.1712 15.8425L50.2476 21.2601C50.4192 22.1233 49.5003 22.791 48.7323 22.3611L43.9125 19.6632Z" fill="black"/>
<path d="M74.8363 19.6632C74.5233 19.488 74.1418 19.488 73.8288 19.6632L69.009 22.3611C68.241 22.791 67.3221 22.1233 67.4936 21.2601L68.5701 15.8425C68.6399 15.4907 68.5221 15.1278 68.2587 14.8843L64.2035 11.1341C63.5573 10.5366 63.9083 9.45633 64.7823 9.35273L70.2673 8.70235C70.6236 8.66011 70.9322 8.43589 71.0825 8.11013L73.396 3.0945C73.7646 2.29532 74.9005 2.29532 75.2691 3.09451L77.5825 8.11013C77.7328 8.43584 78.0414 8.66011 78.3976 8.70235L83.8827 9.35273C84.7567 9.45633 85.1077 10.5366 84.4615 11.1341L80.4063 14.8843C80.143 15.1278 80.0251 15.4907 80.095 15.8425L81.1714 21.2601C81.343 22.1233 80.4241 22.791 79.6561 22.3611L74.8363 19.6632Z" fill="black"/>
<path d="M105.758 19.6632C105.445 19.488 105.063 19.488 104.75 19.6632L99.9309 22.3611C99.1629 22.791 98.244 22.1233 98.4155 21.2601L99.492 15.8425C99.5619 15.4907 99.444 15.1278 99.1806 14.8843L95.1254 11.1341C94.4792 10.5366 94.8302 9.45633 95.7042 9.35273L101.189 8.70235C101.545 8.66011 101.854 8.43589 102.004 8.11013L104.318 3.0945C104.686 2.29532 105.822 2.29532 106.191 3.09451L108.504 8.11013C108.654 8.43584 108.963 8.66011 109.319 8.70235L114.804 9.35273C115.678 9.45633 116.029 10.5366 115.383 11.1341L111.328 14.8843C111.065 15.1278 110.947 15.4907 111.017 15.8425L112.093 21.2601C112.265 22.1233 111.346 22.791 110.578 22.3611L105.758 19.6632Z" fill="black"/>
<path d="M136.682 19.6632C136.369 19.488 135.987 19.488 135.674 19.6632L130.854 22.3611C130.086 22.791 129.168 22.1233 129.339 21.2601L130.416 15.8425C130.485 15.4907 130.368 15.1278 130.104 14.8843L126.049 11.1341C125.403 10.5366 125.754 9.45633 126.628 9.35273L132.113 8.70235C132.469 8.66011 132.778 8.43589 132.928 8.11013L135.242 3.0945C135.61 2.29532 136.746 2.29532 137.115 3.09451L139.428 8.11013C139.578 8.43584 139.887 8.66011 140.243 8.70235L145.728 9.35273C146.602 9.45633 146.953 10.5366 146.307 11.1341L142.252 14.8843C141.989 15.1278 141.871 15.4907 141.941 15.8425L143.017 21.2601C143.188 22.1233 142.27 22.791 141.502 22.3611L136.682 19.6632Z" fill="black"/>
</mask>
<g mask="url(#mask3_297_1746)">
<path d="M105.758 19.6632C105.445 19.488 105.063 19.488 104.75 19.6632L99.9309 22.3611C99.1629 22.791 98.244 22.1233 98.4155 21.2601L99.492 15.8425C99.5619 15.4907 99.444 15.1278 99.1806 14.8843L95.1254 11.1341C94.4792 10.5366 94.8302 9.45633 95.7042 9.35273L101.189 8.70235C101.545 8.66011 101.854 8.43589 102.004 8.11013L104.318 3.0945C104.686 2.29532 105.822 2.29532 106.191 3.09451L108.504 8.11013C108.654 8.43584 108.963 8.66011 109.319 8.70235L114.804 9.35273C115.678 9.45633 116.029 10.5366 115.383 11.1341L111.328 14.8843C111.065 15.1278 110.947 15.4907 111.017 15.8425L112.093 21.2601C112.265 22.1233 111.346 22.791 110.578 22.3611L105.758 19.6632Z" stroke="#13130F" stroke-width="4"/>
</g>
<mask id="mask4_297_1746" style="mask-type:luminance" maskUnits="userSpaceOnUse" x="-1" y="0" width="151" height="26">
<path d="M149.025 0.495117H-0.974609V25.4951H149.025V0.495117Z" fill="white"/>
<path d="M12.9906 19.6632C12.6776 19.488 12.2961 19.488 11.9831 19.6632L7.16327 22.3611C6.39526 22.791 5.47636 22.1233 5.64788 21.2601L6.72437 15.8425C6.79425 15.4907 6.67636 15.1278 6.413 14.8843L2.35777 11.1341C1.71161 10.5366 2.0626 9.45633 2.93658 9.35273L8.42164 8.70235C8.77788 8.66011 9.08651 8.43589 9.23678 8.11013L11.5503 3.0945C11.9189 2.29532 13.0548 2.29532 13.4234 3.09451L15.7368 8.11013C15.8871 8.43584 16.1957 8.66011 16.5519 8.70235L22.037 9.35273C22.911 9.45633 23.262 10.5366 22.6158 11.1341L18.5606 14.8843C18.2973 15.1278 18.1794 15.4907 18.2493 15.8425L19.3257 21.2601C19.4973 22.1233 18.5784 22.791 17.8104 22.3611L12.9906 19.6632Z" fill="black"/>
<path d="M43.9125 19.6632C43.5995 19.488 43.218 19.488 42.905 19.6632L38.0852 22.3611C37.3172 22.791 36.3983 22.1233 36.5698 21.2601L37.6463 15.8425C37.7161 15.4907 37.5983 15.1278 37.3349 14.8843L33.2797 11.1341C32.6335 10.5366 32.9845 9.45633 33.8585 9.35273L39.3435 8.70235C39.6998 8.66011 40.0084 8.43589 40.1587 8.11013L42.4722 3.0945C42.8408 2.29532 43.9767 2.29532 44.3453 3.09451L46.6587 8.11013C46.809 8.43584 47.1176 8.66011 47.4738 8.70235L52.9589 9.35273C53.8329 9.45633 54.1839 10.5366 53.5377 11.1341L49.4825 14.8843C49.2192 15.1278 49.1013 15.4907 49.1712 15.8425L50.2476 21.2601C50.4192 22.1233 49.5003 22.791 48.7323 22.3611L43.9125 19.6632Z" fill="black"/>
<path d="M74.8363 19.6632C74.5233 19.488 74.1418 19.488 73.8288 19.6632L69.009 22.3611C68.241 22.791 67.3221 22.1233 67.4936 21.2601L68.5701 15.8425C68.6399 15.4907 68.5221 15.1278 68.2587 14.8843L64.2035 11.1341C63.5573 10.5366 63.9083 9.45633 64.7823 9.35273L70.2673 8.70235C70.6236 8.66011 70.9322 8.43589 71.0825 8.11013L73.396 3.0945C73.7646 2.29532 74.9005 2.29532 75.2691 3.09451L77.5825 8.11013C77.7328 8.43584 78.0414 8.66011 78.3976 8.70235L83.8827 9.35273C84.7567 9.45633 85.1077 10.5366 84.4615 11.1341L80.4063 14.8843C80.143 15.1278 80.0251 15.4907 80.095 15.8425L81.1714 21.2601C81.343 22.1233 80.4241 22.791 79.6561 22.3611L74.8363 19.6632Z" fill="black"/>
<path d="M105.758 19.6632C105.445 19.488 105.063 19.488 104.75 19.6632L99.9309 22.3611C99.1629 22.791 98.244 22.1233 98.4155 21.2601L99.492 15.8425C99.5619 15.4907 99.444 15.1278 99.1806 14.8843L95.1254 11.1341C94.4792 10.5366 94.8302 9.45633 95.7042 9.35273L101.189 8.70235C101.545 8.66011 101.854 8.43589 102.004 8.11013L104.318 3.0945C104.686 2.29532 105.822 2.29532 106.191 3.09451L108.504 8.11013C108.654 8.43584 108.963 8.66011 109.319 8.70235L114.804 9.35273C115.678 9.45633 116.029 10.5366 115.383 11.1341L111.328 14.8843C111.065 15.1278 110.947 15.4907 111.017 15.8425L112.093 21.2601C112.265 22.1233 111.346 22.791 110.578 22.3611L105.758 19.6632Z" fill="black"/>
<path d="M136.682 19.6632C136.369 19.488 135.987 19.488 135.674 19.6632L130.854 22.3611C130.086 22.791 129.168 22.1233 129.339 21.2601L130.416 15.8425C130.485 15.4907 130.368 15.1278 130.104 14.8843L126.049 11.1341C125.403 10.5366 125.754 9.45633 126.628 9.35273L132.113 8.70235C132.469 8.66011 132.778 8.43589 132.928 8.11013L135.242 3.0945C135.61 2.29532 136.746 2.29532 137.115 3.09451L139.428 8.11013C139.578 8.43584 139.887 8.66011 140.243 8.70235L145.728 9.35273C146.602 9.45633 146.953 10.5366 146.307 11.1341L142.252 14.8843C141.989 15.1278 141.871 15.4907 141.941 15.8425L143.017 21.2601C143.188 22.1233 142.27 22.791 141.502 22.3611L136.682 19.6632Z" fill="black"/>
</mask>
<g mask="url(#mask4_297_1746)">
<path d="M136.682 19.6632C136.369 19.488 135.987 19.488 135.674 19.6632L130.854 22.3611C130.086 22.791 129.168 22.1233 129.339 21.2601L130.416 15.8425C130.485 15.4907 130.368 15.1278 130.104 14.8843L126.049 11.1341C125.403 10.5366 125.754 9.45633 126.628 9.35273L132.113 8.70235C132.469 8.66011 132.778 8.43589 132.928 8.11013L135.242 3.0945C135.61 2.29532 136.746 2.29532 137.115 3.09451L139.428 8.11013C139.578 8.43584 139.887 8.66011 140.243 8.70235L145.728 9.35273C146.602 9.45633 146.953 10.5366 146.307 11.1341L142.252 14.8843C141.989 15.1278 141.871 15.4907 141.941 15.8425L143.017 21.2601C143.188 22.1233 142.27 22.791 141.502 22.3611L136.682 19.6632Z" stroke="#13130F" stroke-width="4"/>
</g>
</g>
<defs>
<clipPath id="clip0_297_1746">
<rect width="149" height="25" fill="white"/>
</clipPath>
</defs>
</svg>
