<svg width="84" height="81" viewBox="0 0 84 81" fill="none" xmlns="http://www.w3.org/2000/svg">
<g clip-path="url(#clip0_121_3785)">
<path d="M46.2708 33.7306L46.2485 33.5511L48.9868 33.5088C49.8877 22.4684 51.182 11.165 58.3467 3.6694L58.3471 3.66906C59.099 2.88195 60.0375 2.19028 60.9348 1.84434C61.8198 1.50315 62.4666 1.55846 62.9528 1.88508L62.953 1.88521C63.4151 2.19549 63.7142 2.73671 63.805 3.63969C63.8971 4.55647 63.7462 5.64822 63.4879 6.70661C61.1273 16.3485 56.7607 25.3859 50.6723 33.2308L52.901 35.2278C59.9643 28.3847 67.3606 21.6588 76.4575 20.6534C78.388 20.4403 80.0289 20.6441 81.0076 21.5349C82.0849 22.5158 82.3299 24.5106 81.5256 26.2269C80.7206 27.9445 79.1474 29.3017 77.2755 30.5991C70.17 35.4988 61.765 38.1746 53.1313 38.2853L53.0201 41.2795C61.9053 42.0551 70.3766 45.3793 77.4143 50.8517C78.6339 51.8034 79.7889 53.0471 80.4362 54.2998C81.0778 55.5415 81.1223 56.5596 80.6215 57.3965C80.004 58.4283 78.5547 59.0054 76.6687 59.2466L76.6648 59.2471C66.9697 60.5126 57.2384 54.8746 51.4293 46.5837C50.6852 45.3292 49.9323 44.0956 49.1882 42.8832L46.5782 44.3584C47.2548 45.6632 48.0226 46.9333 48.8714 48.1559C53.458 55.9034 57.3661 63.8794 57.1276 72.3812L57.1276 72.3817C57.0914 73.6867 56.881 75.0122 56.432 76.1049C55.9868 77.1885 55.3529 77.9428 54.5101 78.3331L54.5091 78.3336C53.2135 78.9347 51.3784 78.5386 49.9977 77.3686C48.6138 76.196 47.6949 74.4649 46.861 72.48C43.6677 64.8134 42.5913 56.4525 43.7139 48.2641C43.9077 47.1735 44.0932 46.0886 44.2764 45.0135L41.3294 44.4549C41.0995 45.5556 40.9076 46.6613 40.7536 47.77C39.3275 55.7676 37.5411 63.5543 33.203 70.0027C32.358 71.2561 31.2371 72.4445 30.0542 73.1674C28.8817 73.8839 27.82 74.0536 26.8717 73.6699L26.8714 73.6698C25.8592 73.2606 25.2111 72.3316 24.9147 70.872C24.6159 69.3999 24.7384 67.615 25.1013 66.0171C27.1528 57.0696 31.827 48.9354 38.5276 42.6531L36.7818 40.2428C27.3518 45.4006 15.9019 46.7901 5.52257 44.0172L5.5208 44.0167C4.7704 43.8172 4.08961 43.5881 3.54263 43.2805C3.00528 42.9782 2.68622 42.6506 2.52166 42.2879L2.52125 42.287C2.32131 41.8471 2.3283 41.2933 2.63058 40.6074C2.93694 39.9122 3.49934 39.2107 4.15432 38.6612C8.31738 35.1692 14.526 35.102 20.5977 35.9155L20.5978 35.9156C26.5178 36.7085 32.3532 38.038 38.0319 39.8876L39.0167 37.0544C29.2057 33.4265 19.5446 28.8693 13.8917 20.6783C13.3935 19.9552 12.9907 19.1623 12.8265 18.4517C12.6652 17.7534 12.7659 17.313 12.9987 17.0109L12.9995 17.0098C13.2009 16.748 13.5423 16.5435 14.1287 16.4464C14.7261 16.3475 15.4476 16.3854 16.1901 16.5055L16.197 16.5066C27.1244 18.2223 35.6668 26.7359 43.7317 35.2632L46.8718 38.5834L46.3101 34.0482L46.2708 33.7306ZM34.8999 4.77345C35.0688 4.66866 35.3453 4.60413 35.8966 4.87405C36.4609 5.15036 37.0687 5.67943 37.5557 6.27404L37.5558 6.27415C43.4115 13.4231 44.8209 23.1846 45.9319 32.9423L45.8368 32.8484C38.5089 25.6022 32.7443 16.0755 34.2132 6.48618C34.3758 5.42638 34.6311 4.94347 34.8999 4.77345Z" fill="#FED33D" stroke="#26103D" stroke-width="3"/>
<path d="M51.4875 40.1045C51.4875 45.2271 47.3296 49.3843 42.1949 49.3843C37.0602 49.3843 32.9023 45.2271 32.9023 40.1045C32.9023 34.982 37.0602 30.8247 42.1949 30.8247C47.3296 30.8247 51.4875 34.982 51.4875 40.1045Z" fill="#FFADE3" stroke="#26103D" stroke-width="5"/>
</g>
<defs>
<clipPath id="clip0_121_3785">
<rect width="82.6087" height="80" fill="white" transform="translate(0.890625 0.104492)"/>
</clipPath>
</defs>
</svg>
