<svg width="14" height="12" viewBox="0 0 14 12">
<path d="M13.7356 0.164965C13.4969 -0.0258356 13.1218 -0.0531357 12.7339 0.0935647C12.326 0.247765 1.1873 4.74898 0.73388 4.93288C0.651411 4.95988 -0.068838 5.21308 0.00535215 5.77708C0.071582 6.28558 0.650456 6.49618 0.721144 6.52048L3.55279 7.43399C3.74065 8.02319 4.43319 10.197 4.58635 10.6614C4.68188 10.9509 4.83758 11.3313 5.11046 11.4096C5.3499 11.4966 5.58807 11.4171 5.74219 11.3031L7.4734 9.79019L10.2681 11.8437L10.3347 11.8812C10.5244 11.9604 10.7062 12 10.8798 12C11.0138 12 11.1425 11.9763 11.2654 11.9289C11.6841 11.7669 11.8515 11.391 11.8691 11.3484L13.9566 1.12527C14.084 0.579266 13.9069 0.301465 13.7356 0.164965ZM6.0501 7.79939L5.09486 10.1994L4.13963 7.19939L11.4631 2.09937L6.0501 7.79939Z"/>
</svg>
