<svg width="16" height="10" viewBox="0 0 16 10">
<path d="M8.71512 9.99488C3.24512 9.99488 0.125117 6.24488 -0.00488281 0.00488281H2.73512C2.82512 4.58488 4.84512 6.52488 6.44512 6.92488V0.00488281H9.02512V3.95488C10.6051 3.78488 12.2651 1.98488 12.8251 0.00488281H15.4051C15.1941 1.03177 14.7735 2.00406 14.1695 2.86095C13.5655 3.71784 12.7913 4.4409 11.8951 4.98488C12.8954 5.48194 13.779 6.18548 14.4874 7.04908C15.1959 7.91268 15.7132 8.9167 16.0051 9.99488H13.1651C12.903 9.0584 12.3704 8.22009 11.6339 7.58503C10.8975 6.94996 9.98996 6.54639 9.02512 6.42488V9.99488H8.71512Z" />
</svg>
